<svg height="269.185693" viewBox="0 0 254.23627 184.0529" width="371.490768" xmlns="http://www.w3.org/2000/svg" xmlns:xlink="http://www.w3.org/1999/xlink"><filter id="a" color-interpolation-filters="sRGB" height="1.04085" width="1.040846" x="-.020423" y="-.020425"><feGaussianBlur stdDeviation="1.7805838"/></filter><path d="m238.82478 89.45352a76.90047 74.246654 0 0 1 -76.90047 74.24666 76.90047 74.246654 0 0 1 -76.900472-74.24666 76.90047 74.246654 0 0 1 76.900472-74.246657 76.90047 74.246654 0 0 1 76.90047 74.246657z" fill="#0d4de5"/><path d="m-198.45508 650.19727c-32.30992.0491-62.78789 15.02927-82.5664 40.57812l-3.89844 5.0332h173.0332l-3.89844-5.0332c-19.79812-25.57413-50.32016-40.55719-82.66211-40.57812zm.008 6.24414h.008c28.03609.0189 54.23427 12.41267 72.80078 33.12304h-145.52735c18.54674-20.68853 44.71265-33.07837 72.71875-33.12304zm98.11329 62.32617-2.82032.75195c-62.94649 16.76663-93.69922 64.36549-93.69922 122.5918v17.31055l3.27149-.14844c55.77339-2.59707 99.726494-48.6193 99.757811-104.45313v-.008c-.04422-11.32055-1.927285-22.55959-5.572265-33.27734zm-196.4629.59765-.72265 2.11915c-3.64315 10.73354-5.51795 21.99317-5.55078 33.32812v.008c.0272 46.34767 30.58173 87.18282 75.03711 100.29102l4 1.18164v-23.39453c0-23.81756 7.25271-48.15368 17.66601-67.81641 10.4133-19.66269 24.14133-34.55898 35.91992-39.73047l-1.25585-5.98633zm4.66602 6.24415h109.31836c-10.61586 7.99471-20.76913 20.87429-29.07031 36.54882-10.84681 20.48126-18.39453 45.66262-18.39453 70.74024v14.66797c-39.57007-13.5769-66.524-50.59238-66.54883-92.7461.0295-9.92541 1.71772-19.75139 4.69531-29.21093zm187.58789.98242c2.79312 9.16622 4.43712 18.6506 4.47461 28.24414-.0367 51.4309-39.63838 93.64349-90.53125 97.72851v-10.45312c0-55.08382 27.60594-98.68431 86.05664-115.51953z" filter="url(#a)" opacity=".5" transform="matrix(.69063763 0 0 .69063763 299.26501 -429.27986)"/><path d="m162.20985 0a92.026431 92.026431 0 0 0 -92.026437 92.026477 92.026431 92.026431 0 0 0 92.026437 92.026423 92.026431 92.026431 0 0 0 92.02642-92.026423 92.026431 92.026431 0 0 0 -92.02642-92.026477zm0 21.928214a70.098263 70.098263 0 0 1 55.38422 27.187595h-110.70735a70.098263 70.098263 0 0 1 55.32313-27.187595zm-66.379188 47.771225h84.848098c-17.85644 7.84004-38.29431 42.485481-38.29431 76.254381v13.26766a70.098263 70.098263 0 0 1 -50.272835-67.195003 70.098263 70.098263 0 0 1 3.719047-22.327038zm132.745048.03289a70.098263 70.098263 0 0 1 3.73238 22.296106 70.098263 70.098263 0 0 1 -66.83767 69.983075v-9.69679c0-39.46896 20.43178-71.215726 63.10529-82.582391z" fill="#f4f4f7"/><path d="m58.020244 41.820901c-32.043716 0-58.020244 25.976998-58.020244 58.021157 0 32.043242 25.976528 58.020242 58.020244 58.020242 32.044159 0 58.021166-25.977 58.021166-58.020242 0-32.044159-25.977007-58.021157-58.021166-58.021157" fill="#07111e"/><path d="m92.08789 83.939347c-8.793436 0-15.922184 7.128764-15.922184 15.922184 0 8.793449 7.128748 15.922189 15.922184 15.922189 7.96643-.0105 14.70069-5.90588 15.76085-13.79995h-9.086865c-.899789 2.83054-3.546763 4.88089-6.673985 4.88089-3.867553 0-7.001739-3.13558-7.001739-7.001745 0-3.867554 3.135572-7.001722 7.001739-7.003105 3.127222 0 5.775603 2.050352 6.673985 4.880892h9.088275c-1.06157-7.896893-7.79583-13.792088-15.76226-13.801355m-68.209012 22.923933c-3.867553 0-7.001748-3.13558-7.001748-7.003132 0-3.867554 3.135578-7.001748 7.001748-7.001748 3.867553 0 7.001721 3.135578 7.001721 7.001748 0 3.868932-3.135551 7.003132-7.001721 7.003132m15.922192 8.65111v-15.652859c0-8.79342-7.128772-15.922184-15.922192-15.922184-8.793446 0-15.9221843 7.128764-15.9221843 15.922184 0 8.793449 7.1287383 15.922189 15.9221843 15.922189 2.59457-.005 5.284207-1.10606 7.179743-2.93903v2.6697zm18.147305-22.65458c3.867553 0 7.001742 3.135551 7.001742 7.003105 0 3.868025-3.135572 7.001745-7.001742 7.001745-3.867564 0-7.001732-3.13558-7.001732-7.001745 0-3.868937 3.134168-7.003105 7.001732-7.003105m-15.922195-16.756614v23.758335c0 8.793449 7.12879 15.922189 15.922195 15.922189 8.794376 0 15.922187-7.12874 15.922187-15.922189 0-8.79342-7.127811-15.922184-15.922187-15.922184-2.427713.0052-4.941148.776481-7.001732 2.172748v-10.008899zm0 0" fill="#f0f0f0" fill-rule="evenodd"/></svg>