<?xml version="1.0" encoding="UTF-8"?>
<svg version="1.1" xmlns="http://www.w3.org/2000/svg" width="512" height="512">
<path d="M0 0 C168.96 0 337.92 0 512 0 C512 168.96 512 337.92 512 512 C343.04 512 174.08 512 0 512 C0 343.04 0 174.08 0 0 Z " fill="#B12317" transform="translate(0,0)"/>
<path d="M0 0 C1.04285156 -0.00257813 2.08570313 -0.00515625 3.16015625 -0.0078125 C5.9375 0.125 5.9375 0.125 8.9375 1.125 C11.67615287 1.19551114 14.38777588 1.21857765 17.125 1.1875 C18.24938477 1.18073242 18.24938477 1.18073242 19.39648438 1.17382812 C21.24352383 1.16206354 23.09052213 1.14412865 24.9375 1.125 C24.9375 3.105 24.9375 5.085 24.9375 7.125 C27.26825929 6.16634491 27.26825929 6.16634491 28.9375 3.125 C31.57873813 2.4126572 34.06379996 1.8752334 36.75 1.4375 C37.81831055 1.24317383 37.81831055 1.24317383 38.90820312 1.04492188 C42.63334062 0.39362587 46.16423959 0.06740233 49.9375 0.125 C49.9529612 1.03915176 49.9529612 1.03915176 49.96873474 1.97177124 C50.07666953 8.29802465 50.19127788 14.62413185 50.30981445 20.95019531 C50.35320516 23.31312001 50.39487713 25.67607691 50.43481445 28.0390625 C50.49241693 31.42978636 50.5561401 34.8203475 50.62109375 38.2109375 C50.63780624 39.27243011 50.65451874 40.33392273 50.67173767 41.42758179 C50.7016555 42.89888046 50.7016555 42.89888046 50.73217773 44.39990234 C50.75549416 45.69896011 50.75549416 45.69896011 50.77928162 47.02426147 C50.80846592 49.18257893 50.80846592 49.18257893 51.9375 51.125 C53.4225 51.62 53.4225 51.62 54.9375 52.125 C54.9375 53.115 54.9375 54.105 54.9375 55.125 C46.6875 55.125 38.4375 55.125 29.9375 55.125 C29.9375 54.135 29.9375 53.145 29.9375 52.125 C28.9475 52.455 27.9575 52.785 26.9375 53.125 C26.85113281 53.98222656 26.76476562 54.83945312 26.67578125 55.72265625 C25.09572592 68.58053767 25.09572592 68.58053767 19.9375 73.125 C12.63502177 78.06629148 4.1604071 79.51873053 -4.5 79.5 C-5.24064697 79.49911377 -5.98129395 79.49822754 -6.74438477 79.49731445 C-12.38583924 79.37533371 -17.42036989 78.58633891 -22.0625 75.125 C-24.5540904 71.3876144 -24.52043285 69.55168417 -24.0625 65.125 C-21.67900722 61.15251203 -19.47360531 59.47283774 -15.0625 58.125 C-15.0625 57.465 -15.0625 56.805 -15.0625 56.125 C-15.990625 55.691875 -15.990625 55.691875 -16.9375 55.25 C-19.0625 54.125 -19.0625 54.125 -21.0625 52.125 C-21.50197765 48.86030886 -21.76848191 46.32245393 -20.046875 43.40234375 C-17.94390518 40.82430545 -15.83119211 38.97079474 -13.0625 37.125 C-14.25784912 34.29962936 -15.62374041 32.45424926 -17.625 30.0625 C-21.38982672 25.52540113 -21.46656646 21.6842803 -21.40625 15.984375 C-20.68528539 9.98726031 -17.61060172 6.35716259 -13 2.6875 C-8.53679843 0.31345661 -5.04378168 -0.01250008 0 0 Z " fill="#FDFAF9" transform="translate(194.0625,241.875)"/>
<path d="M0 0 C6.52865035 -0.07645954 13.05718396 -0.12877088 19.58618164 -0.16479492 C21.8043245 -0.17982277 24.02243793 -0.20025077 26.24047852 -0.22631836 C29.44034108 -0.26296624 32.63980861 -0.27978688 35.83984375 -0.29296875 C36.82145981 -0.30845261 37.80307587 -0.32393646 38.81443787 -0.33988953 C47.46928988 -0.34197518 55.20457771 1.33714809 62 7 C65.53064483 11.94290276 65.96291568 17.12258071 65 23 C61.9232653 30.56035237 55.97183871 35.10397248 49 39 C50.08667969 40.03640625 50.08667969 40.03640625 51.1953125 41.09375 C54.08491428 43.98945228 56.51227087 47.16798204 58.875 50.5 C59.30699707 51.10368408 59.73899414 51.70736816 60.18408203 52.3293457 C63.77088213 57.44735675 66.6745748 62.74140743 69.4296875 68.35546875 C71.03793348 71.06388299 72.50880458 72.17204492 75 74 C75 74.99 75 75.98 75 77 C71.95682614 77.13558695 68.91974438 77.23437239 65.875 77.3125 C65.0190625 77.35439453 64.163125 77.39628906 63.28125 77.43945312 C59.02410322 77.52132133 56.50926579 77.27301468 52.69921875 75.23046875 C48.57496637 71.15173633 46.92618215 65.31583936 44.9375 60 C41.69270861 50.30317562 41.69270861 50.30317562 35 43 C32.26633011 42.33706035 29.8336832 42.14408559 27 42 C27.10967098 46.27137254 27.2403499 50.54184766 27.375 54.8125 C27.4059375 56.02744141 27.436875 57.24238281 27.46875 58.49414062 C27.50742188 59.65751953 27.54609375 60.82089844 27.5859375 62.01953125 C27.63306885 63.62985229 27.63306885 63.62985229 27.68115234 65.27270508 C27.81592307 68.2160765 27.81592307 68.2160765 30 71 C32.56282742 71.72965366 32.56282742 71.72965366 35 72 C35 73.32 35 74.64 35 76 C23.78 76 12.56 76 1 76 C1 74.68 1 73.36 1 72 C1.969375 71.71125 2.93875 71.4225 3.9375 71.125 C7.10664203 70.35785318 7.10664203 70.35785318 8 68 C8.10645059 66.1064772 8.14882848 64.2092169 8.16113281 62.31274414 C8.17554413 60.52562767 8.17554413 60.52562767 8.19024658 58.70240784 C8.19449646 57.40971481 8.19874634 56.11702179 8.203125 54.78515625 C8.20887633 53.44998675 8.21463406 52.11481727 8.22039795 50.77964783 C8.23090584 47.9794781 8.23675008 45.17933707 8.24023438 42.37915039 C8.24572301 38.78988627 8.26975923 35.20100077 8.29820633 31.61185551 C8.31682213 28.85378405 8.32203769 26.09580407 8.32357025 23.33767509 C8.32807252 21.37058503 8.34672278 19.40354391 8.36553955 17.4365387 C8.36253845 16.24197556 8.35953735 15.04741241 8.35644531 13.81665039 C8.36009094 12.76345108 8.36373657 11.71025177 8.36749268 10.62513733 C8.21125617 7.97994313 8.21125617 7.97994313 6.64569092 6.1794281 C4.50838027 4.64766766 2.57952307 4.3485842 0 4 C0 2.68 0 1.36 0 0 Z " fill="#FDFBFB" transform="translate(48,221)"/>
<path d="M0 0 C6.7951159 -0.10201175 13.59003192 -0.1717207 20.38574219 -0.21972656 C22.69408549 -0.23975417 25.00237862 -0.26698439 27.31054688 -0.30175781 C30.64205357 -0.35066594 33.97288538 -0.37305811 37.3046875 -0.390625 C38.834991 -0.42159271 38.834991 -0.42159271 40.39620972 -0.45318604 C48.69505785 -0.4557438 55.45857053 1.3085136 62.125 6.375 C65.67995158 11.30891857 64.72016446 18.29303636 64 24 C61.25611263 30.1463077 55.78425361 34.88629856 49.5625 37.375 C48.716875 37.58125 47.87125 37.7875 47 38 C47 38.66 47 39.32 47 40 C47.680625 40.165 48.36125 40.33 49.0625 40.5 C57.51582416 44.81659106 61.56258946 54.18066168 65.88671875 62.1953125 C69.1782906 68.9607025 69.1782906 68.9607025 75 73 C75 74.32 75 75.64 75 77 C71.76954027 76.94791754 68.54171241 76.85279846 65.3125 76.75 C63.94448242 76.72873047 63.94448242 76.72873047 62.54882812 76.70703125 C61.66259766 76.67480469 60.77636719 76.64257812 59.86328125 76.609375 C59.05157471 76.58842773 58.23986816 76.56748047 57.40356445 76.54589844 C54.08034057 75.79112661 52.42302361 74.37272732 50 72 C48.59375 69.42211914 48.59375 69.42211914 47.5 66.53515625 C47.0875 65.48779297 46.675 64.44042969 46.25 63.36132812 C45.8375 62.27271484 45.425 61.18410156 45 60.0625 C41.72027642 50.33305939 41.72027642 50.33305939 35 43 C32.26634281 42.33730489 29.83360751 42.14408174 27 42 C27.08069751 46.27161792 27.19355745 50.54178934 27.3125 54.8125 C27.33505859 56.02744141 27.35761719 57.24238281 27.38085938 58.49414062 C27.4340332 60.23920898 27.4340332 60.23920898 27.48828125 62.01953125 C27.51446533 63.09307861 27.54064941 64.16662598 27.56762695 65.27270508 C28.0475008 68.29962247 28.55745344 69.2203932 31 71 C33.10332891 71.71447643 33.10332891 71.71447643 35 72 C35 73.32 35 74.64 35 76 C23.78 76 12.56 76 1 76 C1 74.68 1 73.36 1 72 C2.175625 71.5978125 2.175625 71.5978125 3.375 71.1875 C6.28114923 70.15185568 6.28114923 70.15185568 8 67 C8.3111793 64.33302692 8.3111793 64.33302692 8.2746582 61.29101562 C8.28419022 60.11970093 8.29372223 58.94838623 8.30354309 57.74157715 C8.30217598 55.84309021 8.30217598 55.84309021 8.30078125 53.90625 C8.30506638 52.60804321 8.3093515 51.30983643 8.31376648 49.97229004 C8.32122555 47.22513749 8.32093943 44.47811347 8.31567383 41.73095703 C8.30987469 38.2100646 8.32682165 34.68969746 8.3500185 31.16889191 C8.36828757 27.81048891 8.36457088 24.45220248 8.36328125 21.09375 C8.372491 19.82809204 8.38170074 18.56243408 8.39118958 17.25842285 C8.38184639 15.50145081 8.38184639 15.50145081 8.37231445 13.70898438 C8.37294388 12.67656616 8.3735733 11.64414795 8.3742218 10.58044434 C8.20595789 7.97465646 8.20595789 7.97465646 6.6446991 6.18615723 C4.50862422 4.64561972 2.58320087 4.3490812 0 4 C0 2.68 0 1.36 0 0 Z " fill="#FDFBFB" transform="translate(48,116)"/>
<path d="M0 0 C0.33 25.41 0.66 50.82 1 77 C2.32 77.66 3.64 78.32 5 79 C5 79.99 5 80.98 5 82 C-1.27 82 -7.54 82 -14 82 C-14.33 80.68 -14.66 79.36 -15 78 C-15.43828125 78.433125 -15.8765625 78.86625 -16.328125 79.3125 C-21.46974443 83.82709267 -25.41787235 84.82576384 -32.2265625 84.45703125 C-37.18699119 83.63960849 -39.74294782 81.25705218 -43.1875 77.8125 C-47.64364217 70.89779663 -48.55661575 63.65046443 -48.5 55.5625 C-48.49572998 54.63888672 -48.49145996 53.71527344 -48.48706055 52.76367188 C-48.26958121 44.07679394 -46.11391328 38.65884811 -40.5 32.0625 C-36.03565329 28.37941397 -32.94270745 26.57959299 -27.0625 26.625 C-26.06347656 26.61726563 -25.06445312 26.60953125 -24.03515625 26.6015625 C-21 27 -21 27 -15 30 C-15.33 23.4 -15.66 16.8 -16 10 C-18.31 9.34 -20.62 8.68 -23 8 C-23 6.35 -23 4.7 -23 3 C-21.95199219 2.86722656 -20.90398437 2.73445313 -19.82421875 2.59765625 C-18.44529222 2.41942765 -17.06638707 2.24103359 -15.6875 2.0625 C-14.65206055 1.93198242 -14.65206055 1.93198242 -13.59570312 1.79882812 C-8.85951212 1.18106408 -4.79986787 0 0 0 Z " fill="#FDFAFA" transform="translate(459,110)"/>
<path d="M0 0 C6.32556865 3.77407878 10.6174257 9.70179406 12.90234375 16.6796875 C14.7714196 25.85515076 13.74667276 34.72090292 9.375 43 C5.63543107 48.62355429 1.05295985 53.29567317 -5.625 55 C-14.24324261 55.87694398 -22.48467683 55.93328372 -29.5546875 50.5234375 C-36.15352694 44.52698175 -38.20187037 37.28912034 -38.8984375 28.58203125 C-39.15128061 19.1976619 -38.33910758 12.00348844 -31.65234375 4.90625 C-22.89332518 -3.0832847 -11.04778593 -5.00181771 0 0 Z " fill="#FDF9F9" transform="translate(159.625,139)"/>
<path d="M0 0 C5.95549402 4.15042676 10.05390614 10.31973272 11.89453125 17.3203125 C13.04305203 27.22337429 11.94300132 36.24248275 6.3515625 44.63671875 C2.65823478 49.22591086 -1.31408509 52.84462339 -7.10546875 54.3203125 C-16.91026725 55.30760124 -23.94466359 54.68392173 -31.79296875 48.6328125 C-38.06604601 42.95180096 -39.6308152 36.28314584 -40.4140625 28.09375 C-40.78410402 18.33810994 -38.86846623 10.79722683 -32.359375 3.3125 C-23.91719107 -4.47160723 -10.03760444 -5.32607583 0 0 Z " fill="#FDFAF9" transform="translate(356.10546875,139.6796875)"/>
<path d="M0 0 C1.26227417 0.00580078 1.26227417 0.00580078 2.55004883 0.01171875 C8.85087221 0.09893576 14.72341796 0.82354619 20.875 2.25 C20.875 9.18 20.875 16.11 20.875 23.25 C18.895 23.25 16.915 23.25 14.875 23.25 C14.77703125 22.65832031 14.6790625 22.06664062 14.578125 21.45703125 C13.62793772 16.43578296 12.71981229 12.87510873 8.875 9.25 C4.84302323 6.89801355 0.447648 6.49979994 -4.125 7.25 C-8.38166699 9.49162425 -8.38166699 9.49162425 -11.125 13.25 C-11.48193556 17.03351691 -11.52994249 19.47692797 -9.75 22.875 C-5.2172182 26.97608829 0.20259626 29.23177595 5.87890625 31.39453125 C13.59405835 34.3406749 20.35471847 38.03183349 25.08984375 45.05078125 C27.53825889 51.90877988 26.84594299 61.22337226 23.9375 67.8125 C20.36676957 73.89184558 15.16571208 77.1096933 8.6171875 79.37890625 C4.44900198 80.34916238 0.63934272 80.67265136 -3.625 80.6875 C-4.40020996 80.69136719 -5.17541992 80.69523437 -5.97412109 80.69921875 C-14.09684354 80.54011217 -20.58914845 78.2052359 -28.125 75.25 C-27.795 67.99 -27.465 60.73 -27.125 53.25 C-24.815 53.25 -22.505 53.25 -20.125 53.25 C-19.856875 54.44625 -19.58875 55.6425 -19.3125 56.875 C-17.69081358 63.24912858 -15.64557175 67.42806571 -10.125 71.25 C-6.41740268 73.10379866 -2.17126515 72.70923868 1.875 72.25 C5.73044798 70.25342873 7.47305092 68.85292362 9.875 65.25 C10.30996228 61.33533946 10.41728379 59.09428202 8.26171875 55.73828125 C5.48515312 52.84356389 2.94204978 51.50358632 -0.6875 49.8125 C-1.93937011 49.21081583 -3.19066573 48.60793502 -4.44140625 48.00390625 C-5.06160645 47.70887207 -5.68180664 47.41383789 -6.32080078 47.10986328 C-22.14739789 39.56706558 -22.14739789 39.56706558 -26.25 30.86328125 C-28.01848086 25.58152368 -28.06047048 20.03900735 -26.28515625 14.74609375 C-23.03312748 8.27488498 -18.27296695 4.42805433 -11.9453125 1.10546875 C-7.9429526 -0.10854346 -4.1593676 -0.04575672 0 0 Z " fill="#FDFAF9" transform="translate(76.125,322.75)"/>
<path d="M0 0 C0 16.83 0 33.66 0 51 C4.39751304 48.36149218 7.38481112 45.78597718 10.75 42.0625 C11.24371094 41.53720703 11.73742187 41.01191406 12.24609375 40.47070312 C14.69318171 37.79231507 16.60840832 35.69342152 17 32 C15.35 31.67 13.7 31.34 12 31 C12 30.01 12 29.02 12 28 C19.26 28 26.52 28 34 28 C34 28.99 34 29.98 34 31 C33.05125 31.268125 32.1025 31.53625 31.125 31.8125 C25.12112763 34.30281257 21.08719384 40.156223 17 45 C19.33803352 51.21437792 22.6976099 56.84626782 25.9375 62.625 C26.88786133 64.34203125 26.88786133 64.34203125 27.85742188 66.09375 C28.47037109 67.18945312 29.08332031 68.28515625 29.71484375 69.4140625 C30.27292725 70.4138916 30.83101074 71.4137207 31.40600586 72.44384766 C32.85038315 74.9863447 32.85038315 74.9863447 34.70532227 76.66162109 C36 78 36 78 36 81 C27.75 81 19.5 81 11 81 C11 80.01 11 79.02 11 78 C11.99 77.67 12.98 77.34 14 77 C13.45281186 71.73229327 11.67804217 67.88226068 9.1875 63.3125 C8.84396484 62.64927734 8.50042969 61.98605469 8.14648438 61.30273438 C6.17667613 57.632904 4.40175748 55.3482928 1 53 C1.10952116 56.79228144 1.24023241 60.5835384 1.375 64.375 C1.4059375 65.45523438 1.436875 66.53546875 1.46875 67.6484375 C1.50742188 68.6796875 1.54609375 69.7109375 1.5859375 70.7734375 C1.63306885 72.20308838 1.63306885 72.20308838 1.68115234 73.66162109 C1.78555796 76.18895176 1.78555796 76.18895176 4 78 C4 78.99 4 79.98 4 81 C-4.25 81 -12.5 81 -21 81 C-21 80.01 -21 79.02 -21 78 C-18.525 77.01 -18.525 77.01 -16 76 C-16 53.56 -16 31.12 -16 8 C-17.32 7.34 -18.64 6.68 -20 6 C-20 4.68 -20 3.36 -20 2 C-17.98030444 1.65984075 -15.95917203 1.32820831 -13.9375 1 C-12.81214844 0.814375 -11.68679687 0.62875 -10.52734375 0.4375 C-7 0 -7 0 0 0 Z " fill="#FDFBFA" transform="translate(243,111)"/>
<path d="M0 0 C5.43965708 5.29650821 6.29172837 11.48799704 6.4140625 18.8046875 C6.43342865 19.5286673 6.4527948 20.25264709 6.4727478 20.99856567 C6.53209886 23.29059398 6.57874878 25.58267374 6.625 27.875 C6.66322087 29.43752081 6.70227494 31.00002148 6.7421875 32.5625 C6.83776308 36.37483465 6.92195606 40.1872678 7 44 C8.65 44.33 10.3 44.66 12 45 C10.24277009 49.31320068 7.1937832 52.9031084 3 55 C0.125 55.375 0.125 55.375 -3 55 C-5.25 52.6875 -5.25 52.6875 -7 50 C-7.66 49.01 -8.32 48.02 -9 47 C-9.72316406 47.63228516 -9.72316406 47.63228516 -10.4609375 48.27734375 C-11.09257812 48.82519531 -11.72421875 49.37304688 -12.375 49.9375 C-13.00148437 50.48277344 -13.62796875 51.02804687 -14.2734375 51.58984375 C-17.98605789 54.62209706 -21.56616064 54.50441953 -26.2265625 54.4921875 C-30.22404131 53.78277577 -31.68965406 51.93880962 -33.9765625 48.7265625 C-36.78267673 43.99258353 -36.62799244 39.40365591 -36 34 C-33.66213886 27.48894749 -29.06206508 23.95300596 -23 21 C-18.37647521 19.07353134 -13.94505763 18.51155769 -9 18 C-8.91857073 16.2507786 -8.86061459 14.50045458 -8.8125 12.75 C-8.77769531 11.77546875 -8.74289063 10.8009375 -8.70703125 9.796875 C-9.04641998 6.55684393 -9.64204195 5.23163887 -12 3 C-14.0488648 2.51942285 -14.0488648 2.51942285 -16.1875 2.75 C-18.0746875 2.87375 -18.0746875 2.87375 -20 3 C-20.03738281 3.68707031 -20.07476562 4.37414062 -20.11328125 5.08203125 C-20.17902344 5.98308594 -20.24476563 6.88414062 -20.3125 7.8125 C-20.37050781 8.70582031 -20.42851562 9.59914063 -20.48828125 10.51953125 C-21.07448471 13.36105182 -21.65603995 14.32652155 -24 16 C-27.5625 16.375 -27.5625 16.375 -31 16 C-33.09680643 12.85479035 -33.60187288 10.8320751 -33.51171875 7.06640625 C-32.51565641 3.04413923 -29.37581812 1.09866811 -26 -1 C-18.10041739 -5.04164692 -7.68423565 -3.97933632 0 0 Z " fill="#FCF8F7" transform="translate(178,348)"/>
<path d="M0 0 C0.01030746 0.60943451 0.02061493 1.21886902 0.03123474 1.84677124 C0.13916953 8.17302465 0.25377788 14.49913185 0.37231445 20.82519531 C0.41570516 23.18812001 0.45737713 25.55107691 0.49731445 27.9140625 C0.55491693 31.30478636 0.6186401 34.6953475 0.68359375 38.0859375 C0.70030624 39.14743011 0.71701874 40.20892273 0.73423767 41.30258179 C0.7641555 42.77388046 0.7641555 42.77388046 0.79467773 44.27490234 C0.81799416 45.57396011 0.81799416 45.57396011 0.84178162 46.89926147 C0.87096592 49.05757893 0.87096592 49.05757893 2 51 C2.99 51.33 3.98 51.66 5 52 C5 52.99 5 53.98 5 55 C-3.25 55 -11.5 55 -20 55 C-20 54.01 -20 53.02 -20 52 C-20.99 52.33 -21.98 52.66 -23 53 C-24.71875 51.8203125 -24.71875 51.8203125 -26.5 50.125 C-30.43452156 46.4148152 -33.41136376 45.87370789 -38.76171875 45.68359375 C-40.43911133 45.62075195 -40.43911133 45.62075195 -42.15039062 45.55664062 C-43.31763672 45.51732422 -44.48488281 45.47800781 -45.6875 45.4375 C-47.45577148 45.37272461 -47.45577148 45.37272461 -49.25976562 45.30664062 C-52.17305883 45.20048824 -55.08643757 45.09843758 -58 45 C-58.66 43.68 -59.32 42.36 -60 41 C-58.91796875 39.03125 -58.91796875 39.03125 -57 37 C-53.92578125 36.53125 -53.92578125 36.53125 -50.3125 36.5 C-43.34553682 36.1624255 -38.3062202 35.51742837 -33.41015625 30.30859375 C-30.12098624 25.79851298 -29.35325032 21.7979389 -29.625 16.26953125 C-30.1075743 13.34895135 -31.23479534 11.35360621 -33 9 C-33 8.34 -33 7.68 -33 7 C-31.95199219 6.94392578 -31.95199219 6.94392578 -30.8828125 6.88671875 C-29.51769531 6.78810547 -29.51769531 6.78810547 -28.125 6.6875 C-27.22007812 6.62949219 -26.31515625 6.57148438 -25.3828125 6.51171875 C-22.63778399 6.2117961 -22.63778399 6.2117961 -21 3 C-18.35876187 2.2876572 -15.87370004 1.7502334 -13.1875 1.3125 C-12.11918945 1.11817383 -12.11918945 1.11817383 -11.02929688 0.91992188 C-7.30415938 0.26862587 -3.77326041 -0.05759767 0 0 Z " fill="#B12418" transform="translate(244,242)"/>
<path d="M0 0 C4.97725721 2.97793613 8.40745897 7.07491608 10.9375 12.25 C11.5625 15.4375 11.5625 15.4375 11.5625 25.4375 C1.0025 25.4375 -9.5575 25.4375 -20.4375 25.4375 C-18.38742942 35.65521347 -18.38742942 35.65521347 -11.4375 42.4375 C-5.80093443 43.26419628 -1.26192189 42.57898402 3.5625 39.4375 C5.87668291 37.37582739 5.87668291 37.37582739 7.5625 35.4375 C8.8825 36.0975 10.2025 36.7575 11.5625 37.4375 C10.06393146 44.09780464 6.04229099 48.6505533 0.81640625 52.8359375 C-5.32490817 56.56034754 -12.51110217 56.4598173 -19.4375 55.4375 C-25.87643089 52.99292022 -29.43534176 48.77496996 -32.5625 42.78125 C-35.76239733 34.21009645 -35.98499679 22.65102238 -33.37890625 13.87109375 C-30.39606683 7.4123168 -26.74376878 2.83938913 -20.4375 -0.5625 C-14.1386886 -2.6621038 -6.11504343 -2.77310109 0 0 Z " fill="#FCF8F8" transform="translate(363.4375,243.5625)"/>
<path d="M0 0 C6.17193952 2.85496626 9.45600897 7.28311169 12.47265625 13.31640625 C12.96765625 19.75140625 12.96765625 19.75140625 13.47265625 26.31640625 C2.91265625 26.31640625 -7.64734375 26.31640625 -18.52734375 26.31640625 C-16.94165049 35.86857214 -16.94165049 35.86857214 -11.52734375 42.31640625 C-8.07190041 44.04412792 -4.31267733 43.67447835 -0.52734375 43.31640625 C3.76036128 41.66728893 6.9896836 39.28717704 10.47265625 36.31640625 C11.46265625 36.97640625 12.45265625 37.63640625 13.47265625 38.31640625 C11.97408771 44.97671089 7.95244724 49.52945955 2.7265625 53.71484375 C-3.41475192 57.43925379 -10.60094592 57.33872355 -17.52734375 56.31640625 C-24.05573687 53.83786159 -27.56308668 49.57899836 -30.65234375 43.46484375 C-34.14798032 34.88180753 -33.98004299 23.40353384 -31.46875 14.609375 C-25.35772327 1.44334181 -14.23395688 -3.84998834 0 0 Z " fill="#FCF9F8" transform="translate(154.52734375,242.68359375)"/>
<path d="M0 0 C1.64453125 1.171875 1.64453125 1.171875 3.83203125 4.109375 C4.38888761 7.69800485 4.55105652 9.8710537 2.70703125 13.046875 C-0.01746774 14.59075776 -2.0968882 14.4360857 -5.16796875 14.109375 C-7.93020153 11.34714222 -7.74653166 8.90230883 -8.16796875 5.109375 C-9.82411532 4.72718733 -11.49253899 4.39542398 -13.16796875 4.109375 C-14.57600627 5.29442427 -14.57600627 5.29442427 -14.35546875 8.671875 C-14.322833 12.3270791 -13.70099465 15.48025808 -12.60546875 18.95703125 C-12.16796875 21.109375 -12.16796875 21.109375 -12.16796875 28.109375 C-7.54796875 28.109375 -2.92796875 28.109375 1.83203125 28.109375 C1.83203125 29.759375 1.83203125 31.409375 1.83203125 33.109375 C-2.45796875 33.109375 -6.74796875 33.109375 -11.16796875 33.109375 C-10.83796875 47.299375 -10.50796875 61.489375 -10.16796875 76.109375 C-7.85796875 76.769375 -5.54796875 77.429375 -3.16796875 78.109375 C-3.16796875 79.099375 -3.16796875 80.089375 -3.16796875 81.109375 C-13.39796875 81.109375 -23.62796875 81.109375 -34.16796875 81.109375 C-34.16796875 80.119375 -34.16796875 79.129375 -34.16796875 78.109375 C-31.69296875 77.119375 -31.69296875 77.119375 -29.16796875 76.109375 C-28.83796875 61.919375 -28.50796875 47.729375 -28.16796875 33.109375 C-30.14796875 33.109375 -32.12796875 33.109375 -34.16796875 33.109375 C-34.16796875 31.459375 -34.16796875 29.809375 -34.16796875 28.109375 C-31.85796875 28.109375 -29.54796875 28.109375 -27.16796875 28.109375 C-27.214375 27.28695312 -27.26078125 26.46453125 -27.30859375 25.6171875 C-27.58439687 17.08699094 -27.1310703 9.96831277 -21.578125 3.16015625 C-15.7225711 -2.15069496 -7.28111938 -2.99116255 0 0 Z " fill="#FCF8F7" transform="translate(317.16796875,110.890625)"/>
<path d="M0 0 C3.02005834 3.0937183 4.80201549 5.5151162 5.375 9.8125 C5 13 5 13 2.875 15.875 C0 18 0 18 -3.0625 18.625 C-6 18 -6 18 -8.375 16.0625 C-10.32171044 12.39369955 -10.29231212 9.96098706 -10.04296875 5.890625 C-10.02169922 4.95476562 -10.02169922 4.95476562 -10 4 C-11.15287573 2.64497454 -11.15287573 2.64497454 -14.25 2.5625 C-18.34058231 3.03453652 -18.34058231 3.03453652 -20.875 5.8125 C-24.43897701 11.15846551 -24.24592431 15.60320699 -24.3125 21.8125 C-24.34150391 22.70259766 -24.37050781 23.59269531 -24.40039062 24.50976562 C-24.45525265 30.20275593 -23.85331166 33.51036165 -20 38 C-17.33118197 40.1069616 -15.52817607 40.90610203 -12.1875 41.5 C-6.30599604 40.57741114 -1.59510134 36.63778856 3 33 C3.99 33.66 4.98 34.32 6 35 C5.12730984 41.42617296 1.19506026 46.29194662 -3.69140625 50.43359375 C-9.80031222 54.61337152 -15.82951872 54.6286699 -23 54 C-28.91825158 52.45909536 -32.25647783 49.04832389 -35.7734375 44.1953125 C-40.77098419 35.25065886 -40.62034832 22.54431943 -38.1953125 12.75 C-34.87777482 5.42853754 -28.81498523 -0.39369043 -21.4375 -3.5 C-13.24307559 -4.69191628 -7.33409753 -4.03699882 0 0 Z " fill="#FCF7F7" transform="translate(217,140)"/>
<path d="M0 0 C0 4.95 0 9.9 0 15 C-1.65 15 -3.3 15 -5 15 C-5.4125 13.906875 -5.825 12.81375 -6.25 11.6875 C-7.64528538 8.48158846 -8.75035965 6.57839674 -12 5 C-15.561827 4.55477163 -17.31754465 4.56897557 -20.375 6.5 C-20.91125 6.995 -21.4475 7.49 -22 8 C-21.72475062 11.30299256 -21.35462266 12.67094163 -18.88671875 14.9609375 C-14.66641545 17.94199071 -10.06614536 19.89017959 -5.375 22.0234375 C-0.71085266 24.75498675 2.2513255 27.75397651 4 33 C4.7437808 40.06591756 2.99750113 45.11826006 -1 51 C-7.14656958 56.85460752 -14.85106045 56.40253964 -22.7890625 56.30078125 C-27.69300103 56.08968456 -30.93963081 54.76450668 -35 52 C-35 47.05 -35 42.1 -35 37 C-32.69 37 -30.38 37 -28 37 C-27.7525 38.2375 -27.505 39.475 -27.25 40.75 C-26.25845937 44.55427834 -25.48214702 46.8571403 -22 49 C-17.26860501 49.66856668 -14.02943506 49.68629004 -10 47 C-9.4161804 44.0850745 -9.4161804 44.0850745 -10 41 C-12.82717589 37.57553343 -15.80652187 35.94543165 -19.8125 34.125 C-25.00695378 31.61667574 -28.92229174 29.07770826 -33 25 C-34.99065952 19.02802144 -35.01763073 12.33207042 -32.5 6.5625 C-22.97861733 -3.19691724 -12.79101456 -1.73437486 0 0 Z " fill="#FCF8F7" transform="translate(288,243)"/>
<path d="M0 0 C1.65 0 3.3 0 5 0 C5 6.6 5 13.2 5 20 C7.97 20 10.94 20 14 20 C14 21.65 14 23.3 14 25 C11.03 25 8.06 25 5 25 C5.495 44.305 5.495 44.305 6 64 C7.32 64.33 8.64 64.66 10 65 C11.77190909 63.64555699 11.77190909 63.64555699 13 62 C14.485 62.495 14.485 62.495 16 63 C14.35178761 68.24431216 11.47669873 71.59430613 6.6875 74.3125 C3.04495764 75.24431316 -0.27104468 75.61897639 -4 75 C-7.57639715 72.8230626 -9.4149295 70.82829568 -11 67 C-11.24050903 64.92449951 -11.24050903 64.92449951 -11.22705078 62.69042969 C-11.22689972 61.84986023 -11.22674866 61.00929077 -11.22659302 60.14324951 C-11.21627045 59.24519592 -11.20594788 58.34714233 -11.1953125 57.421875 C-11.1924826 56.4953009 -11.18965271 55.56872681 -11.18673706 54.61407471 C-11.17555611 51.65925091 -11.15045527 48.70473195 -11.125 45.75 C-11.11496751 43.74479605 -11.10584213 41.73958734 -11.09765625 39.734375 C-11.07562358 34.82279949 -11.04110795 29.91145141 -11 25 C-12.98 25 -14.96 25 -17 25 C-17 23.35 -17 21.7 -17 20 C-16.12988281 19.63261719 -16.12988281 19.63261719 -15.2421875 19.2578125 C-6.63197287 15.13741276 -3.32596862 8.66298803 0 0 Z " fill="#FCF7F7" transform="translate(122,328)"/>
<path d="M0 0 C0.33 2.97 0.66 5.94 1 9 C1.763125 8.05125 2.52625 7.1025 3.3125 6.125 C5.82195662 3.00513501 7.80524872 1.15252144 11.9375 0.625 C15 1 15 1 17.375 2.4375 C19.78872647 6.24376098 19.63214204 9.61402681 19 14 C17.875 17.0625 17.875 17.0625 16 19 C12.8125 19.3125 12.8125 19.3125 10 19 C9.01 17.02 8.02 15.04 7 13 C4.3094472 14.22007944 4.3094472 14.22007944 2 16 C1.89912788 18.50924153 1.86027968 20.99036384 1.8671875 23.5 C1.86623077 24.25087891 1.86527405 25.00175781 1.86428833 25.77539062 C1.86360662 27.36588627 1.86546028 28.95638467 1.86962891 30.546875 C1.87497733 32.98964655 1.86968366 35.43223421 1.86328125 37.875 C1.86394203 39.41666707 1.8652232 40.95833403 1.8671875 42.5 C1.86516327 43.23541016 1.86313904 43.97082031 1.86105347 44.72851562 C1.56943487 48.15246342 1.56943487 48.15246342 3 51 C5.32817964 51.36760731 7.6618385 51.70241581 10 52 C10 53.32 10 54.64 10 56 C-0.23 56 -10.46 56 -21 56 C-21 54.68 -21 53.36 -21 52 C-19.35 51.34 -17.7 50.68 -16 50 C-16 36.47 -16 22.94 -16 9 C-18.475 8.01 -18.475 8.01 -21 7 C-21 5.68 -21 4.36 -21 3 C-18.43850372 2.49432271 -15.87600535 1.99529868 -13.3125 1.5 C-12.59126953 1.35691406 -11.87003906 1.21382812 -11.12695312 1.06640625 C-7.36158641 0.34428113 -3.85526187 -0.1824976 0 0 Z " fill="#FCF8F8" transform="translate(396,242)"/>
<path d="M0 0 C0.33 2.97 0.66 5.94 1 9 C1.4125 8.4225 1.825 7.845 2.25 7.25 C6.82403433 1.36909871 6.82403433 1.36909871 10.140625 0.328125 C13.28371966 0.21171409 15.4718754 0.60390655 18 2.5 C19.40837704 6.02094259 19.56609968 9.2946203 19 13 C17.84367254 15.36293002 16.85016245 17.14983755 15 19 C13.33382885 19.04063832 11.66611905 19.042721 10 19 C9.01 17.02 8.02 15.04 7 13 C4.24358584 13.49756092 4.24358584 13.49756092 2 15 C1.88672634 17.49754141 1.83582809 19.9663999 1.83203125 22.46484375 C1.82870285 23.21335098 1.82537445 23.96185822 1.82194519 24.73304749 C1.81687307 26.31933984 1.81453695 27.9056429 1.81469727 29.49194336 C1.81251227 31.92384369 1.79436419 34.35528949 1.77539062 36.78710938 C1.77245651 38.32551928 1.77047183 39.86393134 1.76953125 41.40234375 C1.76234573 42.13259262 1.75516022 42.86284149 1.74775696 43.61521912 C1.63290566 47.76269993 1.63290566 47.76269993 4 51 C6.57061311 51.64767793 6.57061311 51.64767793 9 52 C9 52.99 9 53.98 9 55 C-0.9 55 -10.8 55 -21 55 C-21 54.01 -21 53.02 -21 52 C-19.35 51.34 -17.7 50.68 -16 50 C-16 36.14 -16 22.28 -16 8 C-17.65 7.67 -19.3 7.34 -21 7 C-21 5.68 -21 4.36 -21 3 C-18.6263603 2.49265716 -16.25142575 1.99397614 -13.875 1.5 C-13.20984375 1.35691406 -12.5446875 1.21382812 -11.859375 1.06640625 C-7.83943578 0.2387717 -4.10095101 -0.15330658 0 0 Z " fill="#FDFAFA" transform="translate(389,137)"/>
<path d="M0 0 C1.32 0 2.64 0 4 0 C4 6.6 4 13.2 4 20 C6.64 20 9.28 20 12 20 C12 21.32 12 22.64 12 24 C9.36 24 6.72 24 4 24 C4.11807628 29.37531833 4.24231206 34.75044513 4.37231445 40.12548828 C4.41568565 41.95487575 4.45735911 43.78430427 4.49731445 45.61376953 C4.55496418 48.24003486 4.61867365 50.8660931 4.68359375 53.4921875 C4.70030624 54.31306854 4.71701874 55.13394958 4.73423767 55.97970581 C4.7431387 60.1233696 4.7431387 60.1233696 6 64 C7.11375 63.7525 7.11375 63.7525 8.25 63.5 C11 63 11 63 15 63 C12.72583362 68.26649055 10.17069818 71.41465091 5 74 C0.20961264 74.6587959 -2.97920133 74.76016922 -6.9375 71.8125 C-11.07859598 66.16555093 -11.2777369 61.54202994 -11.1953125 54.76171875 C-11.1924826 53.88095169 -11.18965271 53.00018463 -11.18673706 52.09272766 C-11.17557833 49.29084455 -11.15048171 46.48928584 -11.125 43.6875 C-11.11496463 41.78320775 -11.10583975 39.87891048 -11.09765625 37.97460938 C-11.07565309 33.31628203 -11.04115294 28.65819594 -11 24 C-12.65 24 -14.3 24 -16 24 C-16.5 21.8125 -16.5 21.8125 -16 19 C-14.39453125 17.80078125 -14.39453125 17.80078125 -12.3125 16.625 C-5.52615132 12.78819509 -2.74467392 7.07836958 0 0 Z " fill="#FCF8F8" transform="translate(311,225)"/>
<path d="M0 0 C0.33 2.64 0.66 5.28 1 8 C1.78375 7.030625 2.5675 6.06125 3.375 5.0625 C4.91288705 3.16037654 5.79259913 2.10370043 8 1 C13.35364238 0.54437086 13.35364238 0.54437086 15.66796875 2.17578125 C17.48600098 4.66557906 17.3998964 6.37939178 17.375 9.4375 C17.38660156 10.85869141 17.38660156 10.85869141 17.3984375 12.30859375 C16.94169255 15.39386112 16.1658328 16.78247668 14 19 C11.4375 19.375 11.4375 19.375 9 19 C6.8614515 16.8614515 6.57344937 15.86724686 6 13 C4.02 13.99 4.02 13.99 2 15 C2 26.55 2 38.1 2 50 C3.98 50.66 5.96 51.32 8 52 C8 52.99 8 53.98 8 55 C-1.24 55 -10.48 55 -20 55 C-20 54.01 -20 53.02 -20 52 C-18.35 51.34 -16.7 50.68 -15 50 C-15 36.47 -15 22.94 -15 9 C-17.475 8.01 -17.475 8.01 -20 7 C-20 5.68 -20 4.36 -20 3 C-19.15695313 2.86722656 -18.31390625 2.73445313 -17.4453125 2.59765625 C-16.34960938 2.42105469 -15.25390625 2.24445313 -14.125 2.0625 C-12.48917969 1.80146484 -12.48917969 1.80146484 -10.8203125 1.53515625 C-2.44931663 -0.05324601 -2.44931663 -0.05324601 0 0 Z " fill="#FCF8F8" transform="translate(212,346)"/>
<path d="M0 0 C0.01030746 0.60943451 0.02061493 1.21886902 0.03123474 1.84677124 C0.13916953 8.17302465 0.25377788 14.49913185 0.37231445 20.82519531 C0.41570516 23.18812001 0.45737713 25.55107691 0.49731445 27.9140625 C0.55491693 31.30478636 0.6186401 34.6953475 0.68359375 38.0859375 C0.70030624 39.14743011 0.71701874 40.20892273 0.73423767 41.30258179 C0.75418289 42.28344757 0.77412811 43.26431335 0.79467773 44.27490234 C0.81799416 45.57396011 0.81799416 45.57396011 0.84178162 46.89926147 C0.87096592 49.05757893 0.87096592 49.05757893 2 51 C3.485 51.495 3.485 51.495 5 52 C5 52.99 5 53.98 5 55 C-3.25 55 -11.5 55 -20 55 C-20 54.01 -20 53.02 -20 52 C-18.02 51.505 -18.02 51.505 -16 51 C-16 36.81 -16 22.62 -16 8 C-17.32 7.67 -18.64 7.34 -20 7 C-20 5.68 -20 4.36 -20 3 C-17.60530271 2.49395076 -15.20948283 1.99500483 -12.8125 1.5 C-12.13896484 1.35691406 -11.46542969 1.21382812 -10.77148438 1.06640625 C-7.10709081 0.31565245 -3.73080767 -0.06757689 0 0 Z " fill="#FDFAF9" transform="translate(244,242)"/>
<path d="M0 0 C1.93359375 0.41015625 1.93359375 0.41015625 4.30859375 2.47265625 C7.91196762 8.98644747 8.24959127 14.99243078 8.18359375 22.28515625 C8.19132812 23.13207031 8.1990625 23.97898438 8.20703125 24.8515625 C8.18540421 31.91279187 7.63792882 39.22278435 3.93359375 45.41015625 C0.93359375 47.41015625 0.93359375 47.41015625 -2.56640625 47.22265625 C-6.14552946 46.39178836 -6.90106016 46.15496115 -9.06640625 43.41015625 C-12.09902562 36.33404438 -12.37223001 28.74508688 -12.44140625 21.16015625 C-12.45518311 20.32105713 -12.46895996 19.48195801 -12.4831543 18.61743164 C-12.43772878 12.48256469 -11.68657524 6.67571027 -7.70849609 1.71777344 C-5.32039745 -0.18390012 -2.96777737 -0.12524565 0 0 Z " fill="#B12418" transform="translate(344.06640625,141.58984375)"/>
<path d="M0 0 C4.57471633 2.92273543 5.74119681 7.96821056 7 13 C7.36656881 16.20305071 7.37779589 19.34210678 7.3125 22.5625 C7.31733398 23.76036133 7.31733398 23.76036133 7.32226562 24.98242188 C7.25791742 32.16017203 6.36783721 39.05974139 2 45 C-1.26798549 47.178657 -2.20905038 47.72208564 -6 47 C-11.48838445 42.02216294 -12.61853164 36.5788876 -13.22045898 29.35375977 C-13.3384271 26.56617064 -13.37114644 23.78997523 -13.375 21 C-13.39949219 20.06671875 -13.42398438 19.1334375 -13.44921875 18.171875 C-13.47606847 11.76374274 -12.45621867 6.49163613 -9 1 C-5.90826248 -0.54586876 -3.40570448 -0.29359521 0 0 Z " fill="#B12418" transform="translate(150,142)"/>
<path d="M0 0 C3.5 0.3125 3.5 0.3125 6.5 2.3125 C6.80428666 4.98409858 6.92011412 7.42022814 6.8984375 10.09375 C6.90130768 10.86303833 6.90417786 11.63232666 6.90713501 12.42492676 C6.90917763 14.05233496 6.90363391 15.67976759 6.89111328 17.30712891 C6.87506132 19.80296549 6.89095411 22.29718273 6.91015625 24.79296875 C6.90817385 26.37239942 6.90433024 27.95182908 6.8984375 29.53125 C6.90754654 30.65472839 6.90754654 30.65472839 6.9168396 31.80090332 C6.88818359 33.90429688 6.88818359 33.90429688 6.5 37.3125 C2.81314084 39.77040611 -0.21819924 39.99724142 -4.5 39.3125 C-8.40663049 36.6728848 -10.08557677 32.70595493 -11.5 28.3125 C-11.94686495 25.48710558 -12.023976 22.73229983 -12 19.875 C-11.99718018 19.12653809 -11.99436035 18.37807617 -11.99145508 17.60693359 C-11.81977097 11.76201507 -10.63337872 7.62052852 -6.5 3.3125 C-6.02175781 2.75949219 -5.54351562 2.20648438 -5.05078125 1.63671875 C-3.5 0.3125 -3.5 0.3125 0 0 Z " fill="#B1251A" transform="translate(437.5,143.6875)"/>
<path d="M0 0 C10.72413793 0 10.72413793 0 16 3 C20.89107593 8.27721351 21.41597157 11.89080084 21.33984375 18.9453125 C20.84250335 23.41565952 19.38321245 26.07073757 16 29 C10.12914879 32.49993053 7.3910937 32 0 32 C0 21.44 0 10.88 0 0 Z " fill="#B2271B" transform="translate(75,226)"/>
<path d="M0 0 C12.55555556 0 12.55555556 0 17 4 C20.87915491 8.00970339 20.52102021 12.06451584 20.48706055 17.4128418 C20.36009299 21.083236 20.12245107 23.89044833 17.8125 26.8125 C11.39204106 31.80619029 9.07693604 31 0 31 C0 20.77 0 10.54 0 0 Z " fill="#B02216" transform="translate(75,121)"/>
<path d="M0 0 C3.3956697 -0.08745946 6.79104773 -0.14054444 10.1875 -0.1875 C11.14720703 -0.21263672 12.10691406 -0.23777344 13.09570312 -0.26367188 C21.88777807 -0.35493909 21.88777807 -0.35493909 26 3 C25.9375 6.25 25.9375 6.25 25 10 C19.90154524 14.5190849 14.71498198 14.67577703 8.046875 14.4453125 C5.16427676 14.02400968 3.52685138 13.61960504 1.1875 11.9375 C-1.50969342 8.31555454 -1.58378066 6.42005359 -1 2 C-0.67 1.34 -0.34 0.68 0 0 Z " fill="#B02217" transform="translate(184,301)"/>
<path d="M0 0 C3.8220297 1.36501061 4.70414382 3.41794382 6.625 6.9375 C7.12109375 10.62890625 7.12109375 10.62890625 7.0625 14.5 C7.06121094 15.78003906 7.05992187 17.06007813 7.05859375 18.37890625 C6.60686448 22.08634193 5.92850763 24.02695036 3.625 26.9375 C0.625 27.9375 0.625 27.9375 -2.375 27.9375 C-4.74006619 26.50156696 -5.35556579 24.97739126 -6.5625 22.5 C-8.04356446 16.006102 -8.34306765 9.53368143 -6 3.25 C-4.04925294 0.47393688 -3.38170335 -0.08899219 0 0 Z " fill="#B1251A" transform="translate(194.375,247.0625)"/>
<path d="M0 0 C0.10787818 2.77186988 0.18723327 5.53955537 0.25 8.3125 C0.30027344 9.49102539 0.30027344 9.49102539 0.3515625 10.69335938 C0.45031158 16.49486788 0.45031158 16.49486788 -1.796875 19.015625 C-5.06153274 20.47430186 -7.47216875 20.44097891 -11 20 C-13.4375 18.4375 -13.4375 18.4375 -15 16 C-15.47413889 12.27462304 -15.31878604 9.80634115 -13.9375 6.3125 C-10.15357482 1.7962022 -5.95695341 -0.27635351 0 0 Z " fill="#B2261C" transform="translate(170,371)"/>
<path d="M0 0 C3.5625 1 3.5625 1 6 3.5 C7.5625 7 7.5625 7 7.5625 16 C1.6225 16 -4.3175 16 -10.4375 16 C-10.4375 8.58859575 -10.2638534 7.57554353 -6.4375 2 C-3.4375 0 -3.4375 0 0 0 Z " fill="#B12419" transform="translate(146.4375,247)"/>
<path d="M0 0 C4.94041511 5.06709242 4 7.29339968 4 15 C-1.94 15 -7.88 15 -14 15 C-14 7.0982659 -14 7.0982659 -11.625 3.625 C-11.18414062 2.95726562 -10.74328125 2.28953125 -10.2890625 1.6015625 C-7.34231759 -2.05954481 -4.21240524 -1.08941515 0 0 Z " fill="#B02318" transform="translate(357,248)"/>
<path d="M0 0 C2.30910798 1.65850481 2.92431106 2.54883454 3.3984375 5.375 C3.39070312 6.24125 3.38296875 7.1075 3.375 8 C3.38273438 8.86625 3.39046875 9.7325 3.3984375 10.625 C2.92421789 13.45172083 2.31480836 14.34656546 0 16 C-6.10764873 16.65439093 -6.10764873 16.65439093 -8.875 14.625 C-11.35579602 11.04162797 -11.37386951 8.33688632 -11 4 C-8.10582692 -0.51491 -5.12365602 -0.65210168 0 0 Z " fill="#FDF9F9" transform="translate(240,218)"/>
<path d="M0 0 C3.96 0.33 7.92 0.66 12 1 C12 1.33 12 1.66 12 2 C8.7 2 5.4 2 2 2 C2.33 15.2 2.66 28.4 3 42 C4.65 42.33 6.3 42.66 8 43 C8 43.33 8 43.66 8 44 C5.66705225 44.04241723 3.33297433 44.04092937 1 44 C0 43 0 43 -0.12025452 41.24729919 C-0.11803391 40.48562943 -0.11581329 39.72395966 -0.11352539 38.93920898 C-0.11344986 38.07839218 -0.11337433 37.21757538 -0.11329651 36.33067322 C-0.10813522 35.39526199 -0.10297394 34.45985077 -0.09765625 33.49609375 C-0.0962413 32.54307877 -0.09482635 31.59006378 -0.09336853 30.60816956 C-0.08775152 27.55124835 -0.07519616 24.49439923 -0.0625 21.4375 C-0.05748719 19.37044376 -0.05292391 17.30338638 -0.04882812 15.23632812 C-0.03777656 10.15752412 -0.02050055 5.0787743 0 0 Z " fill="#AE1B0F" transform="translate(306,144)"/>
<path d="M0 0 C0.99 0.33 1.98 0.66 3 1 C3 7.6 3 14.2 3 21 C1.68 20.34 0.36 19.68 -1 19 C-0.34 18.67 0.32 18.34 1 18 C0.67 12.06 0.34 6.12 0 0 Z " fill="#B6332C" transform="translate(441,119)"/>
<path d="M0 0 C2.72727273 4.09090909 2.72727273 4.09090909 3 7 C2.01 7.99 1.02 8.98 0 10 C0 6.7 0 3.4 0 0 Z " fill="#AE1B11" transform="translate(389,137)"/>
<path d="M0 0 C-1.44253657 3.36591866 -3.33264727 5.51047079 -6 8 C-5.62403791 5.21788056 -5.32681541 3.4120716 -3.5625 1.1875 C-2 0 -2 0 0 0 Z " fill="#AB130C" transform="translate(434,146)"/>
</svg>
