<?xml version="1.0" encoding="UTF-8"?>
<svg version="1.1" xmlns="http://www.w3.org/2000/svg" width="442" height="225">
<path d="M0 0 C0.73003235 -0.0066568 1.4600647 -0.0133136 2.21221924 -0.02017212 C3.75538625 -0.0302793 5.2985968 -0.03498974 6.84179688 -0.03466797 C9.18174029 -0.0390227 11.51976736 -0.07530701 13.859375 -0.11328125 C27.95226973 -0.22119471 27.95226973 -0.22119471 34.453125 4.3359375 C36.34419394 6.25113022 37.86190452 8.14800935 39.453125 10.3359375 C39.783125 9.6140625 40.113125 8.8921875 40.453125 8.1484375 C43.28010069 4.17300294 45.84460616 2.05513417 50.453125 0.3359375 C55.54889678 -0.26163869 60.55594928 -0.30083979 65.68066406 -0.20605469 C68.07960709 -0.16403654 70.47574908 -0.16500879 72.875 -0.171875 C74.41408183 -0.16138531 75.95314935 -0.14844838 77.4921875 -0.1328125 C78.20170563 -0.13261108 78.91122375 -0.13240967 79.64224243 -0.13220215 C85.17219817 -0.00173777 89.32855956 1.2944312 93.3515625 5.16015625 C93.83882813 5.77503906 94.32609375 6.38992187 94.828125 7.0234375 C95.58222656 7.95736328 95.58222656 7.95736328 96.3515625 8.91015625 C96.71507813 9.38066406 97.07859375 9.85117188 97.453125 10.3359375 C97.81664063 9.86542969 98.18015625 9.39492187 98.5546875 8.91015625 C99.30878906 7.97623047 99.30878906 7.97623047 100.078125 7.0234375 C100.56539063 6.40855469 101.05265625 5.79367188 101.5546875 5.16015625 C106.23247543 0.66524481 111.18848712 -0.12344606 117.44921875 -0.09765625 C118.57687401 -0.10551903 118.57687401 -0.10551903 119.72731018 -0.11354065 C121.30981212 -0.11993466 122.89236176 -0.11865794 124.47485352 -0.11010742 C126.88059091 -0.10159799 129.28394981 -0.13039007 131.68945312 -0.16210938 C133.2343743 -0.16372183 134.77929962 -0.16314301 136.32421875 -0.16015625 C137.39016518 -0.17700722 137.39016518 -0.17700722 138.47764587 -0.19419861 C144.70052493 -0.10845562 148.79877353 1.93845875 153.390625 6.0859375 C153.74125 6.4984375 154.091875 6.9109375 154.453125 7.3359375 C154.783125 5.0259375 155.113125 2.7159375 155.453125 0.3359375 C162.03670823 0.25972715 168.62017722 0.20727035 175.20410156 0.17114258 C177.44275158 0.15607786 179.68137219 0.13562217 181.91992188 0.10961914 C185.14200102 0.07313467 188.36368911 0.05618767 191.5859375 0.04296875 C193.08158737 0.01974297 193.08158737 0.01974297 194.60745239 -0.00395203 C201.49512228 -0.00561142 205.74183173 1.06601755 211.140625 5.5859375 C216.54450656 12.01217503 216.91130341 17.92265963 216.88671875 26.01953125 C216.8919606 27.03386734 216.89720245 28.04820343 216.90260315 29.09327698 C216.90900374 31.23055103 216.9077119 33.36786039 216.89916992 35.50512695 C216.89066034 38.75992061 216.91944947 42.01295751 216.95117188 45.26757812 C216.95278421 47.35156198 216.95220575 49.43554891 216.94921875 51.51953125 C216.96045273 52.48434921 216.97168671 53.44916718 216.98326111 54.44322205 C216.90364334 62.23255803 215.12143547 67.54634019 209.703125 73.2109375 C203.89160692 77.01077624 198.94545519 77.42967258 192.1796875 77.37890625 C191.10541504 77.37270264 190.03114258 77.36649902 188.92431641 77.36010742 C188.10882324 77.35213135 187.29333008 77.34415527 186.453125 77.3359375 C186.45534561 77.89748032 186.45756622 78.45902313 186.45985413 79.0375824 C186.48190806 84.86074185 186.49703205 90.68388951 186.50805664 96.50708008 C186.51309808 98.68286623 186.51993107 100.85864897 186.52856445 103.03442383 C186.54063838 106.15446817 186.54635505 109.27446788 186.55078125 112.39453125 C186.55594254 113.37369003 186.56110382 114.35284882 186.56642151 115.36167908 C186.56649704 116.26253738 186.56657257 117.16339569 186.56665039 118.09155273 C186.568871 118.88875229 186.57109161 119.68595184 186.57337952 120.50730896 C186.453125 122.3359375 186.453125 122.3359375 185.453125 123.3359375 C184.09308676 123.44668483 182.72767859 123.49199834 181.36328125 123.51171875 C166.90252449 123.84980233 152.59548235 124.94663302 138.203125 126.3359375 C137.26413361 126.42565826 136.32514221 126.51537903 135.35769653 126.6078186 C132.65472495 126.86738769 129.95226864 127.13165731 127.25 127.3984375 C126.02950203 127.5171949 126.02950203 127.5171949 124.78434753 127.63835144 C120.95401346 128.02513528 117.21494423 128.48448918 113.453125 129.3359375 C115.0309375 129.92375 115.0309375 129.92375 116.640625 130.5234375 C120.95808238 132.36251671 124.32112823 135.07194395 126.453125 139.3359375 C127.175 138.4078125 127.896875 137.4796875 128.640625 136.5234375 C131.93088035 132.58256669 135.38857499 130.30823574 140.453125 129.3359375 C142.7329326 129.22848874 145.0155866 129.17722682 147.29785156 129.15893555 C147.97808884 129.15236435 148.65832611 129.14579315 149.35917664 129.13902283 C151.60403569 129.11935895 153.84882803 129.10764216 156.09375 129.09765625 C156.86340843 129.09358072 157.63306686 129.0895052 158.42604828 129.08530617 C162.50066354 129.06447392 166.57524541 129.05016047 170.64990234 129.04077148 C174.84403196 129.02971856 179.03762938 128.99532387 183.2315712 128.95559978 C186.46936993 128.92937141 189.70704305 128.92107413 192.94493866 128.91749001 C194.49020732 128.91263936 196.03547095 128.90106899 197.58063507 128.88245201 C212.64178497 128.71227857 212.64178497 128.71227857 219.453125 133.3359375 C221.453125 135.5859375 221.453125 135.5859375 222.453125 137.3359375 C222.783125 134.6959375 223.113125 132.0559375 223.453125 129.3359375 C228.45187165 129.2614206 233.45029033 129.20716313 238.44946289 129.17114258 C240.14776242 129.15611624 241.84602355 129.13568927 243.54418945 129.10961914 C245.99440018 129.07296301 248.444095 129.05614961 250.89453125 129.04296875 C252.02152184 129.01974297 252.02152184 129.01974297 253.17127991 128.99604797 C259.78483035 128.99396724 264.39163037 130.44988922 269.390625 135.0234375 C270.07125 135.7865625 270.751875 136.5496875 271.453125 137.3359375 C271.783125 134.6959375 272.113125 132.0559375 272.453125 129.3359375 C282.353125 128.8409375 282.353125 128.8409375 292.453125 128.3359375 C290.473125 126.6859375 288.493125 125.0359375 286.453125 123.3359375 C285.07606736 121.70521134 283.72590389 120.0492937 282.453125 118.3359375 C282.01742188 118.74585937 281.58171875 119.15578125 281.1328125 119.578125 C280.53726562 120.11695312 279.94171875 120.65578125 279.328125 121.2109375 C278.74804688 121.74460937 278.16796875 122.27828125 277.5703125 122.828125 C264.44854489 132.17314769 235.94151834 124.33500897 223.453125 123.3359375 C223.453125 82.7459375 223.453125 42.1559375 223.453125 0.3359375 C271.453125 0.3359375 271.453125 0.3359375 279.453125 5.3359375 C281.953125 8.1484375 281.953125 8.1484375 283.453125 10.3359375 C283.99839844 9.63017578 283.99839844 9.63017578 284.5546875 8.91015625 C285.05742187 8.28753906 285.56015625 7.66492188 286.078125 7.0234375 C286.56539063 6.40855469 287.05265625 5.79367188 287.5546875 5.16015625 C292.28102157 0.61859656 297.23712545 -0.10792243 303.5546875 -0.02734375 C304.69301529 -0.02809151 304.69301529 -0.02809151 305.8543396 -0.02885437 C307.44946935 -0.02652528 309.04460359 -0.01686592 310.63964844 -0.00024414 C313.07780822 0.02343442 315.51487871 0.02029754 317.953125 0.01367188 C319.507819 0.01924673 321.06250842 0.0263554 322.6171875 0.03515625 C323.34330231 0.03424484 324.06941711 0.03333344 324.8175354 0.03239441 C328.51615979 0.08415995 331.30935942 0.29345546 334.453125 2.3359375 C334.783125 1.6759375 335.113125 1.0159375 335.453125 0.3359375 C346.343125 0.3359375 357.233125 0.3359375 368.453125 0.3359375 C372.413125 12.2159375 372.413125 12.2159375 376.453125 24.3359375 C379.093125 16.4159375 381.733125 8.4959375 384.453125 0.3359375 C395.343125 0.3359375 406.233125 0.3359375 417.453125 0.3359375 C416.17292534 6.09683597 415.15721135 10.5551659 413.01611328 15.82910156 C412.53775024 17.0317717 412.05938721 18.23444183 411.56652832 19.47355652 C411.31452164 20.10410635 411.06251495 20.73465618 410.8028717 21.38431358 C394.70776458 57.46413926 394.70776458 57.46413926 397.078125 94.8984375 C398.61399411 98.41680968 400.26430645 101.86457658 402.03793335 105.26933289 C406.99810615 114.90937471 409.91108132 125.32086396 413.13592529 135.63717651 C414.18789046 138.97509778 415.27019771 142.30138768 416.36572266 145.62524414 C416.70473602 146.65455048 417.04374939 147.68385681 417.39303589 148.74435425 C418.03477661 150.69075704 418.67726195 152.63691453 419.32058716 154.58279419 C419.60247894 155.44581146 419.88437073 156.30882874 420.17480469 157.19799805 C420.42284851 157.95243698 420.67089233 158.70687592 420.92645264 159.48417664 C421.453125 161.3359375 421.453125 161.3359375 421.453125 163.3359375 C420.8127832 163.15853027 420.17244141 162.98112305 419.51269531 162.79833984 C418.61131836 162.55035645 417.70994141 162.30237305 416.78125 162.046875 C415.27208008 161.63066895 415.27208008 161.63066895 413.73242188 161.20605469 C411.57025817 160.63235372 409.3993616 160.09048385 407.22070312 159.58300781 C387.18637919 154.88131787 387.18637919 154.88131787 382.58300781 148.91015625 C379.23440406 142.24631562 377.453125 134.79643872 377.453125 127.3359375 C376.793125 127.3359375 376.133125 127.3359375 375.453125 127.3359375 C375.081875 129.2540625 375.081875 129.2540625 374.703125 131.2109375 C373.54147939 136.5056845 371.58972234 141.36783009 369.453125 146.3359375 C362.70018234 145.11819374 356.04447609 143.5667192 349.390625 141.8984375 C348.53299561 141.69323486 347.67536621 141.48803223 346.79174805 141.27661133 C345.98777588 141.07060303 345.18380371 140.86459473 344.35546875 140.65234375 C343.26480103 140.38079468 343.26480103 140.38079468 342.15209961 140.10375977 C341.59143799 139.85037842 341.03077637 139.59699707 340.453125 139.3359375 C339.22243105 135.64385564 339.830832 134.52880032 341.09960938 130.90576172 C341.48330688 129.79385468 341.86700439 128.68194763 342.2623291 127.53634644 C342.68622925 126.33325836 343.11012939 125.13017029 343.546875 123.890625 C344.19712533 121.99633923 344.84735406 120.10204573 345.49633026 118.20732307 C347.10006536 113.53363661 348.72260312 108.86653482 350.35595703 104.203125 C351.27061251 101.58935966 352.17532587 98.9725271 353.06994629 96.35183716 C353.9126044 93.88566811 354.77000197 91.42447316 355.6439209 88.96920776 C356.02761841 87.83838776 356.41131592 86.70756775 356.80664062 85.54248047 C357.1494104 84.55891571 357.49218018 83.57535095 357.84533691 82.5619812 C359.27905128 74.95205053 356.93115891 67.88654658 354.51171875 60.70703125 C354.0810183 59.39437035 354.0810183 59.39437035 353.64161682 58.05519104 C352.73284105 55.29181245 351.81196927 52.53264777 350.890625 49.7734375 C350.26807246 47.88763626 349.64631989 46.00157073 349.02539062 44.11523438 C347.51052917 39.51902957 345.98481465 34.92656032 344.453125 30.3359375 C344.44947937 31.47075562 344.44583374 32.60557373 344.44207764 33.77478027 C344.40508597 44.48581221 344.34726748 55.19655776 344.26922226 65.90737152 C344.22976617 71.41351997 344.19756839 76.91950893 344.18212891 82.42578125 C344.16695022 87.74279048 344.13248263 93.05936119 344.08481598 98.37617493 C344.07001477 100.40143516 344.06208471 102.426758 344.06124115 104.45207214 C344.05886598 107.29599385 344.03174185 110.13870912 343.99902344 112.98242188 C344.0040538 113.81392761 344.00908417 114.64543335 344.01426697 115.50213623 C343.91401829 121.15916599 342.71816322 125.64509744 339.453125 130.3359375 C335.18499585 133.73301989 331.71906405 135.48783814 326.265625 135.3984375 C325.0075 135.3778125 323.749375 135.3571875 322.453125 135.3359375 C322.46359863 136.5412915 322.47407227 137.74664551 322.48486328 138.98852539 C322.52119989 143.48182173 322.54407507 147.97510519 322.56298828 152.46850586 C322.5730148 154.40928332 322.58663943 156.3500458 322.60400391 158.29077148 C322.62839989 161.08841666 322.63964181 163.88586121 322.6484375 166.68359375 C322.65876007 167.5442897 322.66908264 168.40498566 322.67971802 169.29176331 C322.68089561 175.68653178 322.34690939 181.03268622 318.140625 186.1484375 C315.453125 188.3359375 315.453125 188.3359375 310.453125 190.3359375 C310.453125 201.8859375 310.453125 213.4359375 310.453125 225.3359375 C301.543125 225.3359375 292.633125 225.3359375 283.453125 225.3359375 C283.453125 213.7859375 283.453125 202.2359375 283.453125 190.3359375 C281.803125 189.6759375 280.153125 189.0159375 278.453125 188.3359375 C276.140625 186.2109375 276.140625 186.2109375 274.453125 184.3359375 C274.43854248 185.11195313 274.42395996 185.88796875 274.40893555 186.6875 C274.33400734 190.23745523 274.23749387 193.78651593 274.140625 197.3359375 C274.11806641 198.55667969 274.09550781 199.77742187 274.07226562 201.03515625 C273.62884611 215.95017627 273.62884611 215.95017627 269.00244141 220.88256836 C265.05082551 224.29249804 262.62298107 225.45913976 257.51423645 225.48310852 C255.94763275 225.49384148 255.94763275 225.49384148 254.34938049 225.50479126 C253.19872604 225.50748016 252.04807159 225.51016907 250.86254883 225.51293945 C249.6543045 225.51951065 248.44606018 225.52608185 247.20120239 225.53285217 C243.18751786 225.55262394 239.17387335 225.56425754 235.16015625 225.57421875 C233.77783373 225.57826643 232.39551142 225.58238336 231.01318932 225.58656883 C224.51678644 225.60562498 218.02039493 225.61985329 211.52396947 225.6281808 C204.03026891 225.63794554 196.53686433 225.66424294 189.04326802 225.70468169 C183.2486839 225.73487588 177.45418444 225.74965292 171.65952319 225.75296181 C168.20008034 225.75530922 164.74095353 225.76422808 161.28159523 225.78942299 C157.4178593 225.81710724 153.55451009 225.81286244 149.69067383 225.8059082 C148.55014053 225.81871826 147.40960724 225.83152832 146.23451233 225.84472656 C139.74172112 225.80213357 135.73447309 225.20866056 130.453125 221.3359375 C128.69575988 219.4156087 127.75272201 217.62322824 126.453125 215.3359375 C125.916875 216.2434375 125.380625 217.1509375 124.828125 218.0859375 C122.5835524 221.88444498 120.6587973 222.53215597 116.453125 225.3359375 C103.583125 225.3359375 90.713125 225.3359375 77.453125 225.3359375 C77.453125 195.6359375 77.453125 165.9359375 77.453125 135.3359375 C68.048125 137.3159375 68.048125 137.3159375 58.453125 139.3359375 C51.59632051 139.3359375 47.26761607 139.02589357 42.24609375 134.2265625 C41.65441406 133.60265625 41.06273437 132.97875 40.453125 132.3359375 C40.12441406 132.98820313 39.79570313 133.64046875 39.45703125 134.3125 C38.98136719 135.18648437 38.50570312 136.06046875 38.015625 136.9609375 C37.33693359 138.24871094 37.33693359 138.24871094 36.64453125 139.5625 C30.51481107 147.32025638 21.63037652 150.00617415 12.453125 152.7109375 C10.76703125 153.24267578 10.76703125 153.24267578 9.046875 153.78515625 C1.56969679 156.04752676 -5.25577087 157.87425785 -12.859375 155.1484375 C-16.7916923 152.49640955 -19.04585686 149.83899191 -20.546875 145.3359375 C-20.63658827 143.11257143 -20.66445353 140.88654857 -20.66040039 138.66137695 C-20.66054642 137.9879425 -20.66069244 137.31450806 -20.6608429 136.6206665 C-20.66014675 134.39681771 -20.65236832 132.17305289 -20.64453125 129.94921875 C-20.64266601 128.40650986 -20.64124261 126.86380039 -20.64024353 125.3210907 C-20.63642669 121.26209882 -20.62660351 117.20314277 -20.61553955 113.14416504 C-20.60530752 109.00171391 -20.60074207 104.859257 -20.59570312 100.71679688 C-20.58498051 92.58982732 -20.56791407 84.46288687 -20.546875 76.3359375 C-15.596875 75.8409375 -15.596875 75.8409375 -10.546875 75.3359375 C-11.454375 74.8409375 -12.361875 74.3459375 -13.296875 73.8359375 C-17.27361217 71.13380026 -19.02316985 67.84478725 -20.546875 63.3359375 C-21.09609266 59.50325355 -21.10851176 55.73039303 -21.078125 51.86328125 C-21.0819519 50.7814003 -21.08577881 49.69951935 -21.08972168 48.58485413 C-21.09243218 46.30810612 -21.08513174 44.03132651 -21.06835938 41.75463867 C-21.04691784 38.2803785 -21.06820263 34.80818125 -21.09375 31.33398438 C-21.09110698 29.1145788 -21.08598254 26.89517449 -21.078125 24.67578125 C-21.08622192 23.64331772 -21.09431885 22.61085419 -21.10266113 21.54710388 C-21.02133955 15.26069222 -20.25529982 11.46402035 -16.546875 6.3359375 C-11.22504048 1.41324057 -7.17572486 0.02288164 0 0 Z M27.453125 46.3359375 C30.72814597 48.79220323 34.03763696 51.08482038 37.453125 53.3359375 C37.453125 51.0259375 37.453125 48.7159375 37.453125 46.3359375 C34.153125 46.3359375 30.853125 46.3359375 27.453125 46.3359375 Z M95.453125 123.3359375 C94.09135919 125.31668777 92.75719384 127.31673413 91.453125 129.3359375 C93.103125 129.3359375 94.753125 129.3359375 96.453125 129.3359375 C96.453125 127.3559375 96.453125 125.3759375 96.453125 123.3359375 C96.123125 123.3359375 95.793125 123.3359375 95.453125 123.3359375 Z M153.453125 157.3359375 C153.453125 159.6459375 153.453125 161.9559375 153.453125 164.3359375 C159.063125 164.3359375 164.673125 164.3359375 170.453125 164.3359375 C170.453125 173.2459375 170.453125 182.1559375 170.453125 191.3359375 C164.843125 191.3359375 159.233125 191.3359375 153.453125 191.3359375 C153.453125 193.6459375 153.453125 195.9559375 153.453125 198.3359375 C160.383125 198.3359375 167.313125 198.3359375 174.453125 198.3359375 C174.453125 184.4759375 174.453125 170.6159375 174.453125 156.3359375 C163.58320147 155.26891626 163.58320147 155.26891626 153.453125 157.3359375 Z M271.453125 176.3359375 C272.453125 178.3359375 272.453125 178.3359375 272.453125 178.3359375 Z M272.453125 180.3359375 C273.453125 182.3359375 273.453125 182.3359375 273.453125 182.3359375 Z M222.453125 182.3359375 C220.6903938 183.99012936 220.6903938 183.99012936 219.453125 186.3359375 C219.73708022 188.97312403 219.73708022 188.97312403 220.765625 191.5859375 C221.07113281 192.47796875 221.37664062 193.37 221.69140625 194.2890625 C221.94277344 194.96453125 222.19414062 195.64 222.453125 196.3359375 C222.783125 196.3359375 223.113125 196.3359375 223.453125 196.3359375 C223.453125 191.7159375 223.453125 187.0959375 223.453125 182.3359375 C223.123125 182.3359375 222.793125 182.3359375 222.453125 182.3359375 Z " fill="#1D1718" transform="translate(20.546875,-0.3359375)"/>
<path d="M0 0 C2.23694386 -0.00436619 4.47190223 -0.0406715 6.70849609 -0.07861328 C8.13687479 -0.0844833 9.56526282 -0.08845146 10.99365234 -0.09033203 C12.93667236 -0.10265869 12.93667236 -0.10265869 14.91894531 -0.11523438 C18.96854243 0.45380236 20.54732109 1.46612004 23.37646484 4.37060547 C25.0601302 7.19740884 25.629341 9.28021885 25.65061951 12.55621338 C25.6655822 13.79662132 25.6655822 13.79662132 25.68084717 15.06208801 C25.68151184 15.96086166 25.68217651 16.85963531 25.68286133 17.78564453 C25.69118484 18.73898178 25.69950836 19.69231903 25.70808411 20.67454529 C25.73219297 23.82848184 25.74095805 26.98221152 25.74755859 30.13623047 C25.75652535 32.33095359 25.76564721 34.52567609 25.7749176 36.72039795 C25.79141334 41.32370489 25.7991086 45.92693905 25.80200195 50.53027344 C25.80738146 56.41941325 25.84504181 62.30786576 25.89074612 68.19681168 C25.92054035 72.73167394 25.92772606 77.26637132 25.9287281 81.80132294 C25.93292688 83.97179049 25.94534735 86.1422587 25.96624565 88.3126297 C25.99320366 91.3549242 25.98832051 94.39563397 25.97583008 97.43798828 C25.99066437 98.32866501 26.00549866 99.21934174 26.02078247 100.13700867 C25.94847698 106.34450376 24.39385636 110.58443746 20.37646484 115.37060547 C15.28509284 118.96677033 8.8915396 119.79957845 2.87646484 121.05810547 C1.34699219 121.39551758 1.34699219 121.39551758 -0.21337891 121.73974609 C-10.09316607 123.85317261 -10.09316607 123.85317261 -14.62353516 123.37060547 C-17.32344177 121.57066772 -19.16542166 120.28683247 -20.62353516 117.37060547 C-20.72383233 115.92718875 -20.76292041 114.47928586 -20.77070618 113.03240967 C-20.77786148 112.12118851 -20.78501678 111.20996735 -20.79238892 110.27113342 C-20.79507782 109.26851974 -20.79776672 108.26590607 -20.80053711 107.23291016 C-20.80710831 106.17911667 -20.8136795 105.12532318 -20.82044983 104.03959656 C-20.84021455 100.5405572 -20.85185265 97.04156082 -20.86181641 93.54248047 C-20.86589193 92.34925423 -20.86996746 91.15602798 -20.87416649 89.92664337 C-20.89504098 83.61092806 -20.90933662 77.29523456 -20.91870117 70.97949219 C-20.92976717 64.4512661 -20.96416577 57.92338072 -21.00387287 51.39527512 C-21.03000209 46.38012045 -21.03838976 41.36504738 -21.04198265 36.34983063 C-21.04685831 33.94326731 -21.05849997 31.53670787 -21.07702065 29.13021088 C-21.10133214 25.76182473 -21.1004612 22.39432568 -21.09350586 19.02587891 C-21.10631592 18.03136215 -21.11912598 17.0368454 -21.13232422 16.01219177 C-21.0893165 10.29852685 -20.54985196 6.84438856 -16.62353516 2.37060547 C-11.6827279 -0.92326603 -5.78696107 -0.00126768 0 0 Z " fill="#FDF9FA" transform="translate(86.62353515625,7.62939453125)"/>
<path d="M0 0 C1.50438974 -0.01650508 3.00870282 -0.0437234 4.51269531 -0.08203125 C6.68604038 -0.13710114 8.85754313 -0.15872152 11.03149414 -0.17333984 C12.3343335 -0.19315918 13.63717285 -0.21297852 14.97949219 -0.23339844 C19.68719779 0.52904761 21.24648512 2.01210679 24.58227539 5.35009766 C25.73977095 7.66508878 25.71520532 9.00401791 25.72944641 11.58113098 C25.73660172 12.46855484 25.74375702 13.3559787 25.75112915 14.27029419 C25.75381805 15.2464267 25.75650696 16.2225592 25.75927734 17.22827148 C25.76913414 18.76748009 25.76913414 18.76748009 25.77919006 20.33778381 C25.79895178 23.74423286 25.81059161 27.15063778 25.82055664 30.55712891 C25.82463217 31.71850561 25.8287077 32.87988232 25.83290672 34.07645226 C25.85377896 40.22243447 25.86807613 46.36839428 25.87744141 52.5144043 C25.88851281 58.87009846 25.92291821 65.22544317 25.96261311 71.58101368 C25.98872766 76.46144777 25.99712863 81.34179794 26.00072289 86.22229576 C26.00560159 88.56549123 26.01725184 90.90868263 26.03576088 93.25181007 C26.0600436 96.52940382 26.05920693 99.80608454 26.05224609 103.08374023 C26.06505615 104.05380005 26.07786621 105.02385986 26.09106445 106.02331543 C26.05767883 110.33069062 25.98578314 112.6976731 23.67790222 116.429245 C20.430512 119.40580459 18.33088141 119.55189875 13.95825195 119.49267578 C9.56103857 119.22880683 5.27914901 118.42272701 0.95727539 117.60009766 C0.04204102 117.44283203 -0.87319336 117.28556641 -1.81616211 117.12353516 C-8.57760339 115.8533222 -13.89609247 113.82365235 -18.41772461 108.35009766 C-19.32020672 105.64265132 -19.55011114 104.04743395 -19.57162476 101.26455688 C-19.58022522 100.43465744 -19.58882568 99.604758 -19.59768677 98.74971008 C-19.60194672 97.84262802 -19.60620667 96.93554596 -19.6105957 96.00097656 C-19.61877319 95.04296646 -19.62695068 94.08495636 -19.63537598 93.09791565 C-19.66021163 89.92417019 -19.67673935 86.75046932 -19.69116211 83.57666016 C-19.69648579 82.49342846 -19.70180946 81.41019676 -19.70729446 80.29413986 C-19.73401519 74.56312518 -19.75339554 68.83213222 -19.76782227 63.10107422 C-19.78448804 57.17689788 -19.82928547 51.25327589 -19.88019371 45.32930946 C-19.91381297 40.77742864 -19.92539374 36.22568045 -19.93104935 31.67368698 C-19.93777406 29.48956428 -19.9530276 27.30545067 -19.97694016 25.12144852 C-20.00848628 22.06650483 -20.00864433 19.01307097 -20.0012207 15.95800781 C-20.01762604 15.05497421 -20.03403137 14.15194061 -20.05093384 13.22154236 C-20.00582727 8.69087117 -19.90081219 6.9433216 -16.9437561 3.31210327 C-16.11016571 2.66464142 -15.27657532 2.01717957 -14.41772461 1.35009766 C-11.70206719 -1.36555976 -3.90676546 0.03140009 0 0 Z " fill="#FEFDFD" transform="translate(330.417724609375,7.64990234375)"/>
<path d="M0 0 C39 0 39 0 44 4 C46.72459474 7.64958926 46.30595614 11.90223047 46.30078125 16.2734375 C46.30506638 17.07480133 46.3093515 17.87616516 46.31376648 18.70181274 C46.31950053 20.39462338 46.32001685 22.08745866 46.31567383 23.78027344 C46.31251938 26.359156 46.33596427 28.93688463 46.36132812 31.515625 C46.3636019 33.16406106 46.36430425 34.81250019 46.36328125 36.4609375 C46.372491 37.2267514 46.38170074 37.99256531 46.39118958 38.78158569 C46.34943328 43.65792451 45.3683822 46.64524536 43 51 C42.62422761 54.88484598 42.62422761 54.88484598 44.47290039 57.15844727 C46.66694483 61.24101853 46.44893262 64.89778033 46.43359375 69.46484375 C46.4388356 70.37577286 46.44407745 71.28670197 46.44947815 72.22523499 C46.45588766 74.14746076 46.45457523 76.06972582 46.44604492 77.99194336 C46.43753806 80.92437983 46.46630571 83.85486532 46.49804688 86.78710938 C46.4996592 88.65885359 46.49908077 90.53060123 46.49609375 92.40234375 C46.50732773 93.2743895 46.51856171 94.14643524 46.53013611 95.04490662 C46.46820329 100.48678323 45.73220398 103.75286767 42 108 C39.05503876 110.0695614 36.83264642 110.21257108 33.2890625 110.01171875 C32.37995117 109.9653125 31.47083984 109.91890625 30.53417969 109.87109375 C29.57415039 109.81050781 28.61412109 109.74992187 27.625 109.6875 C26.15401855 109.60628906 26.15401855 109.60628906 24.65332031 109.5234375 C21.7680592 109.36046052 18.88412426 109.18185863 16 109 C14.50261616 108.91255476 13.00522165 108.82529193 11.5078125 108.73828125 C2.31011905 108.15505952 2.31011905 108.15505952 0 107 C0 71.69 0 36.38 0 0 Z " fill="#FDFAFB" transform="translate(252,8)"/>
<path d="M0 0 C3.20793234 -0.06642394 6.41503121 -0.1077748 9.62353516 -0.13549805 C10.73470703 -0.16450195 11.84587891 -0.19350586 12.99072266 -0.22338867 C19.64570568 -0.27488556 23.89755982 0.08638031 29.24853516 4.17700195 C31.32032595 7.28468814 31.49761143 7.93118966 31.48904419 11.44804382 C31.49179352 12.31882568 31.49454285 13.18960754 31.49737549 14.08677673 C31.49018494 15.03911697 31.48299438 15.99145721 31.47558594 16.97265625 C31.47587799 17.9777121 31.47617004 18.98276794 31.47647095 20.01828003 C31.4750757 23.34601422 31.4595052 26.67352554 31.44384766 30.0012207 C31.44011822 32.30621722 31.43727092 34.61121532 31.43527222 36.91621399 C31.4276303 42.98748133 31.40797695 49.05865322 31.38586426 55.12988281 C31.36541789 61.32331043 31.35627308 67.51675345 31.34619141 73.71020508 C31.32473164 85.86584601 31.29058891 98.02141605 31.24853516 110.17700195 C26.29853516 110.50700195 21.34853516 110.83700195 16.24853516 111.17700195 C16.24853516 95.00700195 16.24853516 78.83700195 16.24853516 62.17700195 C11.29853516 62.17700195 6.34853516 62.17700195 1.24853516 62.17700195 C1.24853516 79.00700195 1.24853516 95.83700195 1.24853516 113.17700195 C-3.70146484 113.50700195 -8.65146484 113.83700195 -13.75146484 114.17700195 C-13.89054232 100.47734463 -13.99712608 86.77785552 -14.06233788 73.07763577 C-14.09363792 66.71589137 -14.13608852 60.3546303 -14.20410156 53.99316406 C-14.26933841 47.85287291 -14.30518087 41.71304637 -14.3207283 35.57243538 C-14.33180664 33.23084258 -14.35344038 30.88927495 -14.38584518 28.54788017 C-14.42946381 25.26541258 -14.43539637 21.98485965 -14.43261719 18.70214844 C-14.45418884 17.73613708 -14.4757605 16.77012573 -14.49798584 15.77484131 C-14.44400212 9.87430183 -13.39863851 6.71844389 -9.285923 2.42832565 C-6.34510935 0.03014373 -3.63001714 0.23351929 0 0 Z " fill="#FEFDFD" transform="translate(138.75146484375,6.822998046875)"/>
<path d="M0 0 C1.50438974 -0.01650508 3.00870282 -0.0437234 4.51269531 -0.08203125 C6.68604038 -0.13710114 8.85754313 -0.15872152 11.03149414 -0.17333984 C12.3343335 -0.19315918 13.63717285 -0.21297852 14.97949219 -0.23339844 C19.68719779 0.52904761 21.24648512 2.01210679 24.58227539 5.35009766 C25.86089154 7.90732995 25.69564148 9.71746868 25.67993164 12.57666016 C25.67670898 13.60791016 25.67348633 14.63916016 25.67016602 15.70166016 C25.65759766 17.32201172 25.65759766 17.32201172 25.64477539 18.97509766 C25.64026367 20.06306641 25.63575195 21.15103516 25.63110352 22.27197266 C25.61929329 24.96470428 25.60135745 27.65740775 25.58227539 30.35009766 C20.63227539 30.35009766 15.68227539 30.35009766 10.58227539 30.35009766 C10.58227539 25.40009766 10.58227539 20.45009766 10.58227539 15.35009766 C5.63227539 15.35009766 0.68227539 15.35009766 -4.41772461 15.35009766 C-4.41772461 25.25009766 -4.41772461 35.15009766 -4.41772461 45.35009766 C1.93926269 45.27130055 1.93926269 45.27130055 8.29589844 45.16992188 C14.48419925 45.13126448 18.26065898 45.45551545 23.1784668 49.46875 C27.45340734 54.76302483 26.27462495 62.36284029 26.21118164 68.81884766 C26.2120111 70.34289723 26.21447341 71.86694671 26.2184906 73.39099121 C26.22134303 76.57864443 26.20670308 79.76559284 26.17919922 82.953125 C26.14511632 87.02872769 26.15113933 91.10307082 26.16986179 95.17873383 C26.18045606 98.32389734 26.17147218 101.46877033 26.15647697 104.61390686 C26.15131243 106.11612585 26.15175592 107.61837541 26.15802193 109.12059021 C26.16350404 111.22444351 26.14300842 113.32652476 26.11572266 115.43017578 C26.10952408 116.62453247 26.1033255 117.81888916 26.09693909 119.04943848 C25.31228564 124.08160535 22.84591476 127.16664434 19.18920898 130.59130859 C16.44254703 132.44436654 14.02022869 133.47763289 10.87133789 134.49072266 C9.25098633 135.01279297 9.25098633 135.01279297 7.59790039 135.54541016 C5.91954102 136.06748047 5.91954102 136.06748047 4.20727539 136.60009766 C3.09610352 136.96361328 1.98493164 137.32712891 0.84008789 137.70166016 C-10.21242848 141.20162367 -10.21242848 141.20162367 -15.41772461 140.35009766 C-18.17725171 138.2290846 -19.29417282 137.05872151 -19.89874268 133.59124756 C-19.88986023 132.53423645 -19.88097778 131.47722534 -19.87182617 130.38818359 C-19.87152405 129.1872406 -19.87122192 127.98629761 -19.87091064 126.7489624 C-19.8502655 125.45718079 -19.82962036 124.16539917 -19.80834961 122.83447266 C-19.80088532 121.49498337 -19.79519327 120.15548313 -19.79119873 118.815979 C-19.77595674 115.29758329 -19.73668879 111.7798525 -19.69238281 108.26171875 C-19.65139825 104.66887405 -19.63318101 101.07592146 -19.61303711 97.48291016 C-19.5701919 90.43834199 -19.49985471 83.39433329 -19.41772461 76.35009766 C-14.46772461 76.35009766 -9.51772461 76.35009766 -4.41772461 76.35009766 C-4.41772461 91.53009766 -4.41772461 106.71009766 -4.41772461 122.35009766 C-0.45772461 121.03009766 3.50227539 119.71009766 7.58227539 118.35009766 C8.57227539 118.35009766 9.56227539 118.35009766 10.58227539 118.35009766 C10.58227539 99.54009766 10.58227539 80.73009766 10.58227539 61.35009766 C3.32227539 61.35009766 -3.93772461 61.35009766 -11.41772461 61.35009766 C-17.41772461 57.35009766 -17.41772461 57.35009766 -19.41772461 54.35009766 C-19.69187927 52.20071411 -19.69187927 52.20071411 -19.72412109 49.68261719 C-19.74010849 48.73798615 -19.75609589 47.7933551 -19.77256775 46.82009888 C-19.77793045 45.8013266 -19.78329315 44.78255432 -19.78881836 43.73291016 C-19.80236107 42.15894974 -19.80236107 42.15894974 -19.81617737 40.55319214 C-19.83069102 38.3323655 -19.83956936 36.11149599 -19.84326172 33.890625 C-19.85515535 30.49487142 -19.90432964 27.10093622 -19.95483398 23.70556641 C-19.96429839 21.5480232 -19.97153334 19.39046882 -19.97631836 17.23291016 C-19.99585068 16.21818634 -20.015383 15.20346252 -20.0355072 14.1579895 C-19.99021843 7.07200406 -19.99021843 7.07200406 -16.9453125 3.23242188 C-16.1112085 2.61125488 -15.27710449 1.99008789 -14.41772461 1.35009766 C-11.70206719 -1.36555976 -3.90676546 0.03140009 0 0 Z " fill="#FEFDFD" transform="translate(27.417724609375,7.64990234375)"/>
<path d="M0 0 C5.28 0 10.56 0 16 0 C17.85714582 5.49734921 19.70840233 10.99663258 21.55419922 16.49780273 C22.18311161 18.36944211 22.81363756 20.2405401 23.44580078 22.11108398 C24.35352269 24.79791235 25.25544777 27.48662629 26.15625 30.17578125 C26.44060913 31.01337479 26.72496826 31.85096832 27.01794434 32.71394348 C27.27821411 33.49452621 27.53848389 34.27510895 27.80664062 35.0793457 C28.03758423 35.76551468 28.26852783 36.45168365 28.50646973 37.15864563 C29 39 29 39 29 42 C29.66 42 30.32 42 31 42 C31.21398437 40.86691406 31.42796875 39.73382813 31.6484375 38.56640625 C33.36327535 30.84963594 36.09040578 23.41423333 38.625 15.9375 C39.14625345 14.38881321 39.66709036 12.83998616 40.1875 11.29101562 C41.45277057 7.52542534 42.72654451 3.76286931 44 0 C49.28 0 54.56 0 60 0 C58.45591422 8.19769179 55.78825742 15.98483014 53.1182251 23.86752319 C52.30285378 26.27852324 51.49589842 28.69220194 50.69091797 31.10668945 C48.38792825 38.00121941 46.06590107 44.8828709 43.58203125 51.71484375 C43.24453857 52.66133789 42.9070459 53.60783203 42.55932617 54.58300781 C41.96050982 56.25224555 41.34371797 57.91520815 40.7043457 59.56933594 C37.57223263 68.38221386 41.37372405 76.55910744 44.265625 85.0546875 C44.58150574 85.9957132 44.89738647 86.93673889 45.22283936 87.90628052 C46.22759101 90.89732228 47.23841956 93.88626162 48.25 96.875 C55.90899926 119.57859586 55.90899926 119.57859586 59.484375 130.7578125 C59.74067688 131.54968964 59.99697876 132.34156677 60.26104736 133.15744019 C61.22830364 136.2108734 62 138.77645412 62 142 C58.28507702 141.28164473 54.59632001 140.52924258 50.9375 139.5625 C49.91527344 139.31628906 48.89304687 139.07007813 47.83984375 138.81640625 C43.34114193 135.93896973 42.60545651 131.94261183 41 127 C40.55579589 125.69639278 40.10962624 124.39345425 39.66186523 123.09106445 C38.16072222 118.69546705 36.70407323 114.28644387 35.25 109.875 C33.5175 104.63625 31.785 99.3975 30 94 C26.04 105.22 22.08 116.44 18 128 C12.35978694 127.29497337 8.20885862 126.62776832 3 125 C4.903102 117.67208679 7.11490455 110.53216775 9.64453125 103.3984375 C10.32864707 101.42488543 11.01155454 99.45091414 11.69335938 97.4765625 C12.75341599 94.41379386 13.81994511 91.35408793 14.90698242 88.30078125 C15.96559849 85.31938248 16.99481256 82.32912902 18.01953125 79.3359375 C18.34854935 78.4325766 18.67756744 77.5292157 19.01655579 76.59848022 C21.1293573 70.3152126 21.07991107 66.24845782 19 60 C18.69377213 59.02447174 18.38754425 58.04894348 18.07203674 57.04385376 C16.96736278 53.60200966 15.81296193 50.17985274 14.6484375 46.7578125 C14.00853272 44.85545151 13.36863283 42.95308885 12.7290287 41.05062675 C11.61488054 37.74077853 10.49473938 34.43295999 9.375 31.125 C8.03011784 27.15156638 6.68633235 23.17778592 5.34951782 19.20162964 C4.51905605 16.73286867 3.68451996 14.26547382 2.84555054 11.79959106 C2.47161163 10.68768402 2.09767273 9.57577698 1.71240234 8.43017578 C1.38090179 7.45138458 1.04940125 6.47259338 0.70785522 5.46414185 C0 3 0 3 0 0 Z " fill="#FEFBFC" transform="translate(367,8)"/>
<path d="M0 0 C38 0 38 0 44 5 C45.17158899 7.34317798 45.13877667 8.75866618 45.16113281 11.37036133 C45.17074036 12.2750264 45.1803479 13.17969147 45.19024658 14.11177063 C45.19449646 15.09195663 45.19874634 16.07214264 45.203125 17.08203125 C45.20882507 18.08836105 45.21452515 19.09469086 45.22039795 20.1315155 C45.22985585 22.26417995 45.23638506 24.39685907 45.24023438 26.52954102 C45.2499296 29.78883476 45.28094159 33.04749526 45.3125 36.30664062 C45.31903101 38.37760042 45.32428109 40.44856473 45.328125 42.51953125 C45.3404718 43.49364456 45.3528186 44.46775787 45.36553955 45.47138977 C45.33683268 54.2153771 45.33683268 54.2153771 42 58 C37 61 37 61 15 61 C15 76.18 15 91.36 15 107 C10.05 107 5.1 107 0 107 C0 71.69 0 36.38 0 0 Z " fill="#FEFDFE" transform="translate(184,8)"/>
<path d="M0 0 C27 0 27 0 32 3 C34.3978728 6.5968092 34.25804864 8.22693598 34.2746582 12.50341797 C34.27976913 13.15906738 34.28488007 13.8147168 34.29014587 14.49023438 C34.30404542 16.65764497 34.30308464 18.82473763 34.30078125 20.9921875 C34.30466853 22.50049966 34.30900326 24.00881072 34.31376648 25.51712036 C34.32122984 28.67958116 34.320937 31.84193033 34.31567383 35.00439453 C34.30988466 39.05193524 34.32679584 43.09901753 34.3500185 47.14648247 C34.36477124 50.26236634 34.36562537 53.37814028 34.36250877 56.49405289 C34.3630214 57.98595206 34.36824821 59.47785749 34.37832069 60.96972275 C34.39069561 63.05937958 34.38388775 65.1481497 34.37231445 67.23779297 C34.37294388 68.42565399 34.3735733 69.61351501 34.3742218 70.83737183 C33.96179841 74.32284975 33.09018847 76.20757304 31 79 C21.75277819 83.6236109 10.33870828 80 0 80 C0 53.6 0 27.2 0 0 Z " fill="#FEFBFC" transform="translate(106,137)"/>
<path d="M0 0 C28 0 28 0 33 4 C35.09173338 8.18346675 34.22688595 13.60955545 34.24023438 18.21142578 C34.24989756 20.22861641 34.2809003 22.24476916 34.3125 24.26171875 C34.32023437 26.18177734 34.32023437 26.18177734 34.328125 28.140625 C34.3374707 29.31141602 34.34681641 30.48220703 34.35644531 31.68847656 C33.95980147 35.37346083 32.83670383 37.8078936 31 41 C31.48678223 41.524729 31.97356445 42.04945801 32.47509766 42.59008789 C34.46536195 45.73544474 34.38764437 47.85166922 34.3984375 51.55859375 C34.40423828 53.46801758 34.40423828 53.46801758 34.41015625 55.41601562 C34.40387207 56.07641846 34.39758789 56.73682129 34.39111328 57.41723633 C34.37507625 59.42793967 34.39096277 61.43662516 34.41015625 63.44726562 C34.40628906 64.72150391 34.40242188 65.99574219 34.3984375 67.30859375 C34.39505371 68.47189209 34.39166992 69.63519043 34.38818359 70.83374023 C33.96146755 74.31429395 33.08414169 76.20704662 31 79 C21.75277819 83.6236109 10.33870828 80 0 80 C0 53.6 0 27.2 0 0 Z " fill="#FEFBFC" transform="translate(252,137)"/>
<path d="M0 0 C28 0 28 0 34 5 C34.59137483 7.93942373 34.80097951 10.04333547 34.7265625 12.96875 C34.72755951 13.72667847 34.72855652 14.48460693 34.72958374 15.26550293 C34.72491814 16.86249316 34.70555302 18.45950022 34.67236328 20.05615234 C34.62513166 22.49320675 34.63124978 24.92588473 34.64453125 27.36328125 C34.6333768 28.91929677 34.61915642 30.47529396 34.6015625 32.03125 C34.60429672 33.11738586 34.60429672 33.11738586 34.60708618 34.22546387 C34.50690313 37.82104573 34.05346778 39.91335651 32.14990234 42.99804688 C30 45 30 45 27 45 C27.44730469 46.13695312 27.89460938 47.27390625 28.35546875 48.4453125 C39 75.59226092 39 75.59226092 39 80 C35.04 80 31.08 80 27 80 C25.28682815 75.48090174 23.57794287 70.96021524 21.87304688 66.43798828 C21.29219847 64.89912983 20.7101717 63.36071564 20.12695312 61.82275391 C19.28987971 59.61475923 18.45702756 57.40521269 17.625 55.1953125 C17.36251465 54.50567413 17.1000293 53.81603577 16.82958984 53.10549927 C15 48.22774341 15 48.22774341 15 46 C14.01 46 13.02 46 12 46 C12 57.22 12 68.44 12 80 C8.04 80 4.08 80 0 80 C0 53.6 0 27.2 0 0 Z " fill="#FDF9FA" transform="translate(203,137)"/>
<path d="M0 0 C1.44215715 -0.01151391 2.88427187 -0.03195689 4.32617188 -0.06152344 C6.41671519 -0.10437323 8.50599492 -0.12039145 10.59692383 -0.13061523 C11.84513916 -0.14519775 13.09335449 -0.15978027 14.37939453 -0.17480469 C19.66540173 0.53921986 22.7056752 2.98639224 26.17114258 6.92016602 C28.86336747 10.70922327 28.97797741 12.75751097 28.95629883 17.39672852 C28.95307617 18.60844727 28.94985352 19.82016602 28.9465332 21.06860352 C28.93396484 22.97512695 28.93396484 22.97512695 28.92114258 24.92016602 C28.91663086 26.19891602 28.91211914 27.47766602 28.9074707 28.79516602 C28.89565471 31.96185247 28.87771879 35.12851498 28.85864258 38.29516602 C21.26864258 38.29516602 13.67864258 38.29516602 5.85864258 38.29516602 C5.85864258 33.34516602 5.85864258 28.39516602 5.85864258 23.29516602 C3.54864258 23.29516602 1.23864258 23.29516602 -1.14135742 23.29516602 C-1.14135742 30.88516602 -1.14135742 38.47516602 -1.14135742 46.29516602 C4.79703379 46.13801273 4.79703379 46.13801273 10.73388672 45.93481445 C16.66243746 45.85626543 20.1254463 46.63151846 24.85864258 50.29516602 C30.18793836 56.940991 29.44156773 64.45497533 29.38989258 72.57250977 C29.39259135 74.06791943 29.39647698 75.56332738 29.40148926 77.05873108 C29.40736811 80.1848327 29.39887541 83.31047541 29.38012695 86.43652344 C29.35735746 90.42555581 29.37045693 94.41351028 29.39441681 98.40250301 C29.40893593 101.48853029 29.40424073 104.57430601 29.39390564 107.66034126 C29.39125415 109.13021538 29.39445209 110.60011301 29.40382385 112.06995964 C29.45230338 121.81037748 29.04031265 129.16243596 21.94458008 136.48657227 C16.81589573 140.52093691 10.61567277 142.2540554 4.48364258 144.23266602 C3.30286133 144.64323242 2.12208008 145.05379883 0.90551758 145.47680664 C-5.94290212 147.73800535 -11.05915931 148.96114134 -18.14135742 147.29516602 C-21.381802 144.72981406 -22.83695909 143.20836102 -24.14135742 139.29516602 C-24.23035902 137.28611958 -24.25896195 135.27419633 -24.25488281 133.26318359 C-24.25480728 132.02212357 -24.25473175 130.78106354 -24.25465393 129.50239563 C-24.24954733 128.14816243 -24.24433133 126.79392965 -24.23901367 125.43969727 C-24.23714825 124.05393017 -24.23572493 122.6681624 -24.23472595 121.28239441 C-24.23091052 117.63768692 -24.22108855 113.99301937 -24.21002197 110.34832764 C-24.19978692 106.62813863 -24.19522384 102.90794317 -24.19018555 99.18774414 C-24.1794654 91.89019779 -24.16187649 84.59269259 -24.14135742 77.29516602 C-16.55135742 77.29516602 -8.96135742 77.29516602 -1.14135742 77.29516602 C-1.14135742 91.81516602 -1.14135742 106.33516602 -1.14135742 121.29516602 C2.32364258 120.30516602 2.32364258 120.30516602 5.85864258 119.29516602 C5.85864258 102.79516602 5.85864258 86.29516602 5.85864258 69.29516602 C0.57864258 69.29516602 -4.70135742 69.29516602 -10.14135742 69.29516602 C-18.04021163 67.03835053 -18.04021163 67.03835053 -20.51635742 63.85766602 C-20.9984668 63.26083008 -21.48057617 62.66399414 -21.97729492 62.04907227 C-23.99434813 59.00995519 -24.271961 56.37022785 -24.30249023 52.82714844 C-24.31209778 51.92578659 -24.32170532 51.02442474 -24.331604 50.0957489 C-24.33585388 49.12386124 -24.34010376 48.15197357 -24.34448242 47.15063477 C-24.3501825 46.14809158 -24.35588257 45.1455484 -24.36175537 44.11262512 C-24.37120403 41.99013321 -24.37773882 39.86762663 -24.3815918 37.74511719 C-24.39128854 34.50567875 -24.4223099 31.26687718 -24.45385742 28.02758789 C-24.46038856 25.96444061 -24.46563859 23.9012888 -24.46948242 21.83813477 C-24.48800262 20.38941231 -24.48800262 20.38941231 -24.50689697 18.91142273 C-24.48943702 13.61241617 -24.14541877 9.85999416 -21.14135742 5.29516602 C-14.73401291 -0.63162766 -8.24358732 0.04584449 0 0 Z M-19.14135742 9.29516602 C-19.47135742 9.62516602 -19.80135742 9.95516602 -20.14135742 10.29516602 C-20.25522668 11.77210164 -20.30090526 13.25437985 -20.31835938 14.7355957 C-20.33119461 15.68037781 -20.34402985 16.62515991 -20.35725403 17.59857178 C-20.36464096 18.62766663 -20.37202789 19.65676147 -20.37963867 20.71704102 C-20.38771042 21.76917786 -20.39578217 22.8213147 -20.40409851 23.90533447 C-20.41795965 26.13812604 -20.42867268 28.37093898 -20.43652344 30.60375977 C-20.4537152 34.01693055 -20.49758152 37.42912782 -20.54174805 40.84204102 C-20.55187628 43.00870054 -20.56039197 45.17536832 -20.56713867 47.34204102 C-20.58464676 48.36303894 -20.60215485 49.38403687 -20.62019348 50.43597412 C-20.6068442 54.80452187 -20.58949181 57.52341665 -18.36474609 61.35473633 C-9.74788435 68.87497539 -3.88393238 65.29516602 9.85864258 65.29516602 C9.85864258 84.10516602 9.85864258 102.91516602 9.85864258 122.29516602 C5.40364258 123.28516602 5.40364258 123.28516602 0.85864258 124.29516602 C-2.11135742 125.28516602 -2.11135742 125.28516602 -5.14135742 126.29516602 C-5.14135742 111.11516602 -5.14135742 95.93516602 -5.14135742 80.29516602 C-10.09135742 80.29516602 -15.04135742 80.29516602 -20.14135742 80.29516602 C-20.23176181 88.04908042 -20.30513233 95.80270638 -20.34860611 103.55700302 C-20.36947255 107.15774887 -20.39777163 110.75811517 -20.44311523 114.35864258 C-20.48660867 117.83404515 -20.51050163 121.30908289 -20.52086639 124.78473663 C-20.53184357 126.75462385 -20.56306442 128.72436449 -20.59454346 130.69403076 C-20.59484558 131.89497375 -20.59514771 133.09591675 -20.59545898 134.33325195 C-20.60434143 135.39026306 -20.61322388 136.44727417 -20.62237549 137.53631592 C-20.01778363 141.00391604 -18.90160193 142.17470656 -16.14135742 144.29516602 C-9.39352667 145.37837043 -3.01152576 142.71905057 3.35864258 140.67016602 C4.46079102 140.33887695 5.56293945 140.00758789 6.69848633 139.66625977 C13.67303798 137.44746482 19.8725559 135.02512765 23.91894531 128.61564636 C25.1669823 125.53375457 25.14294403 122.94247919 25.1809082 119.61816406 C25.19083801 118.95582764 25.20076782 118.29349121 25.21099854 117.61108398 C25.2401371 115.42630815 25.25382779 113.24182275 25.26489258 111.05688477 C25.27640467 109.53237404 25.28792002 108.00786334 25.29943848 106.48335266 C25.320429 103.28820452 25.33213329 100.09315657 25.33911133 96.89794922 C25.35007208 92.81547599 25.39811516 88.73433993 25.45505524 84.65228558 C25.49241594 81.5028555 25.50272475 78.35374401 25.50578308 75.2041111 C25.51181378 73.69984442 25.52779586 72.19558187 25.55415344 70.69153404 C25.95597754 61.21092449 25.95597754 61.21092449 22.06762695 52.88037109 C18.5402338 49.40581843 14.87017991 49.16688693 10.09301758 49.19750977 C9.29089844 49.20000732 8.4887793 49.20250488 7.66235352 49.20507812 C6.65462891 49.21418213 5.6469043 49.22328613 4.60864258 49.23266602 C1.39114258 49.25329102 -1.82635742 49.27391602 -5.14135742 49.29516602 C-5.14135742 39.39516602 -5.14135742 29.49516602 -5.14135742 19.29516602 C-0.19135742 19.29516602 4.75864258 19.29516602 9.85864258 19.29516602 C9.85864258 24.24516602 9.85864258 29.19516602 9.85864258 34.29516602 C14.80864258 34.29516602 19.75864258 34.29516602 24.85864258 34.29516602 C24.99391828 30.58560562 25.09290207 26.88100132 25.17114258 23.17016602 C25.23398438 21.60008789 25.23398438 21.60008789 25.2980957 19.99829102 C25.4843166 13.33144792 25.4843166 13.33144792 22.46411133 7.61547852 C17.1860242 2.91505309 11.03738417 3.9992875 4.31054688 3.94506836 C2.80615757 3.92852413 1.30184638 3.9012535 -0.20214844 3.86303711 C-2.37630783 3.80810394 -4.54862764 3.78637232 -6.72338867 3.77172852 C-8.0251001 3.75190918 -9.32681152 3.73208984 -10.66796875 3.71166992 C-14.98585942 4.43703428 -16.39230265 5.98171882 -19.14135742 9.29516602 Z " fill="#C00837" transform="translate(28.141357421875,3.704833984375)"/>
<path d="M0 0 C2.16016747 -0.01710213 4.31875934 -0.06095109 6.47851562 -0.10522461 C19.71113964 -0.25902966 19.71113964 -0.25902966 25.06445312 4.29516602 C28.29816872 8.49904438 28.51831474 12.31897628 28.49804688 17.44750977 C28.50328873 18.2252626 28.50853058 19.00301544 28.51393127 19.80433655 C28.52033499 21.44408986 28.51903586 23.08388922 28.51049805 24.72363281 C28.50199073 27.22162344 28.53076439 29.71732304 28.5625 32.21508789 C28.5641124 33.8133945 28.56353374 35.41170513 28.56054688 37.01000977 C28.57739784 38.12121437 28.57739784 38.12121437 28.59458923 39.25486755 C28.52348854 44.591847 27.41588894 47.3224427 24.06445312 51.29516602 C23.40445313 51.29516602 22.74445313 51.29516602 22.06445312 51.29516602 C26.02445313 62.18516602 29.98445313 73.07516602 34.06445312 84.29516602 C34.39445312 56.90516602 34.72445312 29.51516602 35.06445312 1.29516602 C69.06445312 1.29516602 69.06445312 1.29516602 75.06445312 6.29516602 C76.58359605 9.33345186 76.20658183 12.49053118 76.19726562 15.82250977 C76.19822235 16.56723038 76.19917908 17.31195099 76.20016479 18.07923889 C76.20084569 19.65536585 76.19899767 21.23149561 76.19482422 22.80761719 C76.18948218 25.21954666 76.19476832 27.63128928 76.20117188 30.04321289 C76.20051093 31.57381226 76.19922943 33.10441151 76.19726562 34.63500977 C76.19928986 35.3569603 76.20131409 36.07891083 76.20339966 36.82273865 C76.18890925 39.92120859 76.05212117 42.33216189 75.06445312 45.29516602 C75.39445312 45.95516602 75.72445312 46.61516602 76.06445312 47.29516602 C76.19954692 49.79002228 76.27703923 52.25570446 76.30273438 54.75219727 C76.31080612 55.49217453 76.31887787 56.23215179 76.32719421 56.99455261 C76.34103196 58.56226256 76.35175551 60.13000261 76.35961914 61.69775391 C76.37681334 64.08823234 76.42069662 66.4773206 76.46484375 68.86743164 C76.47497268 70.39151002 76.48348816 71.91560015 76.49023438 73.43969727 C76.50774246 74.15132523 76.52525055 74.86295319 76.54328918 75.59614563 C76.52800193 79.11739746 76.15759 81.14492089 74.2878418 84.16113281 C70.58628732 87.71392601 67.84366416 88.54649559 62.74511719 88.5222168 C61.68431946 88.52206573 60.62352173 88.52191467 59.53057861 88.52175903 C58.39191345 88.51143646 57.25324829 88.50111389 56.08007812 88.49047852 C54.32398224 88.48623367 54.32398224 88.48623367 52.53240967 88.48190308 C48.79298688 88.47070757 45.05380354 88.44560377 41.31445312 88.42016602 C38.77930033 88.41013542 36.24414379 88.40100971 33.70898438 88.39282227 C27.49405892 88.37077028 21.27927313 88.33729877 15.06445312 88.29516602 C14.25884254 86.36999426 13.45407187 84.44447101 12.6496582 82.51879883 C12.2014119 81.44656067 11.75316559 80.37432251 11.29133606 79.26959229 C9.39114035 74.66280227 7.73238793 69.99009363 6.06445312 65.29516602 C5.73445313 72.88516602 5.40445313 80.47516602 5.06445312 88.29516602 C-1.20554688 88.29516602 -7.47554687 88.29516602 -13.93554688 88.29516602 C-13.95809712 76.96904616 -13.97646151 65.64294111 -13.98735905 54.31680393 C-13.99258807 49.05819938 -13.99968606 43.79961092 -14.01098633 38.54101562 C-14.02181453 33.47063475 -14.02782356 28.4002694 -14.03042412 23.32987785 C-14.03227849 21.39089653 -14.03589933 19.45191611 -14.04127693 17.51294136 C-14.04848648 14.80694842 -14.04953785 12.10102046 -14.04907227 9.39501953 C-14.05266754 8.58510056 -14.05626282 7.77518158 -14.05996704 6.9407196 C-14.04223912 -2.51741582 -7.84872209 0.04327041 0 0 Z M-9.93554688 4.29516602 C-9.93554688 30.69516602 -9.93554688 57.09516602 -9.93554688 84.29516602 C-5.97554687 84.29516602 -2.01554688 84.29516602 2.06445312 84.29516602 C2.06445312 73.07516602 2.06445312 61.85516602 2.06445312 50.29516602 C3.05445313 50.29516602 4.04445312 50.29516602 5.06445312 50.29516602 C5.2266333 50.87057129 5.38881348 51.44597656 5.5559082 52.03881836 C7.61435288 59.1362738 10.12229053 66.01677746 12.75195312 72.92016602 C13.16767578 74.01973633 13.58339844 75.11930664 14.01171875 76.25219727 C15.02626653 78.93433507 16.04493173 81.61491481 17.06445312 84.29516602 C21.02445313 84.29516602 24.98445313 84.29516602 29.06445312 84.29516602 C27.62803126 76.81478331 25.23400435 69.95754637 22.50195312 62.85766602 C22.09009766 61.7703418 21.67824219 60.68301758 21.25390625 59.56274414 C19.32970743 54.3554227 19.32970743 54.3554227 17.06445312 49.29516602 C17.66257813 49.21266602 18.26070312 49.13016602 18.87695312 49.04516602 C21.84275327 48.02832025 22.50854959 47.02269514 24.06445312 44.29516602 C24.39257238 41.59392659 24.55598548 39.12701314 24.56835938 36.42407227 C24.57834457 35.66472885 24.58832977 34.90538544 24.59861755 34.12303162 C24.61377514 32.5202274 24.62084407 30.91732894 24.62036133 29.31445312 C24.62692464 26.868281 24.68142167 24.42616717 24.73828125 21.98071289 C24.74708413 20.42017984 24.75303781 18.85962759 24.75585938 17.29907227 C24.77741592 16.57184464 24.79897247 15.844617 24.82118225 15.09535217 C24.85154171 12.72169781 24.85154171 12.72169781 24.06445312 9.29516602 C15.78112877 1.30763882 15.78112877 1.30763882 -9.93554688 4.29516602 Z M39.06445312 4.29516602 C39.06445312 30.69516602 39.06445312 57.09516602 39.06445312 84.29516602 C48.63445312 84.29516602 58.20445312 84.29516602 68.06445312 84.29516602 C74.13541012 78.22420902 73.28065784 74.33806602 73.3046875 66.02880859 C73.31436736 64.00063663 73.34537845 61.9734896 73.37695312 59.94555664 C73.38210938 58.66229492 73.38726562 57.3790332 73.39257812 56.05688477 C73.40192383 54.88085693 73.41126953 53.7048291 73.42089844 52.49316406 C73.03278958 49.01108331 72.07835723 47.12293995 70.06445312 44.29516602 C70.55051025 43.60745117 71.03656738 42.91973633 71.53735352 42.21118164 C74.35985622 36.82157775 73.53401575 30.75881384 73.50195312 24.79516602 C73.52193359 23.47645508 73.54191406 22.15774414 73.5625 20.79907227 C73.56185547 19.5293457 73.56121094 18.25961914 73.56054688 16.95141602 C73.5623999 15.79448242 73.56425293 14.63754883 73.56616211 13.44555664 C72.96347821 9.66111235 71.71398669 8.01111554 69.06445312 5.29516602 C60.11521355 0.82054623 49.07000714 4.29516602 39.06445312 4.29516602 Z " fill="#BB0433" transform="translate(212.935546875,132.704833984375)"/>
<path d="M0 0 C7.59 0 15.18 0 23 0 C25.79041466 6.97603664 28.38933259 13.83016871 30.75 20.9375 C31.06582031 21.86884766 31.38164062 22.80019531 31.70703125 23.75976562 C32.15369141 25.0987793 32.15369141 25.0987793 32.609375 26.46484375 C32.87717773 27.265271 33.14498047 28.06569824 33.42089844 28.89038086 C34 31 34 31 34 34 C34.66 34 35.32 34 36 34 C36.24621094 32.7728125 36.49242187 31.545625 36.74609375 30.28125 C38.0952526 24.21419556 40.07222524 18.38181377 42.0625 12.5 C42.60874023 10.85644531 42.60874023 10.85644531 43.16601562 9.1796875 C45.86631944 1.13368056 45.86631944 1.13368056 47 0 C48.70772358 -0.08713831 50.41898649 -0.10700007 52.12890625 -0.09765625 C53.68061523 -0.09282227 53.68061523 -0.09282227 55.26367188 -0.08789062 C56.35228516 -0.07951172 57.44089844 -0.07113281 58.5625 -0.0625 C60.2012207 -0.05573242 60.2012207 -0.05573242 61.87304688 -0.04882812 C64.58208495 -0.03699826 67.29101599 -0.02051543 70 0 C68.65096779 6.56921835 66.85855557 12.81524401 64.69921875 19.16015625 C64.22184013 20.58236732 64.22184013 20.58236732 63.7348175 22.03330994 C62.72334593 25.04450798 61.70578859 28.05360117 60.6875 31.0625 C60.01581612 33.05388139 59.34458851 35.04541673 58.67382812 37.03710938 C58.18174362 38.49810562 58.18174362 38.49810562 57.67971802 39.98861694 C56.7119814 42.87212808 55.75270026 45.75834957 54.79443359 48.64501953 C53.68133081 51.99520196 52.53132609 55.3268409 51.33447266 58.64794922 C50.85415997 60.03471571 50.37415613 61.42158923 49.89453125 62.80859375 C49.4766333 63.97060303 49.05873535 65.1326123 48.62817383 66.32983398 C47.03947448 75.61196272 51.50930792 85.03986675 54.47096634 93.74412346 C55.24125498 96.00802541 56.00398588 98.27435659 56.76498413 100.54139709 C58.1047002 104.52849763 59.45086567 108.51338403 60.79925537 112.49755859 C62.9652083 118.8975981 65.12588008 125.2993865 67.27769089 131.70419502 C68.02944428 133.93628552 68.78683188 136.16640992 69.54458618 138.39646912 C70.00343904 139.75894059 70.46205982 141.12149025 70.92041016 142.48413086 C71.32297028 143.67308456 71.7255304 144.86203827 72.14028931 146.08702087 C73 149 73 149 73 152 C66.76341239 150.43448923 60.60717687 148.6374481 54.5 146.625 C53.3346875 146.24601563 52.169375 145.86703125 50.96875 145.4765625 C45.59062779 142.80165435 44.36671153 137.61355217 42.51953125 132.16796875 C42.19295784 131.2130529 42.19295784 131.2130529 41.85978699 130.23884583 C41.17193851 128.223527 40.4921095 126.20561018 39.8125 124.1875 C39.34493014 122.81297095 38.87683639 121.43861998 38.40820312 120.06445312 C37.26606958 116.71167356 36.13110745 113.35651774 35 110 C33.38388281 114.19901877 31.84755966 118.39047544 30.5 122.68359375 C30.2525 123.46541016 30.005 124.24722656 29.75 125.05273438 C29.24216853 126.66747975 28.74239537 128.28477774 28.25 129.90429688 C28.0025 130.67708984 27.755 131.44988281 27.5 132.24609375 C27.2834375 132.94404053 27.066875 133.6419873 26.84375 134.36108398 C26 136 26 136 23 137 C21.00708008 136.65454102 21.00708008 136.65454102 18.76953125 136.00390625 C17.96708984 135.77509766 17.16464844 135.54628906 16.33789062 135.31054688 C15.08782227 134.94026367 15.08782227 134.94026367 13.8125 134.5625 C12.5450293 134.19801758 12.5450293 134.19801758 11.25195312 133.82617188 C9.1657589 133.22506507 7.08257699 132.61352166 5 132 C3.87844626 127.94316895 4.16667213 125.5601523 5.57055664 121.61816406 C6.12091331 120.04062347 6.12091331 120.04062347 6.68238831 118.43121338 C7.08755173 117.30406921 7.49271515 116.17692505 7.91015625 115.015625 C8.74341156 112.61217775 9.57607538 110.20852537 10.40820312 107.8046875 C11.73210278 104.02520315 13.06219032 100.24819956 14.40551758 96.47558594 C15.69779516 92.82887829 16.96169884 89.17325963 18.22265625 85.515625 C18.6298439 84.39657776 19.03703156 83.27753052 19.45655823 82.12457275 C21.78749987 75.30447352 22.43576257 70.808115 20 64 C19.80054276 63.34387726 19.60108551 62.68775452 19.39558411 62.01174927 C18.78878166 60.02311901 18.13215188 58.05760373 17.4609375 56.08984375 C17.21874481 55.3676918 16.97655212 54.64553986 16.72702026 53.90150452 C16.21200813 52.36781765 15.69492974 50.83482325 15.17590332 49.30249023 C14.36508327 46.90821686 13.56023254 44.51200804 12.75683594 42.11523438 C10.33115715 34.88492976 7.88622492 27.6612774 5.4296875 20.44140625 C5.05666504 19.33869385 4.68364258 18.23598145 4.29931641 17.09985352 C3.61699004 15.08414902 2.92944366 13.0702014 2.23583984 11.05834961 C1.93629395 10.17284424 1.63674805 9.28733887 1.328125 8.375 C0.93995605 7.24191406 0.93995605 7.24191406 0.54394531 6.0859375 C0 4 0 4 0 0 Z M5 4 C6.49277027 11.60285426 8.85756501 18.72799273 11.421875 26.03125 C12.06922807 27.91246117 12.71655375 29.79368229 13.36227798 31.67545319 C14.94128375 36.27626389 16.52738375 40.87432776 18.14306641 45.46240234 C19.05372307 48.05015701 19.95207586 50.64156676 20.83721924 53.23815918 C21.66713122 55.67187219 22.51431512 58.09978363 23.38104248 60.52062988 C25.73162338 67.50441039 26.50568478 72.05537968 24 79 C23.59654358 80.28854385 23.59654358 80.28854385 23.18493652 81.6031189 C22.26523442 84.51981103 21.2907118 87.41368406 20.3046875 90.30859375 C19.77622726 91.88049217 19.77622726 91.88049217 19.23709106 93.48414612 C18.12072618 96.80340974 16.99838264 100.12060554 15.875 103.4375 C14.74504834 106.77957333 13.61645295 110.12208103 12.4914856 113.46583557 C11.79342086 115.54021721 11.09239518 117.61360523 10.38815308 119.68589783 C10.07427643 120.61769363 9.76039978 121.54948944 9.43701172 122.50952148 C9.15880585 123.33064926 8.88059998 124.15177704 8.59396362 124.99778748 C7.90519892 126.97149228 7.90519892 126.97149228 8 129 C9.55966218 129.508783 11.12289241 130.00663469 12.6875 130.5 C13.55761719 130.7784375 14.42773438 131.056875 15.32421875 131.34375 C18.35016742 132.19849691 18.35016742 132.19849691 23 132 C26.96 120.78 30.92 109.56 35 98 C35.83144531 100.51753906 36.66289062 103.03507812 37.51953125 105.62890625 C38.33300674 108.08496078 39.14753244 110.54066468 39.9621582 112.99633789 C40.52477945 114.6942167 41.08631993 116.39245405 41.64672852 118.09106445 C42.45560691 120.54214575 43.2684512 122.99188213 44.08203125 125.44140625 C44.32903275 126.19273331 44.57603424 126.94406036 44.83052063 127.71815491 C47.26765543 136.58891128 47.26765543 136.58891128 53.25 142.77734375 C54.4875 143.16019531 55.725 143.54304687 57 143.9375 C58.2375 144.33839844 59.475 144.73929688 60.75 145.15234375 C63.92402762 146.12618728 63.92402762 146.12618728 67 146 C65.57255567 138.78009846 63.446516 131.91153507 61.11518669 124.93486977 C60.45104531 122.94698015 59.79255392 120.95729358 59.13539124 118.96708679 C57.50422466 114.03089042 55.86364891 109.0978329 54.22332764 104.16467285 C52.83175764 99.97840518 51.44381945 95.79096703 50.06064034 91.60191917 C49.41444856 89.64984849 48.76300072 87.6995853 48.11131287 85.74934387 C47.71742874 84.55758041 47.32354462 83.36581696 46.91772461 82.13793945 C46.57067978 81.09475052 46.22363495 80.05156158 45.86607361 78.97676086 C44.04166407 72.7061265 44.02738786 68.61459886 46.2109375 62.48828125 C46.45464081 61.77004181 46.69834412 61.05180237 46.94943237 60.3117981 C47.74561984 57.97426651 48.56031744 55.64364233 49.375 53.3125 C49.92687638 51.70043682 50.47732149 50.08788298 51.02636719 48.47485352 C52.13773111 45.21501972 53.25567921 41.95757635 54.37988281 38.70214844 C56.70667218 31.95952426 58.98222462 25.20017999 61.25 18.4375 C61.6320459 17.31577393 62.0140918 16.19404785 62.40771484 15.03833008 C62.7527002 14.01376709 63.09768555 12.9892041 63.453125 11.93359375 C63.75379883 11.04728271 64.05447266 10.16097168 64.36425781 9.24780273 C65.13607634 6.90820234 65.13607634 6.90820234 65 4 C59.72 4 54.44 4 49 4 C47.30348915 9.01514091 45.61300758 14.03225919 43.92797852 19.05126953 C43.3544198 20.75689887 42.77924362 22.46198522 42.20239258 24.16650391 C41.3715074 26.62259764 40.54653967 29.08061254 39.72265625 31.5390625 C39.46533218 32.29555084 39.20800812 33.05203918 38.94288635 33.83145142 C37.5945563 37.87516948 36.56647962 41.75580555 36 46 C35.34 46 34.68 46 34 46 C33.78601563 44.86691406 33.57203125 43.73382813 33.3515625 42.56640625 C31.63672465 34.84963594 28.90959422 27.41423333 26.375 19.9375 C25.85374655 18.38881321 25.33290964 16.83998616 24.8125 15.29101562 C23.54722943 11.52542534 22.27345549 7.76286931 21 4 C15.72 4 10.44 4 5 4 Z " fill="#C00636" transform="translate(362,4)"/>
<path d="M0 0 C2.11806319 0.02903462 4.23362834 0.02057235 6.35180664 0.00756836 C17.9131978 0.06053635 17.9131978 0.06053635 23.55688477 3.46655273 C27.23227404 7.43994654 28.68356748 10.43312411 28.67713928 15.81352234 C28.67851395 16.70113251 28.67988861 17.58874268 28.68130493 18.50325012 C28.67591202 19.9598127 28.67591202 19.9598127 28.67041016 21.44580078 C28.67055618 22.47036377 28.67070221 23.49492676 28.67085266 24.55053711 C28.670155 27.94313664 28.66236938 31.33568153 28.65454102 34.72827148 C28.65267632 37.07810944 28.65125266 39.42794778 28.6502533 41.77778625 C28.6464322 47.9673876 28.63660536 54.15696553 28.62554932 60.34655762 C28.61532646 66.66064131 28.6107538 72.97472878 28.60571289 79.28881836 C28.59498276 91.68140678 28.57791119 104.07397781 28.55688477 116.46655273 C24.91186106 116.8294118 21.26579098 117.18038342 17.61938477 117.52905273 C16.5784668 117.63282227 15.53754883 117.7365918 14.46508789 117.84350586 C12.98105469 117.98369141 12.98105469 117.98369141 11.46704102 118.12670898 C10.55059814 118.21573486 9.63415527 118.30476074 8.68994141 118.39648438 C7.98603271 118.41960693 7.28212402 118.44272949 6.55688477 118.46655273 C5.55688477 117.46655273 5.55688477 117.46655273 5.43663025 115.48606873 C5.43885086 114.6178096 5.44107147 113.74955048 5.44335938 112.85498047 C5.44343491 111.87403915 5.44351044 110.89309784 5.44358826 109.88243103 C5.44874954 108.81577713 5.45391083 107.74912323 5.45922852 106.65014648 C5.46064346 105.56395523 5.46205841 104.47776398 5.46351624 103.35865784 C5.46913428 99.87376198 5.48168984 96.38892932 5.49438477 92.90405273 C5.49939744 90.54793387 5.50396075 88.191814 5.50805664 85.83569336 C5.51910958 80.04595809 5.53586526 74.25625993 5.55688477 68.46655273 C3.24688477 68.46655273 0.93688477 68.46655273 -1.44311523 68.46655273 C-1.44311523 85.29655273 -1.44311523 102.12655273 -1.44311523 119.46655273 C-18.31811523 121.71655273 -18.31811523 121.71655273 -24.44311523 121.46655273 C-24.53671811 107.39294972 -24.60690605 93.31939525 -24.65036392 79.24554443 C-24.67122333 72.71021719 -24.69951166 66.17509933 -24.74487305 59.63989258 C-24.78838838 53.33104397 -24.81226473 47.02239655 -24.82262421 40.71340942 C-24.83000527 38.30849033 -24.84441874 35.90358204 -24.86603546 33.49874878 C-24.89514401 30.12579702 -24.89906798 26.75367274 -24.8972168 23.38061523 C-24.9115979 22.39014694 -24.925979 21.39967865 -24.9407959 20.37919617 C-24.9045779 14.26581708 -24.00872876 9.5385664 -20.44311523 4.46655273 C-14.55194403 -0.77832965 -7.52175864 -0.11273462 0 0 Z M-18.06535339 7.90078735 C-21.49848316 12.17765252 -21.10855409 16.60241327 -21.01074219 21.87817383 C-21.01147232 22.91292847 -21.01220245 23.94768311 -21.01295471 25.01379395 C-21.00948021 28.42306521 -20.97062338 31.83095858 -20.93139648 35.23999023 C-20.92206793 37.60795343 -20.91495202 39.97592629 -20.90995789 42.34390259 C-20.89089178 48.56824512 -20.84179312 54.79200179 -20.78643799 61.01611328 C-20.73523786 67.37060623 -20.71244214 73.7251941 -20.68725586 80.07983398 C-20.63367498 92.54233059 -20.54836593 105.00439289 -20.44311523 117.46655273 C-15.49311523 117.13655273 -10.54311523 116.80655273 -5.44311523 116.46655273 C-5.44311523 99.63655273 -5.44311523 82.80655273 -5.44311523 65.46655273 C-0.49311523 65.46655273 4.45688477 65.46655273 9.55688477 65.46655273 C9.55688477 81.63655273 9.55688477 97.80655273 9.55688477 114.46655273 C14.50688477 114.13655273 19.45688477 113.80655273 24.55688477 113.46655273 C24.67269055 100.12346753 24.76155589 86.78050172 24.81594563 73.43701649 C24.8420489 67.24119642 24.87746141 61.04571996 24.93408203 54.85009766 C24.98837406 48.87192593 25.01829979 42.89408487 25.03127098 36.91568565 C25.04051578 34.63386516 25.05856863 32.35206294 25.08553505 30.07038307 C25.12178676 26.87627557 25.12683156 23.68353765 25.12451172 20.48925781 C25.15147629 19.07153328 25.15147629 19.07153328 25.1789856 17.62516785 C25.14293441 13.04341914 25.0729213 11.11783516 22.14387512 7.42112732 C17.85244998 4.17878415 15.3249928 3.21329226 9.90844727 3.20092773 C8.82047852 3.19834961 7.73250977 3.19577148 6.61157227 3.19311523 C5.47977539 3.20084961 4.34797852 3.20858398 3.18188477 3.21655273 C2.05782227 3.20881836 0.93375977 3.20108398 -0.22436523 3.19311523 C-9.96019811 3.07278505 -9.96019811 3.07278505 -18.06535339 7.90078735 Z " fill="#C10837" transform="translate(145.443115234375,3.533447265625)"/>
<path d="M0 0 C1.19882813 0.01611328 2.39765625 0.03222656 3.6328125 0.04882812 C5.4890625 0.11166992 5.4890625 0.11166992 7.3828125 0.17578125 C8.64351562 0.19833984 9.90421875 0.22089844 11.203125 0.24414062 C14.30519865 0.30289202 17.40665926 0.39256664 20.5078125 0.48828125 C20.5078125 4.44828125 20.5078125 8.40828125 20.5078125 12.48828125 C13.2478125 12.48828125 5.9878125 12.48828125 -1.4921875 12.48828125 C-1.4921875 20.07828125 -1.4921875 27.66828125 -1.4921875 35.48828125 C4.1178125 35.48828125 9.7278125 35.48828125 15.5078125 35.48828125 C15.5078125 39.11828125 15.5078125 42.74828125 15.5078125 46.48828125 C9.8978125 46.48828125 4.2878125 46.48828125 -1.4921875 46.48828125 C-1.4921875 54.07828125 -1.4921875 61.66828125 -1.4921875 69.48828125 C6.0978125 69.48828125 13.6878125 69.48828125 21.5078125 69.48828125 C21.5078125 73.11828125 21.5078125 76.74828125 21.5078125 80.48828125 C17.30865943 80.58735383 13.11012998 80.65984298 8.91015625 80.70800781 C7.48230129 80.72809107 6.05452825 80.75536377 4.62695312 80.79003906 C2.57140882 80.83870794 0.51695395 80.86128092 -1.5390625 80.87890625 C-2.77495117 80.89985352 -4.01083984 80.92080078 -5.28417969 80.94238281 C-8.4921875 80.48828125 -8.4921875 80.48828125 -10.89794922 78.91479492 C-13.08621711 75.58413726 -12.9784478 73.24191721 -12.953125 69.2734375 C-12.95220856 68.58068222 -12.95129211 67.88792694 -12.9503479 67.17417908 C-12.94432021 65.71248504 -12.92859882 64.25080288 -12.90380859 62.78930664 C-12.86736358 60.56154433 -12.86278903 58.33545089 -12.86328125 56.10742188 C-12.78796598 45.20365684 -12.78796598 45.20365684 -11.34619141 41.71655273 C-11.06437012 40.98122314 -10.78254883 40.24589355 -10.4921875 39.48828125 C-11.1521875 38.49828125 -11.8121875 37.50828125 -12.4921875 36.48828125 C-12.94742638 32.09936462 -12.94870249 27.70147991 -12.97265625 23.29199219 C-12.9920673 21.12668967 -13.05410814 18.96519195 -13.1171875 16.80078125 C-13.13024989 15.41799121 -13.14074994 14.03517412 -13.1484375 12.65234375 C-13.16712891 11.3988916 -13.18582031 10.14543945 -13.20507812 8.85400391 C-12.4921875 5.48828125 -12.4921875 5.48828125 -9.85693359 2.57104492 C-6.13366649 0.26635825 -4.32341848 -0.10293854 0 0 Z " fill="#FEFCFD" transform="translate(167.4921875,136.51171875)"/>
<path d="M0 0 C3.63 0 7.26 0 11 0 C11 11.55 11 23.1 11 35 C14.63 35 18.26 35 22 35 C22 23.45 22 11.9 22 0 C25.96 0 29.92 0 34 0 C34.09903517 5.60500964 34.17154712 11.20950762 34.21972656 16.81518555 C34.23981546 18.7212003 34.26709194 20.62715362 34.30175781 22.53295898 C34.35039642 25.27603326 34.37299579 28.01829125 34.390625 30.76171875 C34.41127014 31.61086349 34.43191528 32.46000824 34.45318604 33.33488464 C34.45473044 37.42666113 34.33259516 39.47207999 32.10058594 43.01489258 C28.34684113 46.56227741 27.83496945 46 22 46 C22 57.22 22 68.44 22 80 C18.37 80 14.74 80 11 80 C11 68.78 11 57.56 11 46 C9.02 46 7.04 46 5 46 C2.05989509 44.02689209 0.31700058 42.52588366 -0.42349243 38.96151733 C-0.57997062 36.47234457 -0.56214278 34.035943 -0.48828125 31.54296875 C-0.48120651 30.64000565 -0.47413177 29.73704254 -0.46684265 28.80671692 C-0.43893319 25.93278912 -0.37620232 23.06083528 -0.3125 20.1875 C-0.28741262 18.23505425 -0.26460022 16.28257785 -0.24414062 14.33007812 C-0.18911789 9.55262898 -0.10286998 4.77664874 0 0 Z " fill="#FEFBFC" transform="translate(301,137)"/>
<path d="M0 0 C4.95 0 9.9 0 15 0 C15 29.04 15 58.08 15 88 C2 91 2 91 0 91 C0 60.97 0 30.94 0 0 Z " fill="#C40A3A" transform="translate(81,23)"/>
<path d="M0 0 C4.95 0 9.9 0 15 0 C15 29.04 15 58.08 15 88 C10.05 87.01 5.1 86.02 0 85 C0 56.95 0 28.9 0 0 Z " fill="#BA0131" transform="translate(326,23)"/>
<path d="M0 0 C1.4353218 -0.01149942 2.87060152 -0.03191934 4.30566406 -0.06152344 C19.57050712 -0.37624434 19.57050712 -0.37624434 24.91357422 4.29516602 C29.0871054 10.14036974 29.48674649 14.65425166 29.4152832 21.72509766 C29.42068619 22.75036057 29.42608917 23.77562347 29.43165588 24.83195496 C29.44412026 28.20670816 29.42766778 31.58060453 29.40966797 34.95532227 C29.409823 37.30749049 29.41131261 39.65965896 29.41407776 42.01182556 C29.41546069 46.93524503 29.40291995 51.85837282 29.38012695 56.78173828 C29.35172742 63.08897871 29.3544855 69.39573518 29.36721706 75.70301151 C29.37417505 80.55777614 29.36638376 85.41242912 29.35396004 90.26717949 C29.34944784 92.59277353 29.34910671 94.91837957 29.35302544 97.24397469 C29.35593914 100.49444241 29.33942272 103.74424525 29.31762695 106.99462891 C29.3221286 107.95323822 29.32663025 108.91184753 29.33126831 109.89950562 C29.27316247 115.12090744 28.82161497 118.77146247 25.91357422 123.29516602 C24.33544922 124.75610352 24.33544922 124.75610352 22.66357422 125.67016602 C22.12216797 125.98727539 21.58076172 126.30438477 21.02294922 126.63110352 C14.16665733 128.78956578 6.38763201 126.56321091 -0.46142578 125.29516602 C-1.54681641 125.1237207 -2.63220703 124.95227539 -3.75048828 124.77563477 C-11.59984444 123.30625046 -17.00661103 120.59338652 -22.08642578 114.29516602 C-24.59929185 109.59018413 -24.37556599 105.02322793 -24.36108398 99.82666016 C-24.36619492 98.87971786 -24.37130585 97.93277557 -24.37657166 96.95713806 C-24.39045509 93.83146825 -24.38951186 90.70601922 -24.38720703 87.58032227 C-24.39109452 85.40465717 -24.39542931 83.22899283 -24.40019226 81.05332947 C-24.4076517 76.49467508 -24.40736508 71.93609814 -24.40209961 67.37744141 C-24.39630413 61.53874889 -24.4132394 55.70037351 -24.43644428 49.86173344 C-24.45118316 45.36899465 -24.45205312 40.87633222 -24.44893456 36.38357353 C-24.44944765 34.23101613 -24.45468309 32.07845443 -24.46474648 29.92592049 C-24.47709686 26.91476002 -24.47032742 23.90421715 -24.45874023 20.89306641 C-24.46638397 20.00612091 -24.47402771 19.11917542 -24.48190308 18.20535278 C-24.4389685 13.15180241 -23.89443573 9.67086935 -21.08642578 5.29516602 C-14.69108479 -0.6205244 -8.22824578 0.04588937 0 0 Z M-19.08642578 9.29516602 C-19.41642578 9.62516602 -19.74642578 9.95516602 -20.08642578 10.29516602 C-20.19775181 13.34306088 -20.24383098 16.36850242 -20.24755859 19.41723633 C-20.2525235 20.37495438 -20.2574884 21.33267242 -20.26260376 22.31941223 C-20.27726974 25.50404567 -20.28403548 28.68862928 -20.28955078 31.87329102 C-20.29529951 34.07948814 -20.30105728 36.28568524 -20.30682373 38.49188232 C-20.31734698 43.12569411 -20.32318066 47.75948848 -20.32666016 52.39331055 C-20.33214124 58.3330842 -20.35615559 64.2726282 -20.38463211 70.21232986 C-20.40325233 74.77279329 -20.40846381 79.33320141 -20.40999603 83.89369965 C-20.41302554 86.08337405 -20.42106406 88.27304742 -20.43418121 90.46268463 C-20.45122518 93.52713984 -20.4493651 96.59103428 -20.44287109 99.65551758 C-20.45208588 100.56169327 -20.46130066 101.46786896 -20.47079468 102.40150452 C-20.43023057 108.50838392 -19.33628716 111.82757612 -15.14892578 116.42016602 C-10.45028413 119.29688539 -5.44212537 120.18867062 -0.08642578 121.29516602 C0.88552734 121.50270508 1.85748047 121.71024414 2.85888672 121.92407227 C12.66332545 124.16793151 12.66332545 124.16793151 21.85107422 121.42016602 C24.67531818 118.5103389 25.03907586 117.00548319 25.06747437 113.07086182 C25.07607483 112.18488312 25.08467529 111.29890442 25.09353638 110.38607788 C25.09779633 109.41151642 25.10205627 108.43695496 25.10644531 107.43286133 C25.1146228 106.40832855 25.12280029 105.38379578 25.13122559 104.32821655 C25.15610468 100.92658071 25.17260223 97.52498667 25.18701172 94.12329102 C25.19499723 92.38309818 25.19499723 92.38309818 25.20314407 90.60774994 C25.22988679 84.46710368 25.24925799 78.32647783 25.26367188 72.18579102 C25.28032084 65.83908264 25.3250982 59.49289342 25.37604332 53.14638138 C25.40968046 48.27019648 25.42124551 43.39413532 25.42689896 38.51784515 C25.43362133 36.17825097 25.44886878 33.8386652 25.47278976 31.49918365 C25.50436647 28.22404042 25.50448871 24.95030398 25.49707031 21.67504883 C25.51347565 20.70858429 25.52988098 19.74211975 25.54678345 18.74636841 C25.50552697 14.29631263 25.35916619 11.25085038 22.50210571 7.70892334 C17.30177484 2.85971182 11.11073879 3.99943599 4.36547852 3.94506836 C2.86108921 3.92852413 1.35677802 3.9012535 -0.1472168 3.86303711 C-2.32137619 3.80810394 -4.493696 3.78637232 -6.66845703 3.77172852 C-7.97016846 3.75190918 -9.27187988 3.73208984 -10.61303711 3.71166992 C-14.93092778 4.43703428 -16.33737101 5.98171882 -19.08642578 9.29516602 Z " fill="#C00938" transform="translate(331.08642578125,3.704833984375)"/>
<path d="M0 0 C0 6.27 0 12.54 0 19 C-7.26 19 -14.52 19 -22 19 C-22 24.28 -22 29.56 -22 35 C-16.39 35 -10.78 35 -5 35 C-5 41.27 -5 47.54 -5 54 C-10.61 54 -16.22 54 -22 54 C-22 58.95 -22 63.9 -22 69 C-14.74 69 -7.48 69 0 69 C0.33 75.27 0.66 81.54 1 88 C-3.716183 88.13833454 -8.42524421 88.25755133 -13.1418457 88.32958984 C-14.74332613 88.35963274 -16.34464379 88.40048117 -17.94555664 88.45263672 C-32.97115806 88.92963994 -32.97115806 88.92963994 -37.52734375 85.1640625 C-41.19667021 81.20510092 -41.1281094 77.31864833 -41.1328125 72.1015625 C-41.13376923 71.42958832 -41.13472595 70.75761414 -41.13571167 70.0652771 C-41.13639149 68.64475409 -41.13455098 67.22422796 -41.13037109 65.80371094 C-41.12503674 63.63990205 -41.13031405 61.4763023 -41.13671875 59.3125 C-41.13605761 57.92968705 -41.13477569 56.54687422 -41.1328125 55.1640625 C-41.13168457 53.91061035 -41.13055664 52.6571582 -41.12939453 51.36572266 C-41 48 -41 48 -40.42919922 45.23974609 C-39.78061489 42.84295058 -39.78061489 42.84295058 -41 40 C-41.22800089 35.60372836 -41.22827937 31.20514601 -41.24023438 26.80371094 C-41.24993464 24.63958215 -41.28096767 22.47640581 -41.3125 20.3125 C-41.31903127 18.92969312 -41.32428126 17.54687947 -41.328125 16.1640625 C-41.34214355 14.28388428 -41.34214355 14.28388428 -41.35644531 12.36572266 C-40.88535275 7.91744724 -39.35607938 5.35011859 -36.22265625 2.23046875 C-27.30663325 -2.70546665 -9.90873733 -0.07232655 0 0 Z M-36.11669922 6.92895508 C-38.17100562 11.74561654 -37.71338915 17.19925443 -37.5625 22.34716797 C-37.50017785 24.49387375 -37.48055227 26.63763519 -37.46875 28.78515625 C-37.56602023 35.9253835 -37.56602023 35.9253835 -35.84960938 42.75585938 C-35.56923828 43.49642578 -35.28886719 44.23699219 -35 45 C-35.66 45.99 -36.32 46.98 -37 48 C-37.41129973 52.55091055 -37.37160322 57.11124823 -37.37060547 61.6784668 C-37.37497839 63.9263893 -37.41130369 66.17234679 -37.44921875 68.41992188 C-37.45508737 69.8515558 -37.45905646 71.28319903 -37.4609375 72.71484375 C-37.46915527 74.01542725 -37.47737305 75.31601074 -37.48583984 76.65600586 C-37.23919149 80.00853193 -37.23919149 80.00853193 -35.40576172 82.4309082 C-32.14298399 84.55896508 -29.92506522 84.45635704 -26.046875 84.390625 C-25.38665344 84.38496521 -24.72643188 84.37930542 -24.04620361 84.37347412 C-21.94671737 84.3511623 -19.8489663 84.30098314 -17.75 84.25 C-16.3229414 84.22992794 -14.89585592 84.21167839 -13.46875 84.1953125 C-9.97860707 84.15131693 -6.48947301 84.08232876 -3 84 C-3 80.37 -3 76.74 -3 73 C-10.59 73 -18.18 73 -26 73 C-26 65.41 -26 57.82 -26 50 C-20.39 50 -14.78 50 -9 50 C-9 46.37 -9 42.74 -9 39 C-14.61 39 -20.22 39 -26 39 C-26 31.41 -26 23.82 -26 16 C-18.74 16 -11.48 16 -4 16 C-4 12.04 -4 8.08 -4 4 C-8.37603447 3.86493721 -12.74789268 3.76582247 -17.125 3.6875 C-18.98125 3.6246582 -18.98125 3.6246582 -20.875 3.56054688 C-29.19084237 3.12714531 -29.19084237 3.12714531 -36.11669922 6.92895508 Z " fill="#BF0837" transform="translate(192,133)"/>
<path d="M0 0 C42 0 42 0 48 4 C51.59251744 7.9808977 53.10691391 10.90674252 53.17700195 16.25268555 C53.19625481 17.53498299 53.19625481 17.53498299 53.21589661 18.84318542 C53.22328354 19.76505142 53.23067047 20.68691742 53.23828125 21.63671875 C53.246353 22.5901265 53.25442474 23.54353424 53.26274109 24.52583313 C53.27657449 26.54576809 53.28729998 28.56572635 53.29516602 30.58569336 C53.31233793 33.65849834 53.3562261 36.73021576 53.40039062 39.80273438 C53.41052164 41.76822128 53.41903646 43.73371731 53.42578125 45.69921875 C53.44328934 46.61096359 53.46079742 47.52270844 53.47883606 48.46208191 C53.45862161 54.47774081 52.3880623 58.9661001 49 64 C41.62562137 70.92744659 33.68290603 68 23 68 C23 83.18 23 98.36 23 114 C16.13624657 117.43187671 7.67390962 115 0 115 C0 77.05 0 39.1 0 0 Z M4 4 C4 39.31 4 74.62 4 111 C8.95 111 13.9 111 19 111 C19 95.82 19 80.64 19 65 C26.26 65 33.52 65 41 65 C46.58730294 61.7842606 46.58730294 61.7842606 49 57 C49.31885428 54.78430493 49.31885428 54.78430493 49.30639648 52.41845703 C49.32238388 51.51717072 49.33837128 50.6158844 49.35484314 49.68728638 C49.36020584 48.72056 49.36556854 47.75383362 49.37109375 46.7578125 C49.38012222 45.75668427 49.3891507 44.75555603 49.39845276 43.72409058 C49.41295044 41.60759469 49.42184079 39.49105403 49.42553711 37.37451172 C49.43743213 34.14343446 49.48662239 30.91426801 49.53710938 27.68359375 C49.54657411 25.6250093 49.5538089 23.56641315 49.55859375 21.5078125 C49.57812607 20.54513458 49.59765839 19.58245667 49.61778259 18.59060669 C49.58772717 14.10241386 49.47814117 10.97941356 46.59008789 7.40576172 C34.83452575 -3.51320419 26.52341673 4 4 4 Z " fill="#C10A39" transform="translate(180,4)"/>
<path d="M0 0 C6.27 0 12.54 0 19 0 C19 11.55 19 23.1 19 35 C19.99 35 20.98 35 22 35 C21.99214478 33.46291382 21.99214478 33.46291382 21.98413086 31.89477539 C21.96608031 28.10604724 21.9545678 24.31732291 21.94506836 20.52856445 C21.94002826 18.88630536 21.93319622 17.24405077 21.92456055 15.60180664 C21.91248074 13.24624521 21.90676861 10.89074291 21.90234375 8.53515625 C21.89718246 7.79660904 21.89202118 7.05806183 21.88670349 6.2971344 C21.8865075 4.53101912 21.93805281 2.76502854 22 1 C23 0 23 0 24.76586914 -0.11352539 C25.51473389 -0.10828857 26.26359863 -0.10305176 27.03515625 -0.09765625 C27.84404297 -0.09443359 28.65292969 -0.09121094 29.48632812 -0.08789062 C30.33646484 -0.07951172 31.18660156 -0.07113281 32.0625 -0.0625 C32.91650391 -0.05798828 33.77050781 -0.05347656 34.65039062 -0.04882812 C36.76695663 -0.03700373 38.88348685 -0.01906769 41 0 C41.12703233 6.44102868 41.21444812 12.88173302 41.2746582 19.32373047 C41.29976434 21.51395744 41.33385637 23.70410094 41.37719727 25.89404297 C41.43801907 29.04675922 41.46624923 32.19836553 41.48828125 35.3515625 C41.51408768 36.32678864 41.5398941 37.30201477 41.56648254 38.30679321 C41.56827298 42.670835 41.50619199 46.01462288 38.84448242 49.60302734 C36 52 36 52 30 53 C30 64.55 30 76.1 30 88 C23.73 88 17.46 88 11 88 C11 76.45 11 64.9 11 53 C9.02 52.67 7.04 52.34 5 52 C1.45483264 48.26320197 -0.12774068 45.7311634 -0.11352539 40.64208984 C-0.11344986 39.74130707 -0.11337433 38.84052429 -0.11329651 37.91244507 C-0.10813522 36.93844757 -0.10297394 35.96445007 -0.09765625 34.9609375 C-0.0962413 33.96494537 -0.09482635 32.96895325 -0.09336853 31.94277954 C-0.08775936 28.75348947 -0.0752053 25.56426894 -0.0625 22.375 C-0.05748618 20.21614685 -0.05292307 18.05729259 -0.04882812 15.8984375 C-0.03778695 10.59893143 -0.02051614 5.29947752 0 0 Z M4 4 C3.87622396 9.74739758 3.78557752 15.49401627 3.7253418 21.24243164 C3.70022719 23.19699623 3.66612869 25.15146717 3.62280273 27.10571289 C3.56201566 29.91836668 3.53376017 32.72977702 3.51171875 35.54296875 C3.48591232 36.41398727 3.4601059 37.2850058 3.43351746 38.18241882 C3.43153109 42.49788473 3.62381672 44.46054405 6.15551758 48.09106445 C9.25940434 50.5572468 9.25940434 50.5572468 15 50 C15 61.22 15 72.44 15 84 C18.63 84 22.26 84 26 84 C26 72.78 26 61.56 26 50 C27.98 50 29.96 50 32 50 C34.69990662 48.20006226 36.5418865 46.916227 38 44 C38.08705146 41.01029711 38.11550145 38.04415045 38.09765625 35.0546875 C38.0962413 34.1696756 38.09482635 33.2846637 38.09336853 32.37283325 C38.0877614 29.54018809 38.07520771 26.70762136 38.0625 23.875 C38.05748592 21.95703239 38.05292285 20.03906354 38.04882812 18.12109375 C38.03778966 13.41403218 38.02052025 8.7070294 38 4 C34.04 4 30.08 4 26 4 C26 15.55 26 27.1 26 39 C22.37 39 18.74 39 15 39 C15 27.45 15 15.9 15 4 C11.37 4 7.74 4 4 4 Z " fill="#C00736" transform="translate(297,133)"/>
<path d="M0 0 C5.87155408 -0.07433795 11.74283219 -0.12869117 17.61474609 -0.16479492 C19.61088841 -0.17985098 21.60699781 -0.20030027 23.60302734 -0.22631836 C26.47762185 -0.26284161 29.35177772 -0.27975837 32.2265625 -0.29296875 C33.55815903 -0.31619453 33.55815903 -0.31619453 34.91665649 -0.33988953 C40.04174997 -0.34127135 43.56980189 0.12920772 48 3 C51.35179218 6.71414809 53.11976035 9.11468105 53.14526367 14.0949707 C53.15164352 14.93957352 53.15802338 15.78417633 53.16459656 16.65437317 C53.16570938 17.56893784 53.1668222 18.4835025 53.16796875 19.42578125 C53.17296135 20.83539375 53.17296135 20.83539375 53.17805481 22.27348328 C53.18312391 24.26491811 53.18546314 26.25636146 53.18530273 28.24780273 C53.18748365 31.28969422 53.20562415 34.33121986 53.22460938 37.37304688 C53.22754443 39.30729043 53.22952848 41.2415357 53.23046875 43.17578125 C53.23765427 44.08427322 53.24483978 44.9927652 53.25224304 45.92878723 C53.23556284 50.55914046 52.73950902 53.68256328 51 58 C51.30658539 58.60923309 51.61317078 59.21846619 51.92904663 59.84616089 C53.1489526 62.2995648 53.25883243 63.87280197 53.2746582 66.59741211 C53.28895622 67.95418312 53.28895622 67.95418312 53.30354309 69.33836365 C53.30263168 70.30822708 53.30172028 71.27809052 53.30078125 72.27734375 C53.30506638 73.28084366 53.3093515 74.28434357 53.31376648 75.31825256 C53.31950535 77.43896735 53.3200133 79.55970181 53.31567383 81.68041992 C53.31251505 84.92205445 53.33597489 88.16277523 53.36132812 91.40429688 C53.3636013 93.46614468 53.36430453 95.52799494 53.36328125 97.58984375 C53.372491 98.55768295 53.38170074 99.52552216 53.39118958 100.52268982 C53.35712015 105.48732384 53.29478377 109.0064265 50 113 C45.3735572 116.97521332 41.53479135 117.58060717 35.625 117.375 C34.8606665 117.35703369 34.09633301 117.33906738 33.30883789 117.32055664 C26.29361406 117.11031362 19.32656566 116.58743552 12.3359375 115.9765625 C11.23918701 115.88286377 10.14243652 115.78916504 9.01245117 115.69262695 C6.34142313 115.46409758 3.67062497 115.23318445 1 115 C0.82820497 103.33340479 0.66173134 91.66673905 0.5 80 C0.48812275 79.14344692 0.4762455 78.28689384 0.46400833 77.40438461 C0.10781636 51.60203253 -0.16501142 25.80524724 0 0 Z M4 4 C4 39.31 4 74.62 4 111 C6.69432834 112.34716417 9.0310926 112.32260583 12.0390625 112.53515625 C13.25980469 112.62216797 14.48054688 112.70917969 15.73828125 112.79882812 C17.02089844 112.88583984 18.30351562 112.97285156 19.625 113.0625 C20.88441406 113.15337891 22.14382813 113.24425781 23.44140625 113.33789062 C36.55758185 115.0255216 36.55758185 115.0255216 48 110 C49.71744125 107.1864773 50.25578936 105.062533 50.29052734 101.78564453 C50.30328705 100.96444122 50.31604675 100.14323792 50.32919312 99.29714966 C50.33141876 98.4179184 50.33364441 97.53868713 50.3359375 96.6328125 C50.3425943 95.72046844 50.3492511 94.80812439 50.35610962 93.86813354 C50.3662245 91.93994154 50.370927 90.0117146 50.37060547 88.08349609 C50.37497428 85.14231292 50.41129367 82.20263611 50.44921875 79.26171875 C50.45508813 77.38542178 50.45905671 75.50911771 50.4609375 73.6328125 C50.47530853 72.7576297 50.48967957 71.8824469 50.50448608 70.98074341 C50.46267568 65.35796319 49.58955065 62.36667903 46 58 C46.28875 57.443125 46.5775 56.88625 46.875 56.3125 C47.24625 55.549375 47.6175 54.78625 48 54 C48.34627441 53.2999585 48.69254883 52.59991699 49.04931641 51.87866211 C50.28959026 48.12312308 50.3245497 44.5415947 50.3359375 40.62890625 C50.3425943 39.82895737 50.3492511 39.02900848 50.35610962 38.20481873 C50.36620511 36.51799814 50.3709276 34.83113787 50.37060547 33.14428711 C50.37498037 30.57403385 50.41133493 28.00549692 50.44921875 25.43554688 C50.45508741 23.7916725 50.45905647 22.14779002 50.4609375 20.50390625 C50.47530853 19.7412294 50.48967957 18.97855255 50.50448608 18.19276428 C50.46057907 13.02535375 49.40983513 10.09666123 46 6 C34.33809621 -1.77460253 18.01586403 4 4 4 Z " fill="#C00434" transform="translate(248,4)"/>
<path d="M0 0 C2.21709361 -0.00436722 4.43218486 -0.04069081 6.64892578 -0.07861328 C8.06949194 -0.08448347 9.49006749 -0.08845151 10.91064453 -0.09033203 C12.19438965 -0.0985498 13.47813477 -0.10676758 14.80078125 -0.11523438 C19.96830683 0.59094444 22.77445888 2.88080306 26.49765015 6.38812256 C29.17971684 10.6926958 28.91625961 14.39550902 28.87353516 19.37402344 C28.88054443 20.37788086 28.88755371 21.38173828 28.89477539 22.41601562 C28.91236875 25.73189016 28.90072558 29.04690985 28.88720703 32.36279297 C28.88990197 34.67058475 28.8937844 36.97837543 28.89880371 39.28616333 C28.90470096 44.12317718 28.89612974 48.95989551 28.87744141 53.796875 C28.8546777 59.9898227 28.86775774 66.182076 28.89173126 72.37499809 C28.90620468 77.14146122 28.90157563 81.90776053 28.89122009 86.67422867 C28.88855577 88.95713509 28.89181217 91.24005648 28.90113831 93.5229454 C28.91132604 96.71849531 28.89576938 99.91293123 28.87353516 103.10839844 C28.88163208 104.04785309 28.889729 104.98730774 28.89807129 105.95523071 C28.8068153 113.05445788 27.22501905 117.41957025 22.16845703 122.62060547 C15.65602237 126.67278704 7.79075954 128.1332351 0.35595703 129.68310547 C-0.48193359 129.87710938 -1.31982422 130.07111328 -2.18310547 130.27099609 C-7.77874773 131.43603307 -13.39966335 132.06759336 -18.64404297 129.37060547 C-22.46585126 125.86186085 -23.94829605 123.58423027 -24.28569031 118.36830139 C-24.3183364 116.35768465 -24.32352152 114.34650629 -24.30688477 112.33569336 C-24.31725266 111.23415421 -24.32762054 110.13261505 -24.33830261 108.99769592 C-24.36536956 105.3625037 -24.35571043 101.72851821 -24.34326172 98.09326172 C-24.34917065 95.56269494 -24.35641737 93.03213096 -24.36494446 90.50157166 C-24.37682486 85.19969546 -24.37054243 79.89825477 -24.35083008 74.59643555 C-24.32847241 68.47943957 -24.34606164 62.3634993 -24.38387936 56.24660307 C-24.41894823 50.34761593 -24.42029043 44.4489557 -24.40799904 38.54986382 C-24.40651303 36.04645082 -24.41419441 33.54301484 -24.43124962 31.0396595 C-24.45123655 27.53730751 -24.43281707 24.03716275 -24.40454102 20.53491211 C-24.41825745 19.50352112 -24.43197388 18.47213013 -24.44610596 17.40948486 C-24.349995 11.44569515 -23.49101293 8.05858425 -19.32043171 3.70467281 C-13.57146075 -0.87034862 -6.98783479 -0.00154359 0 0 Z M-18.64404297 8.37060547 C-20.4305897 11.32910043 -20.89695146 13.51865355 -20.91146851 16.95603943 C-20.91999847 17.87145508 -20.92852844 18.78687073 -20.93731689 19.73002625 C-20.93641052 20.72702042 -20.93550415 21.72401459 -20.93457031 22.7512207 C-20.94128754 23.80691254 -20.94800476 24.86260437 -20.95492554 25.95028687 C-20.97393818 29.44330539 -20.97783124 32.93613216 -20.97998047 36.42919922 C-20.98640551 38.85531189 -20.99313365 41.28142377 -21.00015259 43.70753479 C-21.01213311 48.79421791 -21.01583255 53.88083306 -21.01464844 58.9675293 C-21.01444507 65.48909606 -21.04176264 72.01022793 -21.07619286 78.53169155 C-21.09841587 83.54252631 -21.1024874 88.55325559 -21.10142899 93.5641346 C-21.10379128 95.96872521 -21.11264998 98.37331846 -21.12809372 100.77786064 C-21.14766238 104.13908358 -21.14195114 107.49935789 -21.12988281 110.8605957 C-21.14112183 111.85556564 -21.15236084 112.85053558 -21.16394043 113.87565613 C-21.12410758 118.23565523 -21.06525621 120.68654127 -18.73867798 124.46498108 C-16.12882031 126.85429194 -16.12882031 126.85429194 -12.78076172 127.42529297 C-5.97352847 126.92587873 0.58946 125.57156038 7.23095703 124.05810547 C8.14659424 123.85749512 9.06223145 123.65688477 10.00561523 123.45019531 C16.21702588 121.97544935 20.40458651 120.45416649 23.9591217 114.83728027 C25.77497816 110.33067617 25.78421982 106.50864723 25.76000977 101.69677734 C25.77030464 100.26151451 25.77030464 100.26151451 25.7808075 98.79725647 C25.79906117 95.64447051 25.79524035 92.49218277 25.78955078 89.33935547 C25.79411287 87.14269855 25.79941852 84.94604306 25.80543518 82.74938965 C25.81436319 78.14959915 25.81194613 73.5499823 25.80200195 68.95019531 C25.79050574 63.05874178 25.81073578 57.16788703 25.83991909 51.27651215 C25.85827236 46.7417216 25.85799045 42.20707483 25.85228157 37.67225647 C25.85212829 35.50015929 25.85817835 33.32805242 25.87057304 31.1559906 C25.88546642 28.11842341 25.87481801 25.08196627 25.85766602 22.04443359 C25.87216797 20.70234581 25.87216797 20.70234581 25.88696289 19.33314514 C25.82240749 13.86775187 25.04166953 10.67895441 21.35595703 6.37060547 C16.41514978 3.07673397 10.51938294 3.99873232 4.73242188 4 C2.49547801 3.99563381 0.26051965 3.9593285 -1.97607422 3.92138672 C-3.40445292 3.9155167 -4.83284095 3.91154854 -6.26123047 3.90966797 C-7.55657715 3.9014502 -8.85192383 3.89323242 -10.18652344 3.88476562 C-14.23612055 4.45380236 -15.81489922 5.46612004 -18.64404297 8.37060547 Z " fill="#C20334" transform="translate(86.64404296875,3.62939453125)"/>
<path d="M0 0 C33.7761658 0 33.7761658 0 39.40515137 5.23815918 C41.43832212 8.75905381 41.50741574 11.13183162 41.51757812 15.18945312 C41.5245874 15.89416245 41.53159668 16.59887177 41.53881836 17.32493591 C41.55636004 19.64411339 41.54479048 21.96206108 41.53125 24.28125 C41.53394605 25.89880608 41.53782941 27.51636058 41.54284668 29.13391113 C41.5487365 32.51993273 41.54019582 35.90553155 41.52148438 39.29150391 C41.49869466 43.62612817 41.51182058 47.95976173 41.53577423 52.29434967 C41.55024645 55.63331532 41.54561979 58.9720471 41.53526306 62.3110199 C41.53259969 63.90897235 41.53585185 65.50694622 41.54518127 67.10487366 C41.55537097 69.34066801 41.53981492 71.57487072 41.51757812 73.81054688 C41.51280457 75.71652649 41.51280457 75.71652649 41.50793457 77.66101074 C40.90607466 81.61743327 39.83461559 83.21905908 37 86 C25.95262726 91.52368637 12.35133821 88 0 88 C0 58.96 0 29.92 0 0 Z M4 4 C4 30.4 4 56.8 4 84 C13.57 84 23.14 84 33 84 C37.87690805 79.12309195 38.12260148 78.17787246 38.17700195 71.61010742 C38.18357315 70.95460403 38.19014435 70.29910065 38.19691467 69.62373352 C38.21665056 67.45097746 38.22831117 65.27829054 38.23828125 63.10546875 C38.24235678 62.36332941 38.2464323 61.62119007 38.25063133 60.85656166 C38.27149391 56.92805891 38.28579444 52.9995911 38.29516602 49.07104492 C38.30622745 45.01555878 38.34062302 40.96062179 38.38033772 36.9053297 C38.40649875 33.78517139 38.41485738 30.66514398 38.41844749 27.54488564 C38.4233153 26.05016689 38.43493498 24.55545407 38.45348549 23.06084251 C38.47786663 20.96614623 38.47691488 18.87287126 38.4699707 16.77807617 C38.47583694 15.58719894 38.48170319 14.39632172 38.48774719 13.1693573 C37.89918437 9.34490496 36.72593772 7.70161465 34 5 C24.50789802 1.83596601 14.00555401 4 4 4 Z " fill="#C20A39" transform="translate(102,133)"/>
<path d="M0 0 C33 0 33 0 39 5 C40.51914292 8.03828584 40.1421287 11.19536517 40.1328125 14.52734375 C40.13376923 15.27206436 40.13472595 16.01678497 40.13571167 16.78407288 C40.13639257 18.36019983 40.13454455 19.93632959 40.13037109 21.51245117 C40.12502906 23.92438065 40.1303152 26.33612327 40.13671875 28.74804688 C40.1360578 30.27864624 40.1347763 31.8092455 40.1328125 33.33984375 C40.13483673 34.06179428 40.13686096 34.78374481 40.13894653 35.52757263 C40.12445613 38.62604258 39.98766804 41.03699588 39 44 C39.33 44.66 39.66 45.32 40 46 C40.13509379 48.49485626 40.2125861 50.96053844 40.23828125 53.45703125 C40.246353 54.19700851 40.25442474 54.93698578 40.26274109 55.6993866 C40.27657883 57.26709655 40.28730238 58.83483659 40.29516602 60.40258789 C40.31236022 62.79306632 40.35624349 65.18215459 40.40039062 67.57226562 C40.41051956 69.09634401 40.41903503 70.62043414 40.42578125 72.14453125 C40.44328934 72.85615921 40.46079742 73.56778717 40.47883606 74.30097961 C40.46354881 77.82223144 40.09313687 79.84975488 38.22338867 82.8659668 C27.91911976 92.75611883 15.07404658 87 0 87 C0 58.29 0 29.58 0 0 Z M3 3 C3 29.4 3 55.8 3 83 C12.57 83 22.14 83 32 83 C38.070957 76.929043 37.21620471 73.04290001 37.24023438 64.73364258 C37.24991423 62.70547061 37.28092532 60.67832358 37.3125 58.65039062 C37.31765625 57.36712891 37.3228125 56.08386719 37.328125 54.76171875 C37.3374707 53.58569092 37.34681641 52.40966309 37.35644531 51.19799805 C36.96833646 47.71591729 36.01390411 45.82777393 34 43 C34.48605713 42.31228516 34.97211426 41.62457031 35.47290039 40.91601562 C38.2954031 35.52641174 37.46956262 29.46364782 37.4375 23.5 C37.45748047 22.18128906 37.47746094 20.86257812 37.49804688 19.50390625 C37.49740234 18.23417969 37.49675781 16.96445313 37.49609375 15.65625 C37.49794678 14.49931641 37.4997998 13.34238281 37.50170898 12.15039062 C36.89902509 8.36594634 35.64953356 6.71594953 33 4 C24.05076043 -0.47461979 13.00555401 3 3 3 Z " fill="#C50C3B" transform="translate(249,134)"/>
<path d="M0 0 C2.64 0 5.28 0 8 0 C8 26.73 8 53.46 8 81 C5.36 81.33 2.72 81.66 0 82 C0 54.94 0 27.88 0 0 Z " fill="#1F1718" transform="translate(85,27)"/>
<path d="M0 0 C3.63 0 7.26 0 11 0 C11 18.81 11 37.62 11 57 C7.37 57 3.74 57 0 57 C0 38.19 0 19.38 0 0 Z " fill="#C10031" transform="translate(117,149)"/>
<path d="M0 0 C2.31 0 4.62 0 7 0 C7 26.07 7 52.14 7 79 C4.69 78.67 2.38 78.34 0 78 C0 52.26 0 26.52 0 0 Z " fill="#1A1718" transform="translate(330,27)"/>
<path d="M0 0 C4.95 0 9.9 0 15 0 C15 10.89 15 21.78 15 33 C7 33 7 33 0 32 C0 21.44 0 10.88 0 0 Z " fill="#C50A3A" transform="translate(267,69)"/>
<path d="M0 0 C4.95 0 9.9 0 15 0 C15 10.23 15 20.46 15 31 C10.05 31 5.1 31 0 31 C0 20.77 0 10.54 0 0 Z " fill="#C0103D" transform="translate(140,23)"/>
<path d="M0 0 C4.95 0 9.9 0 15 0 C15 9.9 15 19.8 15 30 C10.05 30 5.1 30 0 30 C0 20.1 0 10.2 0 0 Z " fill="#C50939" transform="translate(267,23)"/>
<path d="M0 0 C4.95 0 9.9 0 15 0 C15 9.9 15 19.8 15 30 C10.05 30 5.1 30 0 30 C0 20.1 0 10.2 0 0 Z " fill="#BD0031" transform="translate(199,23)"/>
<path d="M0 0 C3.63 0 7.26 0 11 0 C11 7.59 11 15.18 11 23 C7.37 23 3.74 23 0 23 C0 15.41 0 7.82 0 0 Z " fill="#C00031" transform="translate(263,183)"/>
<path d="M0 0 C3.63 0 7.26 0 11 0 C11 7.26 11 14.52 11 22 C7.37 22 3.74 22 0 22 C0 14.74 0 7.48 0 0 Z " fill="#C20031" transform="translate(263,149)"/>
<path d="M0 0 C3.63 0 7.26 0 11 0 C11 7.26 11 14.52 11 22 C7.37 22 3.74 22 0 22 C0 14.74 0 7.48 0 0 Z " fill="#C50939" transform="translate(215,149)"/>
<path d="M0 0 C2.64 0 5.28 0 8 0 C8 8.58 8 17.16 8 26 C5.36 26 2.72 26 0 26 C0 17.42 0 8.84 0 0 Z " fill="#221619" transform="translate(271,72)"/>
<path d="M0 0 C1.32 0 2.64 0 4 0 C4 16.5 4 33 4 50 C2.68 50 1.36 50 0 50 C0 33.5 0 17 0 0 Z " fill="#2B151A" transform="translate(121,152)"/>
<path d="M0 0 C2.64 0 5.28 0 8 0 C8 7.92 8 15.84 8 24 C5.36 24 2.72 24 0 24 C0 16.08 0 8.16 0 0 Z " fill="#221619" transform="translate(271,26)"/>
<path d="M0 0 C2.31 0 4.62 0 7 0 C7 7.92 7 15.84 7 24 C4.69 24 2.38 24 0 24 C0 16.08 0 8.16 0 0 Z " fill="#1C1718" transform="translate(203,26)"/>
<path d="M0 0 C2.31 0 4.62 0 7 0 C7 7.59 7 15.18 7 23 C4.69 23 2.38 23 0 23 C0 15.41 0 7.82 0 0 Z " fill="#1A1718" transform="translate(144,27)"/>
<path d="M0 0 C1.53048375 3.33105286 1.50768971 5.6873838 1.0625 9.3125 C-0.47909838 12.26723023 -1.61837964 13.84158229 -4.80859375 14.98046875 C-8.72680224 15.72855771 -10.39798354 15.64539313 -13.875 13.5 C-16.49869461 10.7172936 -16.88678068 9.85012474 -17.25 6 C-16.88637565 1.70923265 -16.0350514 0.23796521 -12.9375 -2.6875 C-8.63323408 -4.91384444 -3.47242621 -3.02437121 0 0 Z M-13.9375 1.3125 C-15.27410145 4.66842863 -15.27410145 4.66842863 -14.9375 8.3125 C-13.04100449 11.45908666 -13.04100449 11.45908666 -9.9375 13.3125 C-6.39290788 13.38339184 -4.71734328 12.96656211 -2 10.6875 C-0.42491998 7.1667329 -0.87345398 4.97015818 -1.9375 1.3125 C-6.60752035 -2.39956746 -9.26747965 -2.39956746 -13.9375 1.3125 Z " fill="#1A1818" transform="translate(353.9375,209.6875)"/>
<path d="M0 0 C1.32 0 2.64 0 4 0 C4 5.28 4 10.56 4 16 C2.68 16 1.36 16 0 16 C0 10.72 0 5.44 0 0 Z " fill="#2D151B" transform="translate(267,152)"/>
<path d="M0 0 C1.32 0 2.64 0 4 0 C4 5.28 4 10.56 4 16 C2.68 16 1.36 16 0 16 C0 10.72 0 5.44 0 0 Z " fill="#2A151A" transform="translate(218,152)"/>
<path d="M0 0 C5.75 -0.125 5.75 -0.125 8 1 C8 4.3 8 7.6 8 11 C7.34 11 6.68 11 6 11 C5.67 10.01 5.34 9.02 5 8 C4.01 7.67 3.02 7.34 2 7 C2 8.32 2 9.64 2 11 C1.34 11 0.68 11 0 11 C0 7.37 0 3.74 0 0 Z M2 2 C2 2.99 2 3.98 2 5 C3.32 4.67 4.64 4.34 6 4 C5.67 3.34 5.34 2.68 5 2 C4.01 2 3.02 2 2 2 Z " fill="#1A1818" transform="translate(342,210)"/>
<path d="M0 0 C1.32 0 2.64 0 4 0 C4 4.95 4 9.9 4 15 C2.68 15 1.36 15 0 15 C0 10.05 0 5.1 0 0 Z " fill="#27161A" transform="translate(267,187)"/>
</svg>
