<?xml version="1.0" encoding="UTF-8"?>
<svg version="1.1" xmlns="http://www.w3.org/2000/svg" width="1200" height="452">
<path d="M0 0 C396 0 792 0 1200 0 C1200 149.16 1200 298.32 1200 452 C804 452 408 452 0 452 C0 302.84 0 153.68 0 0 Z " fill="#1C2846" transform="translate(0,0)"/>
<path d="M0 0 C23.76 0 47.52 0 72 0 C74.72424157 8.17272472 77.42357734 16.28670845 79.93359375 24.515625 C84.66007866 39.95893833 89.68143802 55.30907528 94.68554688 70.6640625 C95.188806 72.21093623 95.69206135 73.75781118 96.1953125 75.3046875 C96.5295372 76.32766434 96.5295372 76.32766434 96.87051392 77.37130737 C98.25826196 81.6398844 99.59471957 85.92212725 100.90917969 90.21386719 C102.96593286 96.91994861 105.10228767 103.59854829 107.2578125 110.2734375 C108.05600217 112.75129803 108.85417888 115.22916273 109.65234375 117.70703125 C110.68507861 120.91068794 111.71825522 124.1142021 112.75170898 127.31762695 C114.17168159 131.71915482 115.58996901 136.12122319 117.0078125 140.5234375 C117.37866974 141.67145844 117.74952698 142.81947937 118.13162231 144.00228882 C120.99435357 152.8932994 120.99435357 152.8932994 122.18701172 157.21728516 C122.72444324 159.88458883 122.72444324 159.88458883 124 161 C124.1921962 160.44402634 124.3843924 159.88805267 124.58241272 159.31523132 C133.15621095 134.51508077 141.73630993 109.71731474 150.39254761 84.94580078 C156.60874165 67.15447178 162.77192273 49.34490159 168.92382812 31.53125 C169.64973917 29.43098944 170.37565061 27.33072902 171.1015625 25.23046875 C171.42182404 24.30191574 171.74208557 23.37336273 172.072052 22.41667175 C174.66238653 14.92438881 177.3332482 7.46690504 180 0 C201.45 0 222.9 0 245 0 C248.58521189 9.56056505 252.13259999 19.08429874 255.43359375 28.73828125 C256.02556046 30.46004074 256.02556046 30.46004074 256.62948608 32.21658325 C257.46791806 34.65569727 258.30540628 37.09513588 259.14199829 39.53488159 C261.13896589 45.35793957 263.14216285 51.17885153 265.14541435 56.99975014 C265.59544774 58.30750271 266.04540524 59.6152814 266.49528694 60.92308617 C272.02952935 77.01094602 277.63405562 93.07395457 283.2525177 109.1325531 C285.22602924 114.77638333 287.18997011 120.42348045 289.14903259 126.07234192 C290.55112104 130.11504589 291.95525889 134.15703684 293.35946655 138.19900513 C294.03204588 140.13686713 294.70362932 142.07507508 295.37417603 144.01364136 C296.29633726 146.67927319 297.22199145 149.34366742 298.1484375 152.0078125 C298.56132774 153.20587776 298.56132774 153.20587776 298.9825592 154.42814636 C300.00859083 157.98847125 300.00859083 157.98847125 302 161 C304.36951715 154.87102547 306.43399908 148.68913031 308.25 142.375 C313.25477067 125.03837993 318.96120557 107.90728176 324.76660156 90.82470703 C326.72822716 85.00594227 328.55913193 79.16393641 330.265625 73.265625 C333.62211766 61.68456871 337.36629378 50.22604927 341.0625 38.75 C342.47113543 34.37013925 343.87835786 29.98982609 345.28515625 25.609375 C345.61697906 24.57792358 345.94880188 23.54647217 346.29067993 22.48376465 C348.36235867 16.03183581 350.3804275 9.568404 352.30639648 3.07128906 C353 1 353 1 354 0 C355.62674778 -0.09340434 357.25754051 -0.11745171 358.88696289 -0.11352539 C359.92796646 -0.11344986 360.96897003 -0.11337433 362.04151917 -0.11329651 C363.1737944 -0.10813522 364.30606964 -0.10297394 365.47265625 -0.09765625 C366.62543564 -0.0962413 367.77821503 -0.09482635 368.96592712 -0.09336853 C372.66481064 -0.08775005 376.36363464 -0.07519442 380.0625 -0.0625 C382.56315017 -0.05748738 385.06380129 -0.05292406 387.56445312 -0.04882812 C393.70965588 -0.03777462 399.85482369 -0.02101852 406 0 C407.89984092 26.75644089 405.21662149 47.97450207 395.2179718 72.82466125 C391.17356673 82.90873769 387.70798469 93.18572413 384.20474243 103.46746826 C382.30221532 109.0389769 380.37281998 114.60115739 378.4453125 120.1640625 C378.0683876 121.25337067 377.69146271 122.34267883 377.30311584 123.46499634 C373.40133326 134.73960828 369.47104063 146.0042172 365.53622437 157.26733398 C361.83426546 167.86435598 358.14182503 178.46459418 354.46484375 189.0703125 C354.08180588 190.17508438 353.69876801 191.27985626 353.30412292 192.41810608 C351.44181574 197.7903248 349.58053945 203.16289858 347.72045898 208.53588867 C347.04021187 210.49918968 346.35995517 212.46248736 345.6796875 214.42578125 C345.38130478 215.28869781 345.08292206 216.15161438 344.77549744 217.04067993 C342.2319747 224.37881513 339.61255561 231.6848443 337 239 C313.9 239 290.8 239 267 239 C265.185 233.39 263.37 227.78 261.5 222 C254.76164065 201.26004974 247.89439035 180.56348643 241 159.875 C240.74022118 159.09522167 240.48044235 158.31544334 240.21279144 157.51203537 C234.99466285 141.8497287 229.77440384 126.18856102 224.4140625 110.57421875 C224.07985291 109.60035217 223.74564331 108.6264856 223.40130615 107.62310791 C221.92086721 103.31512864 220.43331556 99.00980001 218.93359375 94.70849609 C216.56007378 87.86702141 214.33549428 81.13604473 213 74 C212.34 74 211.68 74 211 74 C210.77827873 74.87771561 210.77827873 74.87771561 210.55207825 75.77316284 C208.13709291 84.98845327 205.09743418 93.97922073 202.07421875 103.0078125 C201.48405784 104.77709728 200.89412258 106.54645733 200.30439758 108.31588745 C199.06473403 112.03331776 197.8230717 115.75007212 196.57983398 119.46630859 C195.03192432 124.09342121 193.48776881 128.72177436 191.94500542 133.35060501 C185.59552709 152.39851975 179.1972747 171.42924321 172.70703125 190.4296875 C172.43970373 191.21237125 172.17237621 191.99505501 171.89694786 192.80145645 C166.63031923 208.21213156 161.30901799 223.60384782 156 239 C133.23 239 110.46 239 87 239 C62.48809811 171.85870353 62.48809811 171.85870353 61.75155449 169.84121418 C61.26806093 168.51686246 60.78456713 167.19251083 60.30107307 165.86815929 C59.11376495 162.61597084 57.9264611 159.36378083 56.73916626 156.11158752 C54.61228203 150.28571933 52.48536589 144.45986279 50.35828972 138.63406467 C49.16201518 135.35761354 47.96576647 132.08115299 46.76953125 128.8046875 C46.53282085 128.15634382 46.29611046 127.50800014 46.05222702 126.84000969 C42.63912322 117.49144602 39.22749884 108.14234341 35.81669044 98.79294205 C33.84957638 93.40104363 31.88208544 88.00928273 29.91456985 82.61753082 C29.19257251 80.6389012 28.47065569 78.66024221 27.74874878 76.68157959 C22.70000751 62.84434365 17.64169033 49.01072662 12.5546875 35.1875 C12.12708633 34.02527924 11.69948517 32.86305847 11.25892639 31.6656189 C9.25151684 26.21056727 7.24204968 20.75628701 5.22924805 15.30322266 C4.52909797 13.40268259 3.82898186 11.50213 3.12890625 9.6015625 C2.80828217 8.73515137 2.48765808 7.86874023 2.15731812 6.97607422 C0 1.11324232 0 1.11324232 0 0 Z " fill="#FEFEFE" transform="translate(107,110)"/>
<path d="M0 0 C18.62149207 -0.09401422 37.24293508 -0.16425581 55.86461639 -0.20724869 C64.51366678 -0.22775382 73.16256855 -0.25563958 81.81152344 -0.30175781 C89.36203834 -0.34199924 96.91244548 -0.36751997 104.46306467 -0.37635398 C108.45013709 -0.38150662 112.43690158 -0.39335518 116.4238739 -0.42292023 C140.67925451 -0.59556888 164.39597324 0.24672703 187 10 C187.62052246 10.26683594 188.24104492 10.53367187 188.88037109 10.80859375 C207.05697356 18.8295173 223.1465192 32.10118667 230.76220703 50.87939453 C237.61760006 69.07168506 239.02090043 91.30351971 233 110 C232.67128906 111.04027344 232.34257813 112.08054687 232.00390625 113.15234375 C228.05192856 123.99635174 221.2785368 131.60550263 210.92578125 136.703125 C185.43975904 148 185.43975904 148 174 148 C176.32277514 152.10306004 179.06348259 155.76361919 182 159.4375 C182.99354739 160.69136044 183.98703539 161.94526796 184.98046875 163.19921875 C185.48497559 163.8339209 185.98948242 164.46862305 186.50927734 165.12255859 C188.78669497 167.99077699 191.05017108 170.86987483 193.3125 173.75 C193.75787109 174.3164624 194.20324219 174.8829248 194.66210938 175.46655273 C199.06219273 181.06799499 203.43106337 186.69359959 207.80126953 192.31835938 C212.73209946 198.66205392 217.68968056 204.98422338 222.66015625 211.296875 C224.05634451 213.0716216 225.45031762 214.84808896 226.84375 216.625 C227.55144531 217.52702148 227.55144531 217.52702148 228.2734375 218.44726562 C229.20359843 219.63309234 230.13329903 220.8192803 231.0625 222.00585938 C234.52764727 226.42291484 238.06094905 230.78118882 241.63671875 235.109375 C243 237 243 237 243 239 C232.71741474 239.48966958 222.43765626 239.86116673 212.14572906 240.08805561 C207.36424767 240.19705208 202.59081143 240.34435197 197.81396484 240.58422852 C167.07791575 242.08766654 167.07791575 242.08766654 158.75048828 237.02410889 C153.64876824 232.32438851 150.38215198 226.92001767 147.39550781 220.71322632 C145.10899489 216.26765678 142.04847211 212.44248118 139 208.5 C137.85037289 206.9402892 136.70409275 205.37810093 135.5625 203.8125 C131.76786531 198.66263863 127.88784965 193.57966348 124 188.5 C118.6460914 181.50334093 113.34894649 174.46931564 108.125 167.375 C107.53589844 166.57513672 106.94679688 165.77527344 106.33984375 164.95117188 C104.17096096 161.99664864 102.03352858 159.05029286 100 156 C96.9288218 155.52020668 96.9288218 155.52020668 93.25537109 155.56762695 C92.55136484 155.55735316 91.84735859 155.54707937 91.12201881 155.53649426 C88.83907153 155.50656142 86.55655407 155.49705792 84.2734375 155.48828125 C82.86562586 155.47282138 81.45782823 155.45602564 80.05004883 155.43786621 C74.82518733 155.37986892 69.60006437 155.34776593 64.375 155.3125 C52.70125 155.209375 41.0275 155.10625 29 155 C29 182.72 29 210.44 29 239 C5.9 239 -17.2 239 -41 239 C-41.34039829 217.95291175 -41.61593801 196.90809828 -41.77718258 175.85894299 C-41.85408675 166.08244015 -41.95865922 156.30778569 -42.1315918 146.5324707 C-42.282489 137.99857526 -42.37819335 129.46601968 -42.41132742 120.93082696 C-42.43065779 116.42287318 -42.47508259 111.91874742 -42.58595085 107.4120388 C-43.12771715 84.50488573 -41.00223072 68.67161961 -27.73552895 49.54179382 C-25.44991006 46.19435789 -23.54649027 42.73537954 -21.640625 39.16015625 C-19.94959169 36.11893264 -18.25848672 33.0777505 -16.56640625 30.03710938 C-12.77916124 23.2243237 -9.01579757 16.39868696 -5.26074219 9.56811523 C-4.75336517 8.64538567 -4.24598816 7.7226561 -3.72323608 6.77196503 C-2.48206041 4.51469665 -1.24098407 2.25737372 0 0 Z " fill="#FDFEFE" transform="translate(843,110)"/>
<path d="M0 0 C396 0 792 0 1200 0 C1200 149.16 1200 298.32 1200 452 C804 452 408 452 0 452 C0 302.84 0 153.68 0 0 Z M14 14 C14 153.59 14 293.18 14 437 C401.09 437 788.18 437 1187 437 C1187 297.41 1187 157.82 1187 14 C799.91 14 412.82 14 14 14 Z " fill="#26314E" transform="translate(0,0)"/>
<path d="M0 0 C387.09 0 774.18 0 1173 0 C1173 139.59 1173 279.18 1173 423 C785.91 423 398.82 423 0 423 C0 283.41 0 143.82 0 0 Z M10 10 C10 142.99 10 275.98 10 413 C390.49 413 770.98 413 1163 413 C1163 280.01 1163 147.02 1163 10 C782.51 10 402.02 10 10 10 Z " fill="#F8F8F9" transform="translate(14,14)"/>
<path d="M0 0 C72.27 0 144.54 0 219 0 C217.68270734 3.95187798 216.54957985 7.13962973 214.69335938 10.74853516 C214.23948853 11.63610504 213.78561768 12.52367493 213.31799316 13.43814087 C212.83149292 14.37894501 212.34499268 15.31974915 211.84375 16.2890625 C211.08934631 17.76033096 211.08934631 17.76033096 210.31970215 19.26132202 C208.71711108 22.38460927 207.10867953 25.50484503 205.5 28.625 C204.4175748 30.73156846 203.33553927 32.83833719 202.25390625 34.9453125 C199.87299425 39.58242075 197.48830245 44.21756334 195.10021973 48.85098267 C194.05415385 50.89422334 193.02655602 52.94688797 192 55 C151.41 55 110.82 55 69 55 C69 69.85 69 84.7 69 100 C101.67 100 134.34 100 168 100 C165.36 105.28 162.72 110.56 160 116 C158.96875 118.08570313 157.9375 120.17140625 156.875 122.3203125 C156.39546875 123.28839844 155.9159375 124.25648438 155.421875 125.25390625 C154.47085007 127.17424505 153.52295121 129.09613504 152.578125 131.01953125 C148.66690709 138.89453721 144.38567471 146.32506925 140 154 C116.57 154 93.14 154 69 154 C69 182.05 69 210.1 69 239 C46.23 239 23.46 239 0 239 C0 160.13 0 81.26 0 0 Z " fill="#FEFEFE" transform="translate(609,110)"/>
<path d="M0 0 C23.1 0 46.2 0 70 0 C70 78.87 70 157.74 70 239 C46.9 239 23.8 239 0 239 C0 160.13 0 81.26 0 0 Z " fill="#FDFDFD" transform="translate(524,110)"/>
<path d="M0 0 C14.24807333 -0.09059448 28.49595339 -0.16388535 42.7442503 -0.20724869 C49.36126651 -0.22806746 55.97807437 -0.25628086 62.5949707 -0.30175781 C68.98813215 -0.34541896 75.38109397 -0.36918 81.77439308 -0.37950897 C84.20588126 -0.38686401 86.6373593 -0.40122614 89.06876183 -0.42292023 C117.89741465 -0.66976664 117.89741465 -0.66976664 125.79936218 5.37689209 C131.55065477 11.5838096 131.37852326 19.41360433 131.24609375 27.359375 C130.84554197 33.28499812 129.70929014 37.74486098 125.1875 41.875 C118.50548758 46.32967495 112.45192925 46.2796824 104.67041016 46.22705078 C102.97197464 46.22748886 102.97197464 46.22748886 101.23922729 46.22793579 C97.50576042 46.22654518 93.77249441 46.21099634 90.0390625 46.1953125 C87.44689035 46.19158142 84.85471679 46.1887349 82.26254272 46.18673706 C76.1428255 46.17988738 70.02319088 46.16413287 63.90350473 46.14403808 C56.93373808 46.12165078 49.96396792 46.11067855 42.99417424 46.10064721 C28.66273798 46.07976576 14.33138625 46.04310092 0 46 C0 30.82 0 15.64 0 0 Z " fill="#202B49" transform="translate(871,164)"/>
</svg>
