<?xml version="1.0" encoding="UTF-8"?>
<svg version="1.1" xmlns="http://www.w3.org/2000/svg" width="1200" height="727">
<path d="M0 0 C1.00180927 -0.00282738 2.00361855 -0.00565475 3.03578568 -0.00856781 C8.35361232 -0.02350856 13.67141228 -0.03276627 18.98925781 -0.03710938 C23.32365461 -0.04146726 27.65784934 -0.05526118 31.9921875 -0.078125 C98.99094498 -0.42444324 171.41024103 6.39527322 221.74121094 55.81982422 C223.05788748 57.09990131 224.41042197 58.34281407 225.765625 59.58203125 C245.08664195 77.70698524 256.25681615 102.76133385 262.1640625 128.203125 C262.33905273 128.88955078 262.51404297 129.57597656 262.69433594 130.28320312 C268.26127229 152.4848067 267.13558662 179.96170373 262.1640625 202.203125 C261.74495605 204.10191406 261.74495605 204.10191406 261.31738281 206.0390625 C259.07259687 216.12850062 256.65508043 226.17197254 254.1640625 236.203125 C253.91865723 237.2034375 253.67325195 238.20375 253.42041016 239.234375 C250.72830799 250.09272482 247.03947795 260.13291906 242.1640625 270.203125 C241.70386719 271.17636719 241.24367188 272.14960938 240.76953125 273.15234375 C231.56693972 291.31884288 216.2214252 305.16431088 200.1640625 317.203125 C199.21080078 317.92363037 199.21080078 317.92363037 198.23828125 318.65869141 C190.78913122 324.27727626 183.32889784 329.65002859 175.1640625 334.203125 C177.98223494 337.11892466 180.92718006 339.68271308 184.1015625 342.203125 C191.80332069 348.44331131 199.2253172 355.11982251 206.1640625 362.203125 C206.25042969 361.27113281 206.33679688 360.33914063 206.42578125 359.37890625 C208.32106626 342.18223763 214.81003267 326.34086322 228.44921875 315.05078125 C231.89700898 312.70429955 235.45436692 310.72796098 239.1640625 308.828125 C239.81640869 308.49385498 240.46875488 308.15958496 241.14086914 307.81518555 C253.50811604 301.83560396 269.00712119 301.05101266 282.1640625 304.828125 C298.68713067 310.85172454 310.73300491 320.99648888 318.4765625 336.8984375 C319.41850343 338.98509832 320.31843875 341.07593482 321.1640625 343.203125 C321.44378906 342.44128906 321.72351563 341.67945313 322.01171875 340.89453125 C324.81658125 333.67043201 328.01208476 327.98230003 333.1640625 322.203125 C333.67453125 321.59984375 334.185 320.9965625 334.7109375 320.375 C344.25865459 309.88196439 357.77749039 303.6644997 371.8515625 302.86328125 C388.46311995 302.33653306 403.33010692 305.74711547 415.93945312 317.26904297 C428.1215998 329.12999581 435.12563948 344.15682244 435.6015625 361.328125 C435.40588264 368.18474745 434.00283191 374.61420129 432.1640625 381.203125 C432.95167969 380.67203125 433.73929688 380.1409375 434.55078125 379.59375 C449.87658511 369.6546488 466.27747645 365.98674712 484.29077148 369.60522461 C499.33274956 373.13372704 511.27205879 381.9403846 519.703125 394.8046875 C528.93605384 409.96249047 531.07648988 426.88227814 527.1640625 444.203125 C523.93448273 455.78366836 517.87724422 465.93533938 508.1640625 473.203125 C509.68773437 473.33267578 509.68773437 473.33267578 511.2421875 473.46484375 C528.72233219 475.16190378 542.58213205 481.73674883 554.1640625 495.203125 C565.69970336 510.76600143 568.38782383 527.43632618 565.86376953 546.46728516 C565.06886395 550.56130205 563.75975259 554.35941868 562.1640625 558.203125 C561.58011719 559.62238281 561.58011719 559.62238281 560.984375 561.0703125 C554.00720543 575.64392705 540.76308941 585.09694992 525.90234375 590.44140625 C518.38944551 592.53129948 510.91831943 592.34179887 503.17384338 592.32337952 C501.86112565 592.32423394 500.54840793 592.32508837 499.19591087 592.32596868 C495.5632116 592.32819951 491.93054194 592.32421171 488.29784644 592.31919062 C484.37632413 592.31486601 480.45480344 592.31633397 476.53327942 592.3170929 C469.7426012 592.31761685 462.95193259 592.31448341 456.16125679 592.30885506 C446.34311947 592.30072274 436.52498679 592.29812306 426.70684647 592.29686707 C410.77697379 592.29467927 394.84710623 592.28802656 378.91723633 592.27856445 C363.44425482 592.26938329 347.9712747 592.2623059 332.49829102 592.25805664 C331.5442915 592.25779392 330.59029197 592.25753119 329.60738338 592.25726051 C324.82137503 592.25595546 320.03536666 592.25469175 315.2493583 592.25344861 C275.55425611 592.24308448 235.85915964 592.22547356 196.1640625 592.203125 C195.73275024 593.36328125 195.73275024 593.36328125 195.29272461 594.546875 C193.93110236 597.75138507 192.12136426 599.68642036 189.7265625 602.203125 C186.72224201 605.37077757 184.07852478 608.25917263 182.1640625 612.203125 C182.28135091 614.83789858 182.28135091 614.83789858 183.18457031 617.52832031 C183.48188049 618.56579407 183.77919067 619.60326782 184.08551025 620.67218018 C184.42596375 621.78067322 184.76641724 622.88916626 185.1171875 624.03125 C185.45200134 625.17599792 185.78681519 626.32074585 186.1317749 627.50018311 C187.20681393 631.15711243 188.31042518 634.80473715 189.4140625 638.453125 C190.14372999 640.92655218 190.87161675 643.40050544 191.59765625 645.875 C192.93004773 650.38498226 194.26476224 654.89413209 195.62597656 659.39550781 C196.03592865 660.75521698 196.03592865 660.75521698 196.4541626 662.14239502 C196.98396602 664.16910887 196.98396602 664.16910887 198.1640625 665.203125 C198.36229111 664.47871719 198.56051971 663.75430939 198.76475525 663.00794983 C200.63004414 656.19376219 202.49853841 649.38046373 204.37067318 642.56815434 C205.333128 639.06553481 206.29432322 635.56257959 207.25268555 632.05883789 C208.17695032 628.67993504 209.10446384 625.30193977 210.03427315 621.92455864 C210.56223025 620.0034765 211.0867854 618.08146048 211.61131287 616.15943909 C212.09169762 614.41774696 212.09169762 614.41774696 212.58178711 612.64086914 C212.86380478 611.61272598 213.14582245 610.58458282 213.43638611 609.52528381 C214.1640625 607.203125 214.1640625 607.203125 215.1640625 606.203125 C217.38261514 606.11528958 219.60394746 606.09617891 221.82421875 606.10546875 C222.48868515 606.1068837 223.15315155 606.10829865 223.8377533 606.10975647 C225.96740149 606.11536982 228.09694589 606.12792446 230.2265625 606.140625 C231.66731619 606.14563829 233.10807153 606.15020149 234.54882812 606.15429688 C238.08727352 606.16534355 241.62565789 606.18261708 245.1640625 606.203125 C243.9030157 613.11050547 242.2329397 619.78457247 240.19897461 626.50219727 C239.76203529 627.96501381 239.76203529 627.96501381 239.31626892 629.4573822 C238.36249019 632.64613637 237.40214172 635.83286683 236.44140625 639.01953125 C235.77374467 641.24477549 235.10639616 643.47011369 234.43934631 645.69554138 C233.04603802 650.34030269 231.6495757 654.98409999 230.25073242 659.62719727 C228.45412626 665.59117726 226.66452072 671.55723033 224.87711239 677.52397251 C223.50270441 682.10986476 222.12512907 686.69480053 220.7465229 691.2794323 C220.08497613 693.48050728 219.42431443 695.68184847 218.76453972 697.88345528 C217.84609985 700.94613172 216.92352829 704.00753196 215.99975586 707.06860352 C215.72597107 707.98437164 215.45218628 708.90013977 215.17010498 709.84365845 C214.91919601 710.67199692 214.66828705 711.50033539 214.40977478 712.35377502 C214.19206389 713.07729943 213.97435301 713.80082384 213.75004482 714.54627323 C213.1640625 716.203125 213.1640625 716.203125 212.1640625 717.203125 C202.5940625 717.203125 193.0240625 717.203125 183.1640625 717.203125 C177.5540625 698.063125 171.9440625 678.923125 166.1640625 659.203125 C164.21154022 662.13190842 163.43331456 664.24548095 162.46826172 667.5925293 C162.14808075 668.69344406 161.82789978 669.79435883 161.49801636 670.92863464 C161.15835846 672.11620865 160.81870056 673.30378265 160.46875 674.52734375 C160.11644318 675.74388138 159.76413635 676.96041901 159.40115356 678.21382141 C158.4669484 681.44317306 157.53726553 684.67375723 156.60974121 687.9050293 C155.66157107 691.20405295 154.70754716 694.50138254 153.75390625 697.79882812 C151.88428001 704.26512802 150.02445378 710.73413344 148.1640625 717.203125 C138.5940625 717.203125 129.0240625 717.203125 119.1640625 717.203125 C115.7890625 709.328125 115.7890625 709.328125 114.90551758 706.28735352 C114.60554619 705.26708824 114.60554619 705.26708824 114.29951477 704.22621155 C113.99463387 703.1648423 113.99463387 703.1648423 113.68359375 702.08203125 C113.46587814 701.33727036 113.24816254 700.59250946 113.02384949 699.82518005 C112.3373018 697.47317144 111.65683646 695.1194549 110.9765625 692.765625 C110.50886642 691.15938785 110.04077123 689.55326685 109.57226562 687.94726562 C108.431582 684.03387905 107.29634544 680.11895006 106.1640625 676.203125 C103.5029777 676.203125 102.1740976 677.19639488 99.859375 678.51171875 C98.97660889 679.00696045 98.09384277 679.50220215 97.18432617 680.01245117 C96.22888916 680.54974854 95.27345215 681.0870459 94.2890625 681.640625 C46.43745661 708.0545247 -7.74323931 720.17756836 -61.8359375 725.203125 C-62.74743561 725.28926056 -63.65893372 725.37539612 -64.59805298 725.46414185 C-80.77419535 726.95569474 -96.85197468 727.54793627 -113.09448242 727.51879883 C-116.76836642 727.51562937 -120.4414482 727.53926843 -124.11523438 727.56445312 C-190.68806227 727.74248277 -259.3509346 708.31415043 -308.8359375 662.203125 C-310.39647516 660.8466974 -311.95894713 659.49249167 -313.5234375 658.140625 C-317.68001201 654.43458829 -321.3279367 650.52404456 -324.8359375 646.203125 C-325.99416016 644.78386719 -325.99416016 644.78386719 -327.17578125 643.3359375 C-363.1990752 598.34016846 -369.16730702 540.80169287 -363.8359375 485.203125 C-362.1859375 475.633125 -360.5359375 466.063125 -358.8359375 456.203125 C-292.1759375 456.203125 -225.5159375 456.203125 -156.8359375 456.203125 C-157.8359375 465.203125 -157.8359375 465.203125 -158.8984375 469.515625 C-162.94091798 489.17678008 -159.27334142 511.43173009 -148.796875 528.53125 C-139.11495152 542.14752401 -126.51146698 549.86894788 -110.0859375 553.078125 C-81.13285189 557.93910857 -47.61768312 553.83037499 -22.8359375 537.203125 C-4.92826623 524.21901241 1.40279959 505.92655938 5.9765625 485.015625 C6.19602539 484.03029785 6.41548828 483.0449707 6.64160156 482.02978516 C9.64849072 467.44467257 8.52705033 453.14570895 0.63671875 440.1640625 C-7.59968598 429.19675435 -19.55589028 425.55177409 -32.61914062 423.65332031 C-47.38425525 421.86930321 -62.16839378 421.76001189 -77.0234375 421.578125 C-79.63477721 421.5398446 -82.24610565 421.50078747 -84.85742188 421.4609375 C-91.18349203 421.36606067 -97.50963288 421.2807128 -103.8359375 421.203125 C-102.2893205 406.03460004 -99.78433554 391.03459631 -97.30078125 375.99609375 C-96.856949 373.29481484 -96.41417554 370.59336261 -95.97132874 367.891922 C-95.04850734 362.26630409 -94.122782 356.64117052 -93.19506836 351.01635742 C-92.1238131 344.52111969 -91.0564456 338.02525258 -89.99127287 331.52901477 C-88.85168752 324.57909549 -87.70955017 317.62959749 -86.56652761 310.68024278 C-86.23884046 308.68699532 -85.91160291 306.69367447 -85.58445549 304.70033836 C-84.97589858 300.99549848 -84.3651199 297.29103199 -83.75366211 293.58666992 C-83.483246 291.93711807 -83.483246 291.93711807 -83.20736694 290.25424194 C-83.04059952 289.24678421 -82.87383209 288.23932648 -82.70201111 287.20133972 C-82.48605994 285.89048542 -82.48605994 285.89048542 -82.26574612 284.55314922 C-81.87311916 282.40641966 -81.39320878 280.31238696 -80.8359375 278.203125 C-79.76037598 278.18330566 -78.68481445 278.16348633 -77.57666016 278.14306641 C-18.79888041 279.37170424 -18.79888041 279.37170424 34.1640625 258.203125 C35.1953125 257.460625 36.2265625 256.718125 37.2890625 255.953125 C45.77456626 247.83655619 52.45880718 236.07084353 53.40234375 224.20703125 C53.71706327 209.61398412 49.87387511 198.96427569 40.2734375 188.0546875 C26.55181013 174.38543276 5.15482635 171.39029848 -13.37792969 171.17578125 C-39.2058525 171.46310022 -61.67078832 179.18361947 -81.2109375 196.28125 C-93.38833702 208.74405733 -96.56914053 225.84706997 -100.8359375 242.203125 C-167.8259375 242.203125 -234.8159375 242.203125 -303.8359375 242.203125 C-299.21969756 223.73816522 -299.21969756 223.73816522 -297.171875 217.609375 C-296.93856979 216.89803406 -296.70526459 216.18669312 -296.46488953 215.45379639 C-295.72182704 213.20072142 -294.96816275 210.95147697 -294.2109375 208.703125 C-293.94860321 207.92142944 -293.68626892 207.13973389 -293.41598511 206.33435059 C-276.34268954 155.6356236 -248.45523251 105.81015435 -205.8359375 72.203125 C-204.94261719 71.45804687 -204.04929687 70.71296875 -203.12890625 69.9453125 C-165.61618549 39.5133061 -118.10561477 21.98179268 -72.0859375 9.390625 C-70.80334549 9.0349646 -70.80334549 9.0349646 -69.49484253 8.67211914 C-57.04963781 5.23805245 -44.66314715 2.71206306 -31.8359375 1.203125 C-30.69691483 1.0591478 -30.69691483 1.0591478 -29.53488159 0.91226196 C-19.72894048 -0.16805664 -9.85180572 0.01893221 0 0 Z M-171.8359375 471.203125 C-170.8359375 473.203125 -170.8359375 473.203125 -170.8359375 473.203125 Z M-172.8359375 483.203125 C-171.8359375 486.203125 -171.8359375 486.203125 -171.8359375 486.203125 Z M137.1640625 650.203125 C133.6990625 653.173125 133.6990625 653.173125 130.1640625 656.203125 C130.44515363 657.85079747 130.73924776 659.49625645 131.0390625 661.140625 C131.20148438 662.05714844 131.36390625 662.97367188 131.53125 663.91796875 C131.74007813 664.67207031 131.94890625 665.42617188 132.1640625 666.203125 C132.8240625 666.533125 133.4840625 666.863125 134.1640625 667.203125 C134.86215695 664.93506705 135.54777267 662.66445893 136.2265625 660.390625 C136.42572266 659.74802734 136.62488281 659.10542969 136.83007812 658.44335938 C138.04515515 654.34396725 138.04515515 654.34396725 137.1640625 650.203125 Z " fill="#FDC200" transform="translate(633.8359375,-0.203125)"/>
<path d="M0 0 C53.79 0 107.58 0 163 0 C147.90756223 85.91079961 147.90756223 85.91079961 140.47924805 127.16772461 C140.07007677 129.44176445 139.66098296 131.71581821 139.25189012 133.98987216 C138.97056507 135.5536696 138.68921848 137.11746317 138.40784985 138.68125278 C136.7674806 147.79836864 135.12945882 156.91590617 133.49145508 166.03344727 C133.18014687 167.76623377 132.86883865 169.49902026 132.5575304 171.23180676 C132.08601065 173.85636662 131.6144947 176.48092716 131.1429897 179.10548967 C130.18842083 184.418907 129.23370674 189.73229822 128.27887756 195.04566878 C121.55241941 232.47686643 114.84332091 269.91116944 108.13707733 307.34599328 C106.52047905 316.36994689 104.90365418 325.39385989 103.28682327 334.41777182 C98.01945065 363.81632077 92.75281605 393.21500193 87.48647225 422.6137352 C86.14419566 430.10681861 84.80190115 437.59989881 83.4595983 445.09297752 C83.12471035 446.96240917 82.78982332 448.83184098 82.45493722 450.70127296 C78.68059212 471.77073962 74.90575242 492.84011745 71.12915039 513.90917969 C70.97124822 514.79009529 70.81334605 515.67101089 70.65065897 516.57862091 C69.23421123 524.4807564 67.81772544 532.38288508 66.40109825 540.2849884 C62.92725815 559.66247085 59.45508057 579.04024835 55.98746252 598.4188453 C53.6349139 611.56589978 51.28041125 624.71260282 48.92372513 637.85891628 C47.53462727 645.60818972 46.14731861 653.35777874 44.76250708 661.10781932 C43.73483549 666.85808927 42.70398818 672.60778677 41.67185593 678.35725784 C41.25417976 680.68688334 40.83757478 683.01670117 40.4221077 685.34672165 C39.86188017 688.48776831 39.2979024 691.62811801 38.73291016 694.76831055 C38.57006027 695.68667348 38.40721039 696.60503641 38.23942566 697.55122852 C38.08940598 698.38052718 37.93938629 699.20982584 37.78482056 700.06425476 C37.65639582 700.78163157 37.52797108 701.49900839 37.39565468 702.23812389 C37 704 37 704 36 706 C-29.34 706 -94.68 706 -162 706 C-156.2110502 677.05525098 -156.2110502 677.05525098 -153.48899841 664.15560913 C-153.28753141 663.20014568 -153.08606441 662.24468224 -152.87849236 661.26026535 C-152.66980082 660.27074497 -152.46110928 659.28122459 -152.24609375 658.26171875 C-151.79276564 656.10781638 -151.33952665 653.95389526 -150.8863678 651.79995728 C-149.66230494 645.98381987 -148.43648166 640.16805487 -147.21017456 634.35239029 C-146.42573123 630.63167927 -145.64175641 626.91086981 -144.85791016 623.19003296 C-133.83048936 570.84688165 -122.72939377 518.51939338 -111.62041664 466.19350243 C-104.03297688 430.45451533 -96.45936417 394.71259832 -88.88594723 358.9706375 C-87.61549107 352.97485244 -86.34499216 346.97907645 -85.07446289 340.98330688 C-84.89548163 340.13867325 -84.71650037 339.29403961 -84.53209543 338.42381102 C-83.84847699 335.19773678 -83.16485788 331.97166268 -82.48123837 328.74558866 C-79.32065635 313.83042829 -76.16034985 298.91520956 -73 284 C-108.97 284 -144.94 284 -182 284 C-182 275.12148955 -181.88985164 266.52926744 -181.18969727 257.72143555 C-181.10352142 256.58292648 -181.01734558 255.44441742 -180.92855835 254.27140808 C-180.64628682 250.55943332 -180.35648189 246.8480911 -180.06640625 243.13671875 C-179.86659903 240.53273183 -179.66721968 237.92871204 -179.46824646 235.32466125 C-179.05228191 229.89056077 -178.63238686 224.45677621 -178.2097168 219.02319336 C-177.66904206 212.0723972 -177.13473846 205.1211268 -176.60249424 198.1696806 C-176.09276097 191.51268306 -175.57957547 184.8559522 -175.06640625 178.19921875 C-174.969415 176.93781256 -174.87242374 175.67640636 -174.77249336 174.37677574 C-174.4965356 170.79491833 -174.21845607 167.21323218 -173.93969727 163.6315918 C-173.85913589 162.58255676 -173.77857452 161.53352173 -173.6955719 160.45269775 C-173.23895043 154.61917357 -172.67971918 148.81187045 -172 143 C-170.96951538 142.94054199 -170.96951538 142.94054199 -169.91821289 142.87988281 C-121.84529719 139.99510942 -71.20436516 129.62681429 -37.51733398 92.23803711 C-24.77438128 77.47515993 -17.70381347 59.44805494 -11.5 41.1875 C-11.15654541 40.18887939 -10.81309082 39.19025879 -10.45922852 38.16137695 C-6.29525954 25.58257987 -3.34414086 12.89882903 0 0 Z " fill="#FDC000" transform="translate(182,4)"/>
<path d="M0 0 C9.04321388 7.77420703 14.73867266 16.7630673 19.1171875 27.77734375 C19.53677734 26.63458984 19.53677734 26.63458984 19.96484375 25.46875 C22.76970625 18.24465076 25.96520976 12.55651878 31.1171875 6.77734375 C31.62765625 6.1740625 32.138125 5.57078125 32.6640625 4.94921875 C42.21177959 -5.54381686 55.73061539 -11.76128155 69.8046875 -12.5625 C86.41624495 -13.08924819 101.28323192 -9.67866578 113.89257812 1.84326172 C126.0747248 13.70421456 133.07876448 28.73104119 133.5546875 45.90234375 C133.35900764 52.7589662 131.95595691 59.18842004 130.1171875 65.77734375 C130.90480469 65.24625 131.69242188 64.71515625 132.50390625 64.16796875 C147.82971011 54.22886755 164.23060145 50.56096587 182.24389648 54.17944336 C197.28587456 57.70794579 209.22518379 66.51460335 217.65625 79.37890625 C226.88917884 94.53670922 229.02961488 111.45649689 225.1171875 128.77734375 C221.88760773 140.35788711 215.83036922 150.50955813 206.1171875 157.77734375 C207.13296875 157.86371094 208.14875 157.95007813 209.1953125 158.0390625 C226.67545719 159.73612253 240.53525705 166.31096758 252.1171875 179.77734375 C263.65282836 195.34022018 266.34094883 212.01054493 263.81689453 231.04150391 C263.02198895 235.1355208 261.71287759 238.93363743 260.1171875 242.77734375 C259.53324219 244.19660156 259.53324219 244.19660156 258.9375 245.64453125 C251.96033043 260.2181458 238.71621441 269.67116867 223.85546875 275.015625 C216.51485643 277.05759277 209.23664423 276.91875883 201.6696167 276.90432739 C199.78604159 276.90666738 199.78604159 276.90666738 197.86441445 276.90905464 C194.38791481 276.91322185 190.91144269 276.91116862 187.43494296 276.90806842 C183.67762999 276.90580233 179.92032169 276.90930103 176.16300964 276.91204834 C168.78674012 276.91650087 161.41048076 276.91552929 154.03421083 276.9126357 C147.99859831 276.91036804 141.96298862 276.91007507 135.92737579 276.91115952 C134.63326941 276.91138936 134.63326941 276.91138936 133.31301947 276.91162386 C131.55893705 276.91194367 129.80485464 276.91226788 128.05077222 276.91259645 C111.56656745 276.91545269 95.08236821 276.91216797 78.59816435 276.90679608 C64.62614969 276.90238176 50.6541434 276.90305845 36.68212891 276.90771484 C20.35829953 276.91315272 4.03447512 276.91512183 -12.28935504 276.91210258 C-14.05741294 276.91178417 -15.82547084 276.9114698 -17.59352875 276.91115952 C-18.89722802 276.9109281 -18.89722802 276.9109281 -20.22726466 276.91069201 C-26.18134961 276.90984984 -32.13543124 276.91126692 -38.08951569 276.91363907 C-59.53180641 276.92119411 -80.97351266 276.8848914 -102.41559339 276.7880398 C-104.95300024 276.77703947 -107.49040949 276.76729804 -110.02782249 276.75783062 C-119.63325415 276.72105735 -129.2383236 276.66903 -138.84344916 276.58263298 C-142.97991534 276.54548411 -147.11618916 276.51401675 -151.25280046 276.49903703 C-155.09149485 276.48469561 -158.92957553 276.45135724 -162.76799852 276.40385976 C-164.16431175 276.38963643 -165.56070973 276.38184334 -166.95709532 276.38140139 C-184.3186343 276.36551497 -197.90938783 271.12964607 -210.5625 259.25 C-223.37908527 245.59192176 -226.41960255 228.99521724 -226.15625 210.9921875 C-225.64487251 196.81285415 -217.90012023 184.16472932 -208.3359375 174.03125 C-198.20557359 164.72357488 -186.62068732 160.00582257 -173.0703125 159.21484375 C-172.37744141 159.17166016 -171.68457031 159.12847656 -170.97070312 159.08398438 C-169.27492564 158.97872922 -167.57889198 158.87761512 -165.8828125 158.77734375 C-166.84380859 157.99423828 -166.84380859 157.99423828 -167.82421875 157.1953125 C-179.24085594 147.48011155 -186.65696681 135.27344063 -188.13720703 120.18408203 C-188.70800708 110.23355199 -188.76054286 100.10165722 -184.8828125 90.77734375 C-184.50382813 89.82085937 -184.12484375 88.864375 -183.734375 87.87890625 C-177.35632973 73.53752121 -165.64444961 62.71028921 -151.1328125 56.90234375 C-135.70238199 51.16343979 -119.43729896 52.64506592 -104.59375 59.23828125 C-99.53740259 61.66188329 -95.18804526 64.15845244 -90.8828125 67.77734375 C-91.08777344 67.19726562 -91.29273438 66.6171875 -91.50390625 66.01953125 C-91.77332031 65.23835938 -92.04273438 64.4571875 -92.3203125 63.65234375 C-92.58714844 62.88664062 -92.85398437 62.1209375 -93.12890625 61.33203125 C-97.23418958 47.42086391 -95.51081636 32.56089596 -89.375 19.58984375 C-80.85511932 4.05592177 -68.63361634 -5.6158865 -51.8828125 -11.22265625 C-33.53102224 -15.25799388 -14.89702421 -11.48564603 0 0 Z " fill="#FDFDFC" transform="translate(935.8828125,315.22265625)"/>
<path d="M0 0 C9.955029 6.7443807 18.52970377 16.34495946 21.43432617 28.27514648 C23.42311919 40.53492424 21.57265434 53.15507816 19.67578125 65.3046875 C19.44578803 66.83937029 19.21679977 68.374204 18.98876953 69.90917969 C17.5091231 79.80029016 15.9294013 89.6762817 14.31005859 99.54541016 C13.01830331 107.48726412 11.93968688 115.44789419 10.96435547 123.43457031 C10.43757521 127.68492548 9.83840685 131.88792794 9.02734375 136.09375 C7.27759378 145.43401117 6.17746126 154.887727 4.92578125 164.3046875 C1.92382405 186.88978277 1.92382405 186.88978277 0.33691406 195.11181641 C-0.30906619 198.55730013 -0.7526486 202.01531991 -1.19921875 205.4921875 C-1.36679687 206.78511719 -1.534375 208.07804688 -1.70703125 209.41015625 C-1.88878906 210.84294922 -1.88878906 210.84294922 -2.07421875 212.3046875 C-4.92413525 210.87972925 -5.17835311 209.14874104 -6.41015625 206.2265625 C-6.88662598 205.10934814 -7.3630957 203.99213379 -7.85400391 202.84106445 C-8.11175598 202.22897125 -8.36950806 201.61687805 -8.6350708 200.98623657 C-10.0732999 197.57406797 -11.53582913 194.1723141 -12.99609375 190.76953125 C-13.47551926 189.65054695 -13.47551926 189.65054695 -13.96463013 188.50895691 C-18.1177758 178.83786542 -22.41404047 169.23029103 -26.69921875 159.6171875 C-28.42491764 155.74238267 -30.15000302 151.86730485 -31.875 147.9921875 C-32.30623672 147.0236232 -32.73747345 146.0550589 -33.18177795 145.05714417 C-39.71906619 130.36924626 -46.20770981 115.65980226 -52.69883728 100.95146179 C-54.94286248 95.86672596 -57.18852608 90.78271873 -59.43586731 85.69944763 C-60.84051632 82.52205541 -62.24447022 79.34435637 -63.64828491 76.16659546 C-64.2990617 74.69383349 -64.95011647 73.22119431 -65.60147095 71.74868774 C-66.49033376 69.73906586 -67.37811186 67.72896822 -68.265625 65.71875 C-69.01114624 64.03193115 -69.01114624 64.03193115 -69.77172852 62.31103516 C-74.65000736 51.05121778 -76.53239125 37.33706375 -72.51171875 25.4296875 C-68.48047183 16.12245777 -63.26640508 8.35356927 -55.07421875 2.3046875 C-54.4709375 1.84449219 -53.86765625 1.38429688 -53.24609375 0.91015625 C-37.49675758 -10.04158802 -16.43048731 -9.07722854 0 0 Z " fill="#EC1944" transform="translate(925.07421875,318.6953125)"/>
<path d="M0 0 C4.20996586 2.70640662 7.8118646 5.84955442 11.1640625 9.57421875 C11.9890625 10.46109375 12.8140625 11.34796875 13.6640625 12.26171875 C22.6419544 23.30707471 24.5431103 36.77684554 23.1640625 50.57421875 C20.48869087 63.73826325 12.74143536 74.18983107 1.77734375 81.73828125 C0.0159207 82.90031346 -1.75149899 84.0532851 -3.5234375 85.19921875 C-5.01315063 86.17785889 -5.01315063 86.17785889 -6.53295898 87.17626953 C-8.87828878 88.71652191 -11.2255364 90.25349978 -13.57519531 91.78710938 C-18.61735041 95.08128918 -23.6443812 98.3983483 -28.671875 101.71484375 C-40.28065364 109.37259391 -40.28065364 109.37259391 -46.08666992 113.19384766 C-57.70798712 120.84294319 -57.70798712 120.84294319 -69.29296875 128.546875 C-75.33371544 132.58452623 -81.39823221 136.58538916 -87.46875 140.578125 C-88.40293259 141.19272583 -89.33711517 141.80732666 -90.29960632 142.44055176 C-94.15923258 144.97947345 -98.01909148 147.51803665 -101.88037109 150.05444336 C-112.61726908 157.10859797 -123.33173607 164.17628446 -133.8359375 171.57421875 C-134.1659375 170.91421875 -134.4959375 170.25421875 -134.8359375 169.57421875 C-133.77398691 166.86450021 -132.64051102 164.26598607 -131.41015625 161.6328125 C-131.03623245 160.81551163 -130.66230865 159.99821075 -130.27705383 159.15614319 C-129.46202887 157.3763348 -128.64352585 155.59811606 -127.82202148 153.82128906 C-125.60581825 149.02639024 -123.41559108 144.21963616 -121.22265625 139.4140625 C-120.77042694 138.42469696 -120.31819763 137.43533142 -119.8522644 136.41598511 C-115.4098888 126.68026224 -111.11261839 116.88356766 -106.8359375 107.07421875 C-99.85005441 91.0718165 -92.71161591 75.14301104 -85.47558594 59.25219727 C-82.06666803 51.75980915 -78.67040585 44.26731813 -75.44140625 36.6953125 C-74.94825928 35.54482422 -74.4551123 34.39433594 -73.94702148 33.20898438 C-73.08444026 31.1827308 -72.23236154 29.15194725 -71.39477539 27.11523438 C-68.7105162 20.81180759 -65.26749319 15.78502055 -60.8359375 10.57421875 C-60.29614258 9.92662598 -59.75634766 9.2790332 -59.20019531 8.61181641 C-45.03213683 -7.89819014 -18.52032131 -9.31118082 0 0 Z " fill="#1C9CD7" transform="translate(1128.8359375,385.42578125)"/>
<path d="M0 0 C1.09248047 0.76763672 1.09248047 0.76763672 2.20703125 1.55078125 C2.84253906 1.99035156 3.47804688 2.42992187 4.1328125 2.8828125 C14.7946962 11.08608 19.61996154 25.52637263 24.89453125 37.42578125 C25.7259432 39.2844119 26.55807197 41.14272204 27.39086914 43.00073242 C29.57180758 47.87284633 31.74183689 52.74973505 33.90844727 57.62823486 C35.58789031 61.40792895 37.27206286 65.18550655 38.95614624 68.96313477 C43.10627618 78.2737309 47.24237942 87.59049216 51.37265015 96.90991211 C54.46140829 103.87656592 57.56270418 110.83756527 60.66796875 117.796875 C62.01751357 120.82392964 63.36684525 123.85107919 64.71609497 126.87826538 C65.56869922 128.78994261 66.42208162 130.70127302 67.27633667 132.61221313 C72.44814691 144.18298368 77.45738273 155.79998382 82.20703125 167.55078125 C77.29682872 165.902412 73.32998429 163.12939779 69.078125 160.25 C68.27204803 159.70981735 67.46597107 159.1696347 66.63546753 158.61308289 C64.88624033 157.44029446 63.13838717 156.26545461 61.39175415 155.08880615 C56.68288433 151.91691905 51.9638499 148.7602103 47.24609375 145.6015625 C46.26484024 144.94401978 45.28358673 144.28647705 44.27259827 143.60900879 C33.39274404 136.32385119 22.45872726 129.12140026 11.51953125 121.92578125 C7.95297868 119.57964937 4.38650474 117.23339831 0.8203125 114.88671875 C-0.01593658 114.33649048 -0.85218567 113.78626221 -1.71377563 113.21936035 C-7.26115382 109.56668746 -12.79338378 105.89209326 -18.31503296 102.20066833 C-22.19705399 99.60763844 -26.0921992 97.03551399 -29.9959259 94.47528076 C-32.82516684 92.61865666 -35.6499605 90.75532799 -38.47436523 88.89135742 C-39.90217097 87.95131852 -41.33188268 87.01416857 -42.76342773 86.07983398 C-57.18659265 76.65905517 -71.11118495 67.48354261 -75.3203125 49.6640625 C-77.61749305 34.53304679 -74.91210406 21.03957394 -65.79296875 8.55078125 C-58.71752924 0.03931173 -50.32952791 -4.46755382 -39.79296875 -7.44921875 C-39.1896875 -7.63355469 -38.58640625 -7.81789063 -37.96484375 -8.0078125 C-24.59849679 -10.72435424 -11.28249825 -7.3454714 0 0 Z " fill="#F17326" transform="translate(833.79296875,388.44921875)"/>
<path d="M0 0 C9.27209819 6.72620004 16.86444557 17.01176145 19.8046875 28.234375 C20.125 30.3515625 20.125 30.3515625 20.3046875 32.671875 C20.42457031 34.12980469 20.42457031 34.12980469 20.546875 35.6171875 C21.0949235 48.99601845 17.15625701 61.23787912 8.71484375 71.62890625 C-0.08387598 81.13152356 -12.65234501 86.57863739 -25.5408808 87.11270571 C-29.1955051 87.18408115 -32.84631205 87.16154701 -36.5012207 87.12597656 C-38.14843722 87.1248456 -39.79565574 87.12548679 -41.44287109 87.12774658 C-45.87395909 87.12888497 -50.30460585 87.10551911 -54.73559213 87.07745075 C-59.38133722 87.05228961 -64.02709462 87.05008358 -68.67289734 87.04534912 C-77.45217928 87.03296229 -86.23125979 87.00019934 -95.0104534 86.95995116 C-105.01295442 86.91509914 -115.01546552 86.89321277 -125.01804221 86.87316942 C-145.57724433 86.83146248 -166.13626568 86.76119471 -186.6953125 86.671875 C-184.69568305 84.63482744 -182.78302576 82.94650792 -180.39013672 81.38549805 C-179.73486496 80.95539932 -179.0795932 80.5253006 -178.40446472 80.08216858 C-177.69349136 79.62063889 -176.98251801 79.15910919 -176.25 78.68359375 C-175.50007278 78.1924559 -174.75014557 77.70131805 -173.97749329 77.19529724 C-172.35704048 76.13446423 -170.73554569 75.07522154 -169.11312866 74.01739502 C-164.79594783 71.20241675 -160.4862302 68.37605248 -156.17578125 65.55078125 C-155.29785416 64.97575867 -154.41992706 64.40073608 -153.51539612 63.80828857 C-143.63502285 57.33175347 -133.8124485 50.76928354 -123.99755859 44.1940918 C-116.84985368 39.41064951 -109.66187899 34.69731782 -102.43228149 30.03857422 C-96.73163614 26.35835302 -91.0703261 22.62106681 -85.41796875 18.8671875 C-83.65042067 17.69526718 -81.8828424 16.5233924 -80.11523438 15.3515625 C-77.41928443 13.56395813 -74.72451722 11.77468014 -72.03295898 9.98046875 C-69.37305636 8.2083167 -66.70844968 6.44343453 -64.04296875 4.6796875 C-63.25108658 4.14940948 -62.45920441 3.61913147 -61.64332581 3.07278442 C-41.82672857 -9.99658021 -20.79386275 -13.41968139 0 0 Z " fill="#27AA4A" transform="translate(1170.6953125,494.328125)"/>
<path d="M0 0 C3.26641524 2.04716154 6.45529486 4.20226701 9.64453125 6.3671875 C11.51859354 7.62798865 13.39303474 8.88822673 15.26782227 10.14794922 C16.22036896 10.78923767 17.17291565 11.43052612 18.15432739 12.09124756 C22.59047479 15.06682077 27.05203213 18.00332138 31.515625 20.9375 C32.82031738 21.79607605 32.82031738 21.79607605 34.15136719 22.67199707 C35.93476271 23.8455848 37.71828233 25.01898399 39.50192261 26.19219971 C54.51044299 36.06543239 69.49413457 45.97388602 84.42996216 55.95672607 C97.62433366 64.77365831 110.88922198 73.48074548 124.18041992 82.15087891 C125.11088135 82.76108887 126.04134277 83.37129883 127 84 C127.55821442 84.35906433 128.11642883 84.71812866 128.69155884 85.08807373 C130.14475827 86.0329948 131.57465809 87.0135595 133 88 C133 88.33 133 88.66 133 89 C111.54628981 89.07017868 90.09259863 89.12303154 68.63879681 89.15543652 C58.67672061 89.17088473 48.71471587 89.19193505 38.75268555 89.22631836 C30.06660453 89.25628344 21.38057528 89.27558986 12.694444 89.28226548 C8.09808205 89.28616572 3.50186817 89.29528896 -1.09444618 89.31719017 C-5.42741082 89.33766777 -9.76016746 89.34381118 -14.09317589 89.33932304 C-15.67693591 89.34014323 -17.26070345 89.3460414 -18.84442139 89.35761642 C-35.10277347 89.47054 -49.03785515 86.33179854 -61.22265625 74.89453125 C-70.98016182 64.49367367 -73.64686521 52.23505595 -73.54296875 38.32202148 C-73.14853052 27.54995447 -69.09724793 19.02005794 -62 11 C-61.40316406 10.32195312 -60.80632813 9.64390625 -60.19140625 8.9453125 C-44.27239968 -8.03069049 -20.23994156 -11.37336987 0 0 Z " fill="#F6CE47" transform="translate(793,492)"/>
<path d="M0 0 C0.91265625 0.30679687 1.8253125 0.61359375 2.765625 0.9296875 C16.50048127 6.03623663 24.98309952 14.68250526 31.3125 27.69921875 C36.1918051 39.84665541 35.789152 53.23873094 30.875 65.25 C29.31549186 68.86460133 27.65878291 72.43011228 26 76 C24.94485301 78.34237235 23.8929752 80.68621911 22.84375 83.03125 C20.78358815 87.62755565 18.70975353 92.21732937 16.62168884 96.80102539 C12.77367064 105.25054551 9.01957356 113.73781885 5.3125 122.25 C-0.23294828 134.97520196 -5.82302556 147.68009616 -11.4375 160.375 C-12.03812256 161.73324387 -12.03812256 161.73324387 -12.65087891 163.118927 C-14.25433439 166.74496342 -15.85783795 170.37097856 -17.46154785 173.99690247 C-21.54252002 183.22460741 -25.6157307 192.45573132 -29.6875 201.6875 C-30.33585588 203.15738943 -30.98421199 204.62727875 -31.63256836 206.09716797 C-33.08851312 209.3980528 -34.54430956 212.69900301 -36 216 C-36.66 215.67 -37.32 215.34 -38 215 C-38.50879765 213.06876469 -38.50879765 213.06876469 -38.87916565 210.48316956 C-39.09568283 209.01820038 -39.09568283 209.01820038 -39.3165741 207.52363586 C-39.46677505 206.44277206 -39.61697601 205.36190826 -39.77172852 204.24829102 C-39.93622498 203.11638336 -40.10072144 201.98447571 -40.27020264 200.81826782 C-40.81555851 197.04806327 -41.34754112 193.2761062 -41.87890625 189.50390625 C-42.2542235 186.88036341 -42.63010529 184.2569066 -43.00657654 181.63352966 C-43.79721344 176.11360486 -44.58034001 170.59265266 -45.35913086 165.07104492 C-46.25342633 158.73119181 -47.15948973 152.39310901 -48.07214218 146.05587441 C-48.95388948 139.93109839 -49.82676825 133.80508776 -50.69590569 127.67851067 C-51.0640841 125.08898885 -51.43442606 122.49977359 -51.80706978 119.91089058 C-55.15017455 96.62906461 -55.15017455 96.62906461 -55.85522461 85.55834961 C-55.90496461 84.84524659 -55.95470461 84.13214357 -56.00595188 83.39743137 C-56.237047 78.64635217 -55.69479943 75.27837561 -52.62890625 71.5859375 C-51.82259766 70.80089844 -51.82259766 70.80089844 -51 70 C-50.17822266 69.12214844 -50.17822266 69.12214844 -49.33984375 68.2265625 C-43.99076749 63.02512529 -34.67949099 56 -27 56 C-29.97141109 51.65716841 -31.90541876 50.22972651 -37 49 C-41.12114823 48.62561762 -45.23949089 48.49190485 -49.375 48.375 C-51.05142578 48.31699219 -51.05142578 48.31699219 -52.76171875 48.2578125 C-55.50765161 48.16393445 -58.25358476 48.07825089 -61 48 C-61.6587865 38.10356274 -60.70424276 30.77210254 -56 22 C-55.56558594 21.18660156 -55.13117187 20.37320312 -54.68359375 19.53515625 C-48.11136003 8.58143338 -37.09335233 2.33332161 -25.125 -1.3125 C-16.94342892 -3.08012338 -7.89195844 -2.81855658 0 0 Z " fill="#655FAC" transform="translate(1025,314)"/>
<path d="M0 0 C9.57 0 19.14 0 29 0 C31.41563799 7.85082348 33.72836565 15.53912688 35.625 23.5 C36.81710723 28.4947784 38.02281063 33.24982305 40 38 C40.50999279 39.88777437 40.98778423 41.78446546 41.4375 43.6875 C42.77348399 49.1882096 44.31457728 54.59708462 46 60 C50.78303691 46.12393688 54.95097292 32.10551274 59 18 C59.95356784 14.686098 60.91230367 11.37376008 61.875 8.0625 C62.07810791 7.35279053 62.28121582 6.64308105 62.49047852 5.91186523 C63.88657518 1.11342482 63.88657518 1.11342482 65 0 C66.99964982 -0.08758003 69.0023611 -0.10696576 71.00390625 -0.09765625 C72.21884766 -0.09443359 73.43378906 -0.09121094 74.68554688 -0.08789062 C75.96494141 -0.07951172 77.24433594 -0.07113281 78.5625 -0.0625 C79.84576172 -0.05798828 81.12902344 -0.05347656 82.45117188 -0.04882812 C85.63416022 -0.03699545 88.81705762 -0.02051068 92 0 C94.97269167 7.03070515 97.33492809 14.10198648 99.41796875 21.44140625 C99.72068192 22.49029526 100.02339508 23.53918427 100.33528137 24.61985779 C101.29087001 27.93269995 102.2397453 31.24740894 103.1875 34.5625 C104.14663888 37.90952255 105.10727376 41.2560885 106.07185364 44.60154724 C106.66949808 46.67502127 107.26390079 48.7494329 107.8547821 50.82484436 C108.25573845 52.21780983 108.25573845 52.21780983 108.66479492 53.63891602 C108.89921799 54.4592482 109.13364105 55.27958038 109.37516785 56.12477112 C109.84156631 57.99067245 109.84156631 57.99067245 111 59 C111.19822861 58.27559219 111.39645721 57.55118439 111.60069275 56.80482483 C113.46598164 49.99063719 115.33447591 43.17733873 117.20661068 36.36502934 C118.1690655 32.86240981 119.13026072 29.35945459 120.08862305 25.85571289 C121.01288782 22.47681004 121.94040134 19.09881477 122.87021065 15.72143364 C123.39816775 13.8003515 123.9227229 11.87833548 124.44725037 9.95631409 C124.92763512 8.21462196 124.92763512 8.21462196 125.41772461 6.43774414 C125.69974228 5.40960098 125.98175995 4.38145782 126.27232361 3.32215881 C127 1 127 1 128 0 C130.21855264 -0.08783542 132.43988496 -0.10694609 134.66015625 -0.09765625 C135.65685585 -0.09553383 135.65685585 -0.09553383 136.6736908 -0.09336853 C138.80333899 -0.08775518 140.93288339 -0.07520054 143.0625 -0.0625 C144.50325369 -0.05748671 145.94400903 -0.05292351 147.38476562 -0.04882812 C150.92321102 -0.03778145 154.46159539 -0.02050792 158 0 C156.7389532 6.90738047 155.0688772 13.58144747 153.03491211 20.29907227 C152.59797279 21.76188881 152.59797279 21.76188881 152.15220642 23.2542572 C151.19842769 26.44301137 150.23807922 29.62974183 149.27734375 32.81640625 C148.60968217 35.04165049 147.94233366 37.26698869 147.27528381 39.49241638 C145.88197552 44.13717769 144.4855132 48.78097499 143.08666992 53.42407227 C141.29006376 59.38805226 139.50045822 65.35410533 137.71304989 71.32084751 C136.33864191 75.90673976 134.96106657 80.49167553 133.5824604 85.0763073 C132.92091363 87.27738228 132.26025193 89.47872347 131.60047722 91.68033028 C130.68203735 94.74300672 129.75946579 97.80440696 128.83569336 100.86547852 C128.56190857 101.78124664 128.28812378 102.69701477 128.00604248 103.64053345 C127.75513351 104.46887192 127.50422455 105.29721039 127.24571228 106.15065002 C127.02800139 106.87417443 126.81029051 107.59769884 126.58598232 108.34314823 C126 110 126 110 125 111 C115.43 111 105.86 111 96 111 C90.39 91.86 84.78 72.72 79 53 C77.04747772 55.92878342 76.26925206 58.04235595 75.30419922 61.3894043 C74.82392776 63.04077644 74.82392776 63.04077644 74.33395386 64.72550964 C73.99429596 65.91308365 73.65463806 67.10065765 73.3046875 68.32421875 C72.95238068 69.54075638 72.60007385 70.75729401 72.23709106 72.01069641 C71.3028859 75.24004806 70.37320303 78.47063223 69.44567871 81.7019043 C68.49750857 85.00092795 67.54348466 88.29825754 66.58984375 91.59570312 C64.72021751 98.06200302 62.86039128 104.53100844 61 111 C51.43 111 41.86 111 32 111 C29.90885339 106.1206579 28.12676084 101.49697694 26.66015625 96.44140625 C26.45192734 95.73459213 26.24369843 95.02777802 26.02915955 94.29954529 C25.59099482 92.80846488 25.1549551 91.31675854 24.72094727 89.82446289 C24.07285565 87.59807474 23.4168857 85.37412843 22.75976562 83.15039062 C20.47031228 75.35592796 18.3415567 67.54268084 16.40722656 59.65261841 C14.94382739 53.70072399 13.29652374 47.81546223 11.5625 41.9375 C11.2624707 40.91382324 10.96244141 39.89014648 10.65332031 38.83544922 C8.5998688 31.88505276 6.39717508 25.00216229 4.06640625 18.140625 C3.07707082 15.22697781 2.11018156 12.31041483 1.1875 9.375 C0.95417969 8.64023437 0.72085938 7.90546875 0.48046875 7.1484375 C0 5 0 5 0 0 Z " fill="#010000" transform="translate(721,606)"/>
<path d="M0 0 C14.293125 -0.0928125 14.293125 -0.0928125 28.875 -0.1875 C31.8641748 -0.21481201 34.85334961 -0.24212402 37.93310547 -0.27026367 C40.32779538 -0.2790334 42.7224898 -0.28667619 45.1171875 -0.29296875 C46.33994385 -0.30831665 47.5627002 -0.32366455 48.82250977 -0.33947754 C60.51060891 -0.34301867 69.52241367 1.61985719 78 10 C86.32775498 19.96421338 88.01191834 30.3062151 87.21142578 42.99072266 C86.11702375 53.39133315 80.15921895 60.8858018 73 68 C75.16351287 72.04336112 77.33093275 76.08461668 79.5 80.125 C79.81857971 80.71902618 80.13715942 81.31305237 80.46539307 81.92507935 C84.74195126 89.89421707 89.09866811 97.79672765 93.7421875 105.55859375 C95 108 95 108 95 111 C90.53450817 111.19834763 86.07136975 111.3431785 81.6027832 111.43945312 C80.08442521 111.47959307 78.56637478 111.5341233 77.04907227 111.60351562 C64.66772041 112.15542118 64.66772041 112.15542118 61.11083984 109.69116211 C59.69540849 107.53151398 58.8854207 105.42818911 58 103 C56.91189132 100.70003626 55.81038416 98.41164946 54.6875 96.12890625 C54.07895453 94.88369437 53.47088845 93.63824811 52.86328125 92.39257812 C52.55471191 91.76424072 52.24614258 91.13590332 51.92822266 90.48852539 C51.30715468 89.19983384 50.70268669 87.90301545 50.11474609 86.59887695 C49.24712504 84.6870924 48.31913853 82.81634865 47.375 80.94140625 C46.84648438 79.82451416 46.31796875 78.70762207 45.7734375 77.55688477 C42.02915166 73.57527004 42.02915166 73.57527004 30 74 C30 86.21 30 98.42 30 111 C20.1 111 10.2 111 0 111 C0 74.37 0 37.74 0 0 Z M30 27 C30 33.27 30 39.54 30 46 C33.56377018 46.13510502 37.12241117 46.23417099 40.6875 46.3125 C41.69490234 46.35439453 42.70230469 46.39628906 43.74023438 46.43945312 C49.85421858 46.55892221 49.85421858 46.55892221 55.17578125 43.765625 C57.84862084 39.71343992 57.81519194 36.68954501 57 32 C55.27310955 28.71068486 54.5579199 28.1859733 51 27 C49.37280518 26.91856145 47.74248281 26.8924698 46.11328125 26.90234375 C45.17548828 26.90556641 44.23769531 26.90878906 43.27148438 26.91210938 C42.29501953 26.92048828 41.31855469 26.92886719 40.3125 26.9375 C39.32443359 26.94201172 38.33636719 26.94652344 37.31835938 26.95117188 C34.87888042 26.9629568 32.43943259 26.98089217 30 27 Z " fill="#000000" transform="translate(894,606)"/>
<path d="M0 0 C26.4 0 52.8 0 80 0 C80 8.91 80 17.82 80 27 C63.5 27 47 27 30 27 C30 31.62 30 36.24 30 41 C45.18 41 60.36 41 76 41 C76 49.91 76 58.82 76 68 C60.82 68 45.64 68 30 68 C30 72.95 30 77.9 30 83 C47.16 83 64.32 83 82 83 C82.020625 87.434375 82.04125 91.86875 82.0625 96.4375 C82.071604 97.83798584 82.08070801 99.23847168 82.09008789 100.68139648 C82.09258545 101.77524658 82.09508301 102.86909668 82.09765625 103.99609375 C82.10289307 105.12200928 82.10812988 106.2479248 82.11352539 107.40795898 C82 110 82 110 81 111 C78.47455024 111.095044 75.97666582 111.1255585 73.45092773 111.11352539 C72.24641637 111.11370619 72.24641637 111.11370619 71.01757145 111.11389065 C68.40621782 111.11314149 65.79493469 111.10551312 63.18359375 111.09765625 C61.57621291 111.09618684 59.9688316 111.09516612 58.3614502 111.09460449 C52.38679286 111.08935148 46.41214574 111.07539041 40.4375 111.0625 C27.093125 111.041875 13.74875 111.02125 0 111 C0 74.37 0 37.74 0 0 Z " fill="#000000" transform="translate(998,606)"/>
<path d="M0 0 C29.67558342 -4.34474796 29.67558342 -4.34474796 37.78277588 1.22473145 C45.1605152 8.14021208 49.68185998 18.61716478 53 28 C53 28.66 53 29.32 53 30 C53.66 30 54.32 30 55 30 C56.05612233 27.39260449 57.077934 24.78397727 58.03271484 22.13745117 C61.19921408 13.82096179 64.7429219 5.47576457 72 0 C83.04479675 -3.83218901 96.66139633 -1.4668602 108 0 C106.70998454 3.47607909 105.20227778 6.45323032 103.15844727 9.54321289 C102.30229576 10.84464989 102.30229576 10.84464989 101.42884827 12.17237854 C100.8142424 13.09647018 100.19963654 14.02056183 99.56640625 14.97265625 C98.93266586 15.93272079 98.29892548 16.89278534 97.64598083 17.88194275 C96.30734952 19.90811875 94.96656445 21.93287326 93.6237793 23.95629883 C91.56954179 27.05188853 89.52149485 30.15149834 87.47460938 33.25195312 C86.1722335 35.22159126 84.86951076 37.1910001 83.56640625 39.16015625 C82.95382462 40.08627213 82.34124298 41.012388 81.71009827 41.96656799 C81.13617844 42.8310405 80.56225861 43.695513 79.97094727 44.58618164 C79.46845963 45.34387344 78.96597198 46.10156525 78.44825745 46.88221741 C77 49 77 49 75.1893158 50.96336365 C73.68726177 52.98710942 73.68726177 52.98710942 74.6368866 55.47476196 C75.93340479 57.87662893 77.27916764 60.14432603 78.80981445 62.40380859 C79.37412674 63.24172943 79.93843903 64.07965027 80.51985168 64.94296265 C81.12818344 65.83576935 81.7365152 66.72857605 82.36328125 67.6484375 C82.99227829 68.57919098 83.62127533 69.50994446 84.26933289 70.46890259 C86.27932477 73.44060631 88.29592337 76.40776184 90.3125 79.375 C91.65861541 81.36430441 93.00432305 83.35388482 94.34960938 85.34375 C96.83139222 89.00989672 99.31345948 92.67583992 101.80200195 96.33740234 C102.34289459 97.13394226 102.88378723 97.93048218 103.44107056 98.75115967 C104.89324173 100.8459954 106.39941083 102.88874877 107.92260742 104.93212891 C110 108 110 108 110 111 C78.91445293 114.16801593 78.91445293 114.16801593 71.22998047 109.21435547 C67.11420776 104.62719863 64.94002784 99.24072394 62.92919922 93.47509766 C61.64016312 90.0415065 59.84527465 87.37916538 57.75 84.375 C55 80.22380952 55 80.22380952 55 78 C54.34 78 53.68 78 53 78 C52.73501709 78.71478516 52.47003418 79.42957031 52.19702148 80.16601562 C50.96379804 83.08570923 49.50737868 85.6451705 47.84765625 88.34375 C47.23599609 89.34277344 46.62433594 90.34179688 45.99414062 91.37109375 C45.35669922 92.40363281 44.71925781 93.43617188 44.0625 94.5 C42.80334172 96.55205652 41.54422567 98.60413896 40.28515625 100.65625 C39.72707275 101.56181641 39.16898926 102.46738281 38.59399414 103.40039062 C36.93376565 105.9654542 36.93376565 105.9654542 35.80517578 108.8034668 C34 111 34 111 30.35473633 111.56762695 C28.84693619 111.56683665 27.33898981 111.5386577 25.83203125 111.48828125 C25.03721848 111.48120651 24.2424057 111.47413177 23.42350769 111.46684265 C20.88554639 111.43885874 18.34979393 111.3761184 15.8125 111.3125 C14.09182875 111.28742205 12.3711229 111.26460799 10.65039062 111.24414062 C6.43274303 111.18901967 2.21674593 111.10272412 -2 111 C-0.72401892 107.55652556 0.75192975 104.63396247 2.80981445 101.59619141 C3.37412674 100.75827057 3.93843903 99.92034973 4.51985168 99.05703735 C5.12818344 98.16423065 5.7365152 97.27142395 6.36328125 96.3515625 C6.99227829 95.42080902 7.62127533 94.49005554 8.26933289 93.53109741 C10.27932477 90.55939369 12.29592337 87.59223816 14.3125 84.625 C15.65861541 82.63569559 17.00432305 80.64611518 18.34960938 78.65625 C20.83139222 74.99010328 23.31345948 71.32416008 25.80200195 67.66259766 C26.34160553 66.86347961 26.88120911 66.06436157 27.43716431 65.24102783 C28.44141493 63.80098291 29.48240056 62.38551279 30.5664978 61.00457764 C33.3298616 57.67265051 33.3298616 57.67265051 33.7752533 53.54876709 C32.99951162 50.99839439 32.09837348 49.22667816 30.61083984 47.02685547 C30.11296967 46.28192841 29.61509949 45.53700134 29.10214233 44.76950073 C28.56054474 43.97673737 28.01894714 43.183974 27.4609375 42.3671875 C26.90185699 41.5347049 26.34277649 40.70222229 25.76675415 39.84451294 C23.97705732 37.18282555 22.17644501 34.52874676 20.375 31.875 C18.02615881 28.39490369 15.68123178 24.91217477 13.3359375 21.4296875 C12.775578 20.59894714 12.21521851 19.76820679 11.63787842 18.91229248 C0 1.63642954 0 1.63642954 0 0 Z " fill="#000000" transform="translate(1088,606)"/>
<path d="M0 0 C-1.39880978 4.22667388 -3.39943995 6.83487298 -6.4375 10.0625 C-9.70894988 13.55345487 -9.70894988 13.55345487 -12.66015625 17.30859375 C-13.10230469 17.86675781 -13.54445313 18.42492187 -14 19 C-14.66 19 -15.32 19 -16 19 C-16.33 17.68 -16.66 16.36 -17 15 C-19.64 14.67 -22.28 14.34 -25 14 C-23.55581694 12.04464561 -22.10127484 10.1021068 -20.61328125 8.1796875 C-19.00565952 6.11168436 -19.00565952 6.11168436 -17.98046875 4.1328125 C-14.12215595 -2.29258492 -6.46880983 -0.47268705 0 0 Z " fill="#FE9C00" transform="translate(830,592)"/>
<path d="M0 0 C1.83246035 3.66492069 -0.39845527 8.04416298 -1.53442383 11.8125 C-3.69663804 18.24615786 -7.09797428 22.47501804 -13 26 C-13.66 26 -14.32 26 -15 26 C-16.59644898 21.80932143 -17.68634923 18.4695062 -17 14 C-15.02499854 11.54740866 -12.65743447 9.68701265 -10.1875 7.75 C-9.54490234 7.22148438 -8.90230469 6.69296875 -8.24023438 6.1484375 C-5.55735348 3.95764979 -2.88520817 1.92347211 0 0 Z " fill="#F8A300" transform="translate(778,630)"/>
</svg>
